if (_typeface_js && _typeface_js.loadFace) _typeface_js.loadFace({"glyphs":{"¦":{"x_min":129.546875,"x_max":174.984375,"ha":307,"o":"m 174 776 l 174 370 l 129 370 l 129 776 l 174 776 m 174 164 l 174 -241 l 129 -241 l 129 164 l 174 164 "},"ு":{"x_min":-223.8125,"x_max":671.4375,"ha":712,"o":"m 549 488 l 427 488 l 408 393 q 406 362 406 383 q 458 298 406 298 q 523 362 510 298 l 549 488 m 671 542 l 637 383 q 577 268 621 307 q 463 230 534 230 q 381 267 413 230 q 348 356 348 304 q 352 393 348 374 l 373 488 l -223 488 l -223 542 l 671 542 "},"௲":{"x_min":-6.78125,"x_max":949.515625,"ha":974,"o":"m 427 244 l 217 244 q 159 224 183 244 q 135 176 135 205 q 189 88 135 122 q 311 54 244 54 q 372 76 346 54 q 405 135 398 99 l 427 244 m 476 488 l 325 488 l 287 298 l 438 298 l 476 488 m 524 189 q 446 48 505 96 q 311 0 387 0 q 151 49 221 0 q 81 176 81 99 q 121 263 81 227 q 217 298 162 298 l 236 298 l 284 542 l 773 542 l 762 488 l 584 488 l 546 298 l 868 298 l 857 244 l 752 244 l 732 135 q 827 176 767 176 q 914 135 878 176 q 949 40 949 95 q 858 -125 949 -60 q 651 -189 768 -189 q 420 -159 573 -189 q 189 -128 267 -128 q 104 -160 140 -128 q 67 -237 67 -191 q 122 -318 67 -297 l 115 -345 q 28 -300 63 -336 q -6 -217 -6 -264 q 54 -123 -6 -159 q 189 -88 115 -88 q 420 -118 267 -88 q 651 -149 573 -149 q 784 -105 727 -149 q 841 6 841 -61 q 822 77 841 46 q 773 108 803 108 q 718 67 742 108 l 705 0 l 596 0 l 644 244 l 535 244 l 524 189 "},"்":{"x_min":-210.25,"x_max":-20.34375,"ha":0,"o":"m -115 678 q -182 706 -154 678 q -210 773 -210 733 q -182 840 -210 813 q -115 868 -154 868 q -47 840 -75 868 q -20 773 -20 813 q -47 706 -20 733 q -115 678 -75 678 "},"Ž":{"x_min":-2.03125,"x_max":682.96875,"ha":622,"o":"m 169 740 l 682 740 l 682 720 l 132 35 l 219 35 q 414 49 357 35 q 509 96 472 63 q 573 192 547 130 l 594 192 l 530 0 l -2 0 l -2 15 l 547 700 l 394 700 q 252 691 293 700 q 182 654 211 682 q 132 571 153 627 l 113 571 l 169 740 m 363 792 l 322 965 l 334 965 l 426 855 l 600 965 l 615 965 l 445 792 l 363 792 "},"Á":{"x_min":-54.9375,"x_max":691.1875,"ha":683,"o":"m 575 757 l 519 141 q 515 84 515 98 q 523 51 515 63 q 551 27 533 35 q 611 20 569 20 l 605 0 l 314 0 l 320 20 l 332 20 q 390 35 368 20 q 415 69 406 46 q 426 149 421 86 l 435 243 l 223 243 l 147 141 q 115 92 122 107 q 109 63 109 77 q 123 33 109 46 q 170 20 137 21 l 164 0 l -54 0 l -48 20 q 22 47 -8 21 q 114 155 53 72 l 556 757 l 575 757 m 467 575 l 253 283 l 439 283 l 467 575 m 691 983 l 531 795 l 512 795 l 568 983 l 691 983 "},"வ":{"x_min":127.5,"x_max":1131.28125,"ha":1145,"o":"m 398 176 q 385 223 398 202 q 351 244 372 244 q 307 219 324 244 q 290 162 290 195 q 317 67 290 117 q 376 101 354 69 q 398 176 398 133 m 1131 542 l 1022 0 l 520 0 q 656 271 656 113 q 585 425 656 362 q 419 488 515 488 q 250 413 319 488 q 181 230 181 338 q 202 131 181 172 q 263 67 222 90 q 236 162 236 113 q 279 268 236 225 q 385 311 322 311 q 472 271 436 311 q 507 176 507 231 q 456 51 507 103 q 330 0 404 0 q 185 68 244 0 q 127 230 127 137 q 220 460 127 365 q 446 556 312 556 q 670 474 575 556 q 765 271 765 392 q 683 54 765 152 l 925 54 l 1022 542 l 1131 542 "},"Î":{"x_min":-35.265625,"x_max":470.34375,"ha":372,"o":"m 276 20 l 269 0 l -35 0 l -27 20 q 33 27 18 21 q 68 53 57 37 q 105 145 86 79 l 234 592 q 250 676 250 647 q 243 700 250 690 q 222 715 236 710 q 166 720 208 720 l 172 740 l 458 740 l 452 720 q 400 712 417 720 q 363 681 376 701 q 330 592 350 661 l 202 145 q 184 66 184 83 q 191 43 184 52 q 212 28 198 33 q 276 20 227 23 m 429 965 l 470 792 l 458 792 l 366 903 l 192 792 l 177 792 l 347 965 l 429 965 "},"e":{"x_min":35.265625,"x_max":480.859375,"ha":496,"o":"m 132 205 q 129 160 129 178 q 163 77 129 111 q 247 43 198 43 q 323 59 286 43 q 430 130 359 75 l 442 115 q 195 -12 312 -12 q 75 37 115 -12 q 35 147 35 87 q 85 314 35 229 q 211 446 135 399 q 367 494 286 494 q 453 470 425 494 q 480 415 480 446 q 444 328 480 369 q 305 240 397 274 q 132 205 244 218 m 137 232 q 268 264 217 242 q 369 336 335 294 q 402 415 402 377 q 388 452 402 438 q 347 466 373 466 q 229 407 291 466 q 137 232 166 348 "},"»":{"x_min":20.34375,"x_max":514.09375,"ha":559,"o":"m 227 -16 l 414 243 l 354 502 l 378 502 l 514 243 l 257 -16 l 227 -16 m 20 -16 l 205 243 l 145 502 l 169 502 l 304 243 l 48 -16 l 20 -16 "},"₨":{"x_min":-25.765625,"x_max":1106.578125,"ha":1136,"o":"m 464 0 l 345 359 q 261 368 304 359 l 197 144 q 184 70 184 100 q 200 34 184 47 q 265 20 212 24 l 261 0 l -25 0 l -19 20 q 35 28 21 21 q 67 53 57 37 q 104 144 85 79 l 233 591 q 246 660 246 636 q 226 703 246 685 q 167 720 205 720 l 174 740 l 415 740 q 590 694 536 740 q 643 573 643 648 q 588 443 643 502 q 438 368 533 383 l 510 151 q 562 47 536 71 q 647 20 589 23 l 641 0 l 464 0 m 269 398 q 332 394 305 394 q 481 446 426 394 q 535 575 535 498 q 501 669 535 636 q 398 701 467 701 q 357 696 381 701 l 269 398 m 1106 494 l 1073 326 l 1053 326 q 1021 432 1050 399 q 951 465 993 465 q 898 447 918 465 q 878 402 878 429 q 885 368 878 385 q 920 322 893 352 q 1011 205 991 244 q 1032 131 1032 166 q 985 30 1032 74 q 866 -12 938 -12 q 775 5 827 -12 q 747 12 757 12 q 710 -12 723 12 l 690 -12 l 724 164 l 744 164 q 778 46 747 80 q 863 12 809 12 q 929 35 905 12 q 953 92 953 58 q 945 132 953 113 q 880 223 929 165 q 817 310 831 281 q 804 368 804 339 q 842 457 804 421 q 941 494 881 494 q 973 491 959 494 q 1009 479 981 489 q 1046 468 1037 468 q 1086 494 1069 468 l 1106 494 "},"◌":{"x_min":177.6875,"x_max":836.921875,"ha":905,"o":"m 507 515 q 474 526 485 515 q 463 560 463 537 q 476 590 463 577 q 507 603 489 603 q 540 592 529 603 q 552 560 552 581 q 540 526 552 537 q 507 515 529 515 m 651 477 q 617 488 628 477 q 606 522 606 499 q 617 554 606 543 q 651 565 628 565 q 681 552 668 565 q 694 522 694 539 q 683 488 694 499 q 651 477 672 477 m 364 477 q 332 488 343 477 q 321 522 321 499 q 334 552 321 539 q 364 565 347 565 q 395 552 382 565 q 408 522 408 539 q 397 488 408 499 q 364 477 386 477 m 754 373 q 723 385 736 373 q 710 416 710 398 q 721 450 710 438 q 754 461 732 461 q 786 450 775 461 q 797 416 797 438 q 784 385 797 398 q 754 373 771 373 m 260 373 q 226 383 238 373 q 215 416 215 394 q 226 450 215 438 q 260 461 238 461 q 292 450 282 461 q 303 416 303 438 q 290 385 303 398 q 260 373 278 373 m 793 230 q 759 241 771 230 q 748 274 748 252 q 759 306 748 295 q 793 317 771 317 q 824 304 811 317 q 836 274 836 291 q 824 243 836 256 q 793 230 811 230 m 222 230 q 188 241 200 230 q 177 274 177 252 q 188 306 177 295 q 222 317 200 317 q 252 304 240 317 q 265 274 265 291 q 252 243 265 256 q 222 230 240 230 m 754 86 q 721 98 732 86 q 710 131 710 109 q 723 162 710 149 q 754 174 736 174 q 784 162 771 174 q 797 131 797 149 q 786 98 797 109 q 754 86 775 86 m 260 86 q 226 98 238 86 q 215 131 215 109 q 226 164 215 153 q 260 174 238 174 q 290 162 278 174 q 303 131 303 149 q 292 98 303 109 q 260 86 282 86 m 651 -17 q 617 -6 628 -17 q 606 25 606 4 q 617 60 606 48 q 651 71 628 71 q 681 58 669 71 q 694 25 694 44 q 681 -4 694 8 q 651 -17 668 -17 m 364 -17 q 334 -4 347 -17 q 321 25 321 8 q 334 58 321 44 q 364 71 346 71 q 395 58 383 71 q 408 25 408 44 q 395 -4 408 8 q 364 -17 382 -17 m 507 -55 q 476 -42 489 -55 q 463 -12 463 -29 q 474 21 463 10 q 507 32 485 32 q 540 21 529 32 q 552 -12 552 10 q 540 -44 552 -33 q 507 -55 529 -55 "},"ò":{"x_min":32.5625,"x_max":516.8125,"ha":559,"o":"m 516 323 q 473 161 516 241 q 352 33 430 80 q 202 -12 275 -12 q 80 34 127 -12 q 32 158 32 82 q 78 319 32 238 q 202 447 124 400 q 351 494 279 494 q 470 446 423 494 q 516 323 516 398 m 426 360 q 401 438 426 411 q 337 465 376 465 q 189 350 257 465 q 122 122 122 236 q 148 42 122 70 q 214 14 174 14 q 359 128 291 14 q 426 360 426 242 m 423 765 l 482 577 l 465 577 l 302 765 l 423 765 "},"^":{"x_min":30.515625,"x_max":514.09375,"ha":472,"o":"m 282 757 l 514 366 l 463 366 l 273 686 l 82 366 l 30 366 l 265 757 l 282 757 "},"«":{"x_min":46.125,"x_max":539.1875,"ha":559,"o":"m 330 502 l 145 241 l 204 -16 l 180 -16 l 46 241 l 301 502 l 330 502 m 539 502 l 354 241 l 414 -16 l 390 -16 l 255 241 l 510 502 l 539 502 "},"∙":{"x_min":162.09375,"x_max":417.78125,"ha":486,"o":"m 417 360 q 380 270 417 307 q 289 233 343 233 q 199 270 236 233 q 162 360 162 307 q 199 451 162 414 q 289 489 236 489 q 380 451 343 489 q 417 360 417 414 "},"௨":{"x_min":332.328125,"x_max":963.078125,"ha":1104,"o":"m 963 54 l 949 0 l 454 0 q 332 81 332 0 q 369 140 332 118 q 454 162 407 162 l 603 162 q 719 210 672 162 q 766 325 766 257 q 732 434 766 386 q 644 481 697 481 q 576 461 614 481 q 630 339 630 430 q 598 266 630 295 q 522 237 566 237 q 449 271 478 237 q 420 352 420 305 q 501 490 420 437 q 685 542 581 542 q 819 487 764 542 q 874 352 874 432 q 794 178 874 248 q 603 108 714 108 l 461 108 q 427 81 427 108 q 467 54 427 54 l 963 54 m 522 434 q 481 366 481 399 q 515 298 481 298 q 549 366 549 298 q 522 434 549 401 "},"í":{"x_min":48.15625,"x_max":374.1875,"ha":311,"o":"m 257 494 l 149 111 q 138 65 138 72 q 143 50 138 56 q 155 45 148 45 q 174 54 164 45 q 238 124 206 78 l 257 111 q 169 15 219 54 q 99 -12 132 -12 q 62 0 76 -12 q 48 33 48 13 q 61 101 48 54 l 132 345 q 149 421 149 405 q 141 440 149 432 q 118 448 132 448 q 68 442 106 448 l 68 463 l 257 494 m 374 765 l 214 577 l 195 577 l 251 765 l 374 765 "},"ˆ":{"x_min":138.359375,"x_max":431.34375,"ha":372,"o":"m 390 757 l 431 584 l 419 584 l 327 695 l 153 584 l 138 584 l 308 757 l 390 757 "},"ள":{"x_min":128.859375,"x_max":1180.109375,"ha":1089,"o":"m 400 189 q 359 264 400 264 q 310 233 328 264 q 291 166 291 202 q 318 81 291 103 q 377 114 355 83 q 400 189 400 146 m 1053 488 l 956 0 l 847 0 l 945 488 l 782 488 l 685 0 l 576 0 l 626 257 q 631 302 631 282 q 577 444 631 386 q 440 501 524 501 q 257 422 331 501 q 183 230 183 342 q 203 143 183 177 q 264 94 223 109 q 244 183 244 132 q 285 288 244 244 q 386 332 326 332 q 473 291 438 332 q 508 196 508 251 q 458 58 508 116 q 332 0 407 0 q 187 68 245 0 q 128 230 128 137 q 219 460 128 364 q 440 556 309 556 q 620 494 552 556 q 701 339 689 432 l 741 542 l 1180 542 l 1166 488 l 1053 488 "},"µ":{"x_min":-25.09375,"x_max":579.875,"ha":644,"o":"m 199 480 l 282 480 l 202 202 q 181 127 183 139 q 179 103 179 115 q 193 54 179 70 q 232 37 208 37 q 296 67 256 37 q 390 185 335 96 q 420 273 402 212 l 480 480 l 563 480 l 472 165 l 457 113 q 454 82 454 97 q 463 50 454 61 q 485 40 472 40 q 516 51 501 40 q 560 117 535 68 l 579 117 q 515 28 564 69 q 441 -12 466 -12 q 391 8 412 -12 q 370 67 370 29 q 373 110 370 83 q 282 17 330 48 q 197 -12 234 -12 q 139 3 164 -12 q 108 46 124 14 q 87 -35 93 -4 q 74 -149 82 -66 q 53 -221 69 -202 q 15 -240 37 -240 q -12 -230 -2 -240 q -25 -198 -25 -216 q -20 -170 -25 -185 q 16 -95 -14 -156 q 50 -17 35 -60 q 93 117 66 25 l 199 480 "},"’":{"x_min":219.0625,"x_max":379.125,"ha":372,"o":"m 219 536 q 285 583 259 554 q 305 624 305 604 q 301 642 305 634 q 286 660 299 647 q 271 678 273 673 q 267 699 267 687 q 284 740 267 723 q 322 757 300 757 q 361 739 344 757 q 379 693 379 720 q 340 595 379 645 q 229 518 302 545 l 219 536 "},"ஞ":{"x_min":134.28125,"x_max":1300.828125,"ha":1302,"o":"m 629 176 q 614 232 629 208 q 575 257 599 257 q 516 229 539 257 q 493 162 493 201 q 507 67 493 104 q 593 99 556 67 q 629 176 629 130 m 1300 542 l 1287 488 l 1086 488 l 1048 298 q 1119 325 1080 325 q 1221 264 1182 325 q 1260 122 1260 204 q 1083 -209 1260 -80 q 676 -339 907 -339 q 292 -185 451 -339 q 134 189 134 -32 q 317 542 134 387 l 351 508 q 188 189 188 371 q 331 -147 188 -9 q 676 -284 474 -284 q 1009 -168 868 -284 q 1151 122 1151 -52 q 1133 219 1151 174 q 1083 264 1115 264 q 1032 217 1041 264 l 988 0 l 880 0 l 978 488 l 670 488 q 470 418 554 488 q 385 244 385 349 q 402 150 385 191 q 453 81 419 109 q 439 176 439 104 q 485 300 439 248 q 602 352 532 352 q 694 308 657 352 q 731 203 731 263 q 678 60 731 120 q 548 0 626 0 q 393 72 455 0 q 330 244 330 145 q 432 457 330 372 q 670 542 533 542 l 1300 542 "},"-":{"x_min":29.15625,"x_max":334.359375,"ha":372,"o":"m 334 278 l 311 206 l 29 206 l 51 278 l 334 278 "},"Q":{"x_min":52.90625,"x_max":802.34375,"ha":808,"o":"m 326 -16 l 186 -130 q 247 -124 219 -124 q 298 -128 275 -124 q 397 -148 321 -131 q 530 -166 474 -166 q 633 -145 591 -166 q 715 -74 676 -124 l 733 -83 q 601 -200 677 -164 q 438 -236 524 -236 q 309 -217 391 -236 q 132 -189 183 -189 q 101 -191 113 -189 q 65 -205 89 -194 l 52 -190 l 276 -13 q 119 77 172 0 q 65 242 65 154 q 138 489 65 361 q 323 687 210 617 q 544 757 436 757 q 682 724 626 757 q 771 629 739 691 q 802 501 802 567 q 730 246 802 375 q 552 51 659 118 q 326 -16 446 -14 m 531 722 q 425 695 477 722 q 321 606 373 668 q 229 446 269 545 q 179 215 179 323 q 219 77 179 137 q 341 18 259 18 q 438 42 390 18 q 538 126 486 67 q 648 317 603 201 q 692 533 692 434 q 652 665 692 607 q 531 722 612 722 "},"M":{"x_min":-36.625,"x_max":1032.9375,"ha":931,"o":"m 354 740 l 422 144 l 852 740 l 1032 740 l 1032 720 q 963 712 973 716 q 930 683 945 705 q 897 602 915 662 l 760 132 q 748 68 748 91 q 763 35 748 46 q 829 20 784 20 l 842 20 l 837 0 l 525 0 l 531 20 l 545 20 q 609 31 587 20 q 639 65 626 40 q 676 172 653 89 l 799 602 l 367 0 l 345 0 l 276 602 l 144 144 q 127 65 127 85 q 142 34 127 45 q 213 20 156 23 l 207 0 l -36 0 l -30 20 l -15 20 q 62 47 37 20 q 99 132 80 67 l 259 684 q 225 709 242 703 q 164 720 208 716 l 170 740 l 354 740 "},"œ":{"x_min":29.15625,"x_max":725.015625,"ha":746,"o":"m 671 130 l 685 115 q 569 18 628 50 q 466 -12 509 -12 q 398 11 426 -12 q 360 82 370 35 q 180 -13 280 -13 q 72 32 115 -13 q 29 153 29 79 q 60 285 29 221 q 136 395 92 349 q 231 468 181 442 q 326 494 282 494 q 411 467 376 494 q 455 396 446 440 q 636 494 541 494 q 701 473 678 494 q 725 417 725 451 q 708 357 725 386 q 642 285 685 316 q 539 231 600 254 q 434 204 478 208 q 430 155 430 172 q 456 76 430 105 q 519 46 482 46 q 573 60 548 46 q 671 130 609 78 m 186 10 q 317 132 258 10 q 390 379 390 282 q 368 442 390 418 q 315 465 347 465 q 253 440 284 465 q 169 313 212 406 q 115 94 115 197 q 135 32 115 54 q 186 10 155 10 m 438 230 q 598 308 543 252 q 653 417 653 364 q 641 452 653 438 q 611 465 629 465 q 519 406 563 465 q 438 230 475 348 "},"{":{"x_min":77.3125,"x_max":530.375,"ha":447,"o":"m 244 -222 l 238 -241 q 126 -186 166 -231 q 86 -81 86 -142 q 129 53 86 -25 q 171 164 171 133 q 147 225 171 200 q 77 256 124 250 l 83 278 q 180 315 139 286 q 236 382 220 345 q 251 483 247 408 q 286 616 256 559 q 384 719 316 673 q 530 776 451 765 l 524 757 q 425 713 463 743 q 369 642 387 684 q 353 543 357 614 q 329 429 349 473 q 258 340 310 385 q 125 269 206 295 q 209 206 181 245 q 238 120 238 166 q 195 -7 238 72 q 152 -124 152 -87 q 173 -184 152 -159 q 244 -222 194 -208 "},"௺":{"x_min":122.078125,"x_max":1294.046875,"ha":1306,"o":"m 590 13 q 623 155 623 69 q 603 233 623 202 q 550 264 583 264 q 512 252 529 264 q 491 217 495 241 l 447 0 l 339 0 l 436 488 l 271 488 l 173 0 l 122 0 l 230 542 l 681 542 q 615 677 613 609 q 659 789 615 744 q 781 834 704 834 q 953 756 881 834 q 1025 565 1018 685 q 1113 520 1077 556 q 1161 401 1161 472 q 1150 328 1161 362 q 1125 271 1140 294 l 1294 271 l 1283 217 l 1055 217 l 1055 244 q 1094 310 1082 276 q 1107 402 1107 344 q 1074 484 1107 448 q 1025 515 1053 506 q 971 294 1022 371 q 852 210 917 210 q 775 247 804 210 q 746 347 746 284 q 812 497 746 427 q 936 564 862 551 q 889 718 929 663 q 775 786 842 786 q 697 755 725 786 q 669 677 669 723 q 746 542 669 611 l 732 488 l 545 488 l 508 298 q 603 339 543 339 q 696 290 661 339 q 732 169 732 242 q 657 -13 732 64 l 590 13 m 849 464 q 800 339 800 408 q 814 282 800 299 q 851 265 828 265 q 911 335 885 265 q 937 516 937 404 q 849 464 883 503 "},"¼":{"x_min":88.171875,"x_max":782.671875,"ha":838,"o":"m 725 755 l 215 -29 l 166 -29 l 676 755 l 725 755 m 339 755 l 233 435 q 225 398 225 410 q 230 385 225 388 q 257 379 237 379 q 273 378 263 379 l 267 361 l 88 361 l 95 378 q 143 386 133 379 q 171 440 157 397 l 246 664 q 254 698 254 689 q 249 710 254 706 q 237 714 245 714 q 206 710 229 714 l 200 726 l 339 755 m 782 362 l 694 111 l 751 111 l 737 71 l 684 71 l 650 -29 l 593 -29 l 627 71 l 465 71 l 481 114 l 746 362 l 782 362 m 694 273 l 524 111 l 640 111 l 694 273 "},"#":{"x_min":80.03125,"x_max":598.875,"ha":559,"o":"m 122 -15 l 173 233 l 80 233 l 80 278 l 182 278 l 219 465 l 80 465 l 80 508 l 230 508 l 280 757 l 325 757 l 276 508 l 459 508 l 512 757 l 558 757 l 505 508 l 598 508 l 598 465 l 497 465 l 459 278 l 598 278 l 598 233 l 450 233 l 399 -15 l 355 -15 l 404 233 l 219 233 l 168 -15 l 122 -15 m 227 278 l 413 278 l 452 465 l 266 465 l 227 278 "},"Ê":{"x_min":-25.09375,"x_max":706.703125,"ha":683,"o":"m 362 700 l 277 407 l 346 407 q 454 430 421 407 q 511 514 487 453 l 531 514 l 455 245 l 434 245 q 443 303 443 279 q 434 341 443 326 q 407 362 424 355 q 337 368 391 368 l 267 368 l 196 124 q 185 69 185 88 q 199 44 185 55 q 245 37 208 37 l 311 37 q 481 74 417 37 q 596 205 545 112 l 617 205 l 547 0 l -25 0 l -18 20 q 39 27 24 21 q 71 52 61 37 q 105 147 85 75 l 236 593 q 250 676 250 647 q 236 708 250 696 q 180 720 222 720 l 168 720 l 174 740 l 706 740 l 661 561 l 640 561 q 644 603 644 586 q 630 652 644 632 q 576 690 611 677 q 455 700 550 700 l 362 700 m 573 965 l 614 792 l 602 792 l 510 903 l 336 792 l 321 792 l 491 965 l 573 965 "},"க":{"x_min":81.390625,"x_max":773.171875,"ha":795,"o":"m 427 244 l 217 244 q 159 224 183 244 q 135 176 135 205 q 189 88 135 122 q 311 54 244 54 q 372 76 346 54 q 405 135 398 99 l 427 244 m 476 488 l 325 488 l 287 298 l 438 298 l 476 488 m 524 189 q 446 48 505 96 q 311 0 387 0 q 151 49 221 0 q 81 176 81 99 q 121 263 81 227 q 217 298 162 298 l 236 298 l 284 542 l 759 542 l 746 488 l 584 488 l 546 298 l 623 298 q 729 259 685 298 q 773 162 773 220 q 716 46 773 92 q 583 0 659 0 q 515 13 539 0 l 529 40 q 569 33 541 33 q 638 77 612 33 q 664 176 664 122 q 649 224 664 204 q 610 244 634 244 l 535 244 l 524 189 "},")":{"x_min":-122.078125,"x_max":296.390625,"ha":372,"o":"m 162 765 l 181 776 q 274 558 246 653 q 296 408 296 483 q 215 93 296 231 q -108 -239 114 -77 l -122 -222 q 43 -54 -21 -147 q 173 225 122 61 q 224 523 224 389 q 162 765 224 626 "},"Å":{"x_min":-54.9375,"x_max":677.390625,"ha":683,"o":"m 575 757 l 519 141 q 515 84 515 98 q 523 51 515 63 q 551 27 533 35 q 611 20 569 20 l 605 0 l 314 0 l 320 20 l 332 20 q 390 35 368 20 q 415 69 406 46 q 426 149 421 86 l 435 243 l 223 243 l 147 141 q 115 92 122 107 q 109 63 109 77 q 123 33 109 46 q 170 20 137 21 l 164 0 l -54 0 l -48 20 q 22 47 -8 21 q 114 155 53 72 l 556 757 l 575 757 m 467 575 l 253 283 l 439 283 l 467 575 m 574 939 q 647 909 617 939 q 677 836 677 879 q 647 763 677 794 q 574 733 617 733 q 501 763 531 733 q 471 836 471 794 q 501 909 471 879 q 574 939 530 939 m 574 904 q 526 884 546 904 q 506 836 506 865 q 526 788 506 808 q 574 768 546 768 q 622 788 602 768 q 642 836 642 808 q 622 884 642 865 q 574 904 603 904 "},"ம":{"x_min":122.078125,"x_max":990.203125,"ha":1021,"o":"m 935 230 q 895 398 935 322 q 786 474 855 474 q 733 454 756 474 q 705 406 710 433 l 634 54 l 813 54 q 902 108 868 54 q 935 230 935 162 m 122 0 l 230 542 l 339 542 l 241 54 l 526 54 l 596 406 q 646 504 609 466 q 732 542 683 542 q 917 448 844 542 q 990 230 990 355 q 940 70 990 140 q 813 0 891 0 l 122 0 "},"¸":{"x_min":-20.34375,"x_max":184.484375,"ha":372,"o":"m 141 16 l 117 -25 q 167 -53 149 -31 q 184 -105 184 -74 q 153 -167 184 -141 q 56 -202 112 -202 q -20 -189 26 -202 l -13 -172 q 33 -178 13 -178 q 87 -161 68 -178 q 107 -122 107 -145 q 95 -91 107 -101 q 49 -78 80 -79 l 109 16 l 141 16 "},"a":{"x_min":26.453125,"x_max":524.9375,"ha":559,"o":"m 524 494 l 418 124 l 406 73 q 404 62 404 67 q 410 46 404 53 q 421 42 414 42 q 439 50 427 42 q 496 115 460 66 l 514 103 q 437 16 477 46 q 363 -12 397 -12 q 328 -1 340 -12 q 316 32 316 10 q 328 103 316 59 l 340 144 q 208 13 268 50 q 124 -12 165 -12 q 55 20 84 -12 q 26 110 26 52 q 78 294 26 197 q 210 448 130 390 q 328 494 273 494 q 384 476 362 494 q 418 418 406 459 l 438 480 l 524 494 m 330 465 q 256 432 295 465 q 156 295 200 386 q 113 130 113 204 q 131 71 113 93 q 174 50 150 50 q 303 138 233 50 q 397 377 397 255 q 379 444 397 423 q 330 465 361 465 "},"=":{"x_min":109.1875,"x_max":698.5625,"ha":755,"o":"m 109 482 l 698 482 l 698 437 l 109 437 l 109 482 m 109 303 l 698 303 l 698 259 l 109 259 l 109 303 "},"௧":{"x_min":321.390625,"x_max":1013.171875,"ha":1104,"o":"m 667 244 l 457 244 q 399 224 423 244 q 375 176 375 205 q 429 88 375 122 q 551 54 484 54 q 612 76 586 54 q 645 135 638 99 l 667 244 m 716 488 l 565 488 l 527 298 l 678 298 l 716 488 m 764 189 q 686 48 745 96 q 551 0 627 0 q 391 49 461 0 q 321 176 321 99 q 361 263 321 227 q 457 298 402 298 l 476 298 l 524 542 l 999 542 l 986 488 l 824 488 l 786 298 l 863 298 q 969 259 925 298 q 1013 162 1013 220 q 956 46 1013 92 q 823 0 899 0 q 755 13 779 0 l 769 40 q 809 33 781 33 q 878 77 852 33 q 904 176 904 122 q 889 224 904 204 q 850 244 874 244 l 775 244 l 764 189 "},"˚":{"x_min":208.21875,"x_max":414.390625,"ha":372,"o":"m 311 775 q 384 745 354 775 q 414 672 414 715 q 384 599 414 630 q 311 569 354 569 q 238 599 268 569 q 208 672 208 630 q 238 745 208 715 q 311 775 267 775 m 311 740 q 263 720 283 740 q 243 672 243 701 q 263 624 243 644 q 311 604 283 604 q 359 624 339 604 q 379 672 379 644 q 359 720 379 701 q 311 740 340 740 "},"ú":{"x_min":32.5625,"x_max":526.296875,"ha":559,"o":"m 526 480 l 431 155 q 410 63 410 82 q 413 49 410 54 q 423 44 417 44 q 443 53 432 44 q 499 120 455 61 l 516 107 q 427 7 473 40 q 370 -12 398 -12 q 336 -1 348 -12 q 324 29 324 10 q 331 79 324 48 q 381 255 340 119 q 226 44 288 102 q 110 -12 164 -12 q 67 4 85 -12 q 50 48 50 21 q 73 174 50 89 l 122 343 q 139 418 139 403 q 134 429 139 424 q 124 434 130 434 q 101 425 113 434 q 49 365 90 417 l 32 377 q 119 470 73 440 q 183 494 154 494 q 217 481 204 494 q 229 448 229 468 q 208 343 229 418 l 156 166 q 135 75 135 94 q 142 58 135 65 q 160 52 149 52 q 207 70 178 52 q 284 150 236 88 q 364 266 333 212 q 431 439 396 320 l 443 480 l 526 480 m 496 765 l 336 577 l 317 577 l 373 765 l 496 765 "},"ன":{"x_min":118.015625,"x_max":1279.125,"ha":1200,"o":"m 416 162 q 399 210 416 190 q 355 230 382 230 q 309 213 324 230 q 294 162 294 196 q 320 67 294 113 q 392 99 368 75 q 416 162 416 123 m 778 183 q 760 279 778 226 q 716 367 742 333 q 661 281 679 328 q 642 176 642 233 q 661 110 642 139 q 710 81 680 81 q 760 111 741 81 q 778 183 778 141 m 1279 542 l 1265 488 l 1163 488 l 1066 0 l 957 0 l 1055 488 l 946 488 q 790 427 866 488 q 863 311 838 373 q 887 183 887 250 q 846 52 887 105 q 737 0 805 0 q 630 51 672 0 q 588 176 588 102 q 612 303 588 244 q 685 409 636 361 q 510 474 617 474 q 261 401 349 474 q 172 217 172 327 q 198 124 172 165 q 267 67 223 82 q 240 162 240 113 q 281 270 240 229 q 389 311 323 311 q 475 276 440 311 q 511 189 511 240 q 456 55 511 110 q 321 0 400 0 q 177 64 236 0 q 118 217 118 128 q 230 448 118 354 q 510 542 342 542 q 746 469 637 542 q 937 542 834 542 l 1279 542 "},"¯":{"x_min":107.84375,"x_max":685.6875,"ha":559,"o":"m 685 798 l 107 798 l 107 844 l 685 844 l 685 798 "},"Z":{"x_min":-2.03125,"x_max":682.96875,"ha":622,"o":"m 169 740 l 682 740 l 682 720 l 132 35 l 219 35 q 414 49 357 35 q 509 96 472 63 q 573 192 547 130 l 594 192 l 530 0 l -2 0 l -2 15 l 547 700 l 394 700 q 252 691 293 700 q 182 654 211 682 q 132 571 153 627 l 113 571 l 169 740 "},"u":{"x_min":32.5625,"x_max":526.296875,"ha":559,"o":"m 526 480 l 431 155 q 410 63 410 82 q 413 49 410 54 q 423 44 417 44 q 443 53 432 44 q 499 120 455 61 l 516 107 q 427 7 473 40 q 370 -12 398 -12 q 336 -1 348 -12 q 324 29 324 10 q 331 79 324 48 q 381 255 340 119 q 226 44 288 102 q 110 -12 164 -12 q 67 4 85 -12 q 50 48 50 21 q 73 174 50 89 l 122 343 q 139 418 139 403 q 134 429 139 424 q 124 434 130 434 q 101 425 113 434 q 49 365 90 417 l 32 377 q 119 470 73 440 q 183 494 154 494 q 217 481 204 494 q 229 448 229 468 q 208 343 229 418 l 156 166 q 135 75 135 94 q 142 58 135 65 q 160 52 149 52 q 207 70 178 52 q 284 150 236 88 q 364 266 333 212 q 431 439 396 320 l 443 480 l 526 480 "},"k":{"x_min":10.859375,"x_max":545.296875,"ha":496,"o":"m 320 776 l 164 239 l 227 292 q 359 420 328 379 q 369 440 369 434 q 366 450 369 446 q 353 457 362 455 q 320 460 343 460 l 301 460 l 306 480 l 545 480 l 539 460 q 469 447 499 457 q 411 415 439 436 q 339 359 356 375 l 292 318 q 321 208 303 278 q 361 69 351 90 q 382 47 371 47 q 404 56 392 47 q 465 122 432 77 l 484 109 q 393 10 424 34 q 335 -12 361 -12 q 299 4 311 -12 q 227 259 278 37 l 152 193 l 96 0 l 10 0 l 191 623 l 207 676 q 210 699 210 689 q 200 721 210 712 q 170 730 189 730 q 130 725 158 730 l 130 744 l 320 776 "},"Ù":{"x_min":118.6875,"x_max":910.171875,"ha":808,"o":"m 146 740 l 459 740 l 453 720 q 384 711 404 718 q 349 682 364 703 q 319 608 335 662 l 243 345 q 219 254 223 276 q 212 189 212 219 q 262 77 212 123 q 393 31 311 31 q 490 52 447 31 q 563 110 533 73 q 618 210 593 147 q 662 337 643 273 l 728 563 q 752 673 752 648 q 736 704 752 691 q 668 720 719 717 l 674 740 l 910 740 l 904 720 q 844 712 862 720 q 812 683 826 704 q 781 604 798 663 l 701 329 q 628 132 662 196 q 528 25 594 68 q 366 -16 463 -16 q 187 46 255 -16 q 118 190 118 109 q 124 259 118 222 q 146 342 129 283 l 219 594 q 234 674 234 648 q 219 705 234 694 q 141 720 203 716 l 146 740 m 604 983 l 663 795 l 646 795 l 483 983 l 604 983 "},"ய":{"x_min":140.390625,"x_max":969.859375,"ha":983,"o":"m 969 542 l 861 0 l 345 0 l 359 67 q 310 6 339 27 q 246 -13 282 -13 q 169 31 199 -13 q 140 134 140 77 q 145 189 140 165 l 215 542 l 324 542 l 253 189 q 251 153 251 178 q 264 99 251 117 q 305 81 278 81 q 349 99 328 81 q 374 142 369 118 l 454 542 l 562 542 l 465 54 l 763 54 l 861 542 l 969 542 "},"¢":{"x_min":62.390625,"x_max":506.625,"ha":559,"o":"m 463 120 q 362 24 416 54 q 236 -12 308 -6 l 177 -205 l 145 -205 l 203 -12 q 100 36 137 -6 q 62 145 62 79 q 148 370 62 267 q 354 494 235 473 l 419 711 l 449 711 l 386 494 q 478 470 450 494 q 506 405 506 445 q 489 352 506 373 q 450 332 472 332 q 421 342 432 332 q 411 368 411 352 q 415 389 411 380 q 435 414 419 398 q 450 441 450 430 q 445 453 450 447 q 425 465 438 461 q 379 469 413 469 l 250 37 l 273 35 q 449 134 364 35 l 463 120 m 221 44 l 345 463 q 265 413 297 441 q 183 295 212 362 q 155 158 155 227 q 173 83 155 113 q 221 44 187 62 "},"௭":{"x_min":321.484375,"x_max":1108.21875,"ha":1104,"o":"m 497 67 q 583 99 547 67 q 619 176 619 130 q 604 232 619 208 q 565 257 590 257 q 507 229 530 257 q 484 162 484 201 q 497 67 484 104 m 807 0 l 904 488 l 660 488 q 460 418 545 488 q 375 244 375 349 q 392 150 375 191 q 443 81 409 109 q 430 176 430 104 q 476 300 430 248 q 592 352 522 352 q 685 308 648 352 q 721 203 721 263 q 669 60 721 120 q 538 0 616 0 q 383 72 445 0 q 321 244 321 145 q 422 457 321 372 q 660 542 523 542 l 1108 542 l 1094 488 l 1013 488 l 915 0 l 807 0 "},"é":{"x_min":35.265625,"x_max":480.859375,"ha":496,"o":"m 132 205 q 129 160 129 178 q 163 77 129 111 q 247 43 198 43 q 323 59 286 43 q 430 130 359 75 l 442 115 q 195 -12 312 -12 q 75 37 115 -12 q 35 147 35 87 q 85 314 35 229 q 211 446 135 399 q 367 494 286 494 q 453 470 425 494 q 480 415 480 446 q 444 328 480 369 q 305 240 397 274 q 132 205 244 218 m 137 232 q 268 264 217 242 q 369 336 335 294 q 402 415 402 377 q 388 452 402 438 q 347 466 373 466 q 229 407 291 466 q 137 232 166 348 m 466 765 l 306 577 l 287 577 l 343 765 l 466 765 "},"B":{"x_min":-25.765625,"x_max":659.90625,"ha":683,"o":"m 165 720 l 172 740 l 437 740 q 556 719 503 740 q 634 661 608 698 q 659 583 659 624 q 613 467 659 519 q 463 391 567 415 q 562 324 530 366 q 594 233 594 283 q 565 128 594 178 q 492 50 537 78 q 385 9 448 22 q 245 0 340 0 l -25 0 l -18 20 q 39 28 23 21 q 70 52 61 37 q 105 147 83 73 l 238 596 q 255 676 255 653 q 240 707 255 695 q 183 719 225 719 q 165 720 173 719 m 276 413 q 327 411 311 411 q 496 461 440 411 q 552 584 552 510 q 518 672 552 640 q 410 704 484 704 q 359 697 390 704 l 276 413 m 168 48 q 261 40 227 40 q 411 91 345 40 q 477 231 477 143 q 436 336 477 298 q 305 373 396 373 q 263 371 288 373 l 168 48 "},"…":{"x_min":145.140625,"x_max":844.390625,"ha":994,"o":"m 205 105 q 248 88 231 105 q 266 45 266 70 q 248 2 266 20 q 205 -15 231 -15 q 162 2 180 -15 q 145 45 145 20 q 162 88 145 71 q 205 105 180 105 m 494 105 q 537 88 520 105 q 555 45 555 70 q 537 2 555 20 q 494 -15 519 -15 q 451 2 469 -15 q 434 45 434 20 q 451 88 434 71 q 494 105 469 105 m 783 105 q 826 88 809 105 q 844 45 844 70 q 826 2 844 20 q 783 -15 808 -15 q 740 2 758 -15 q 722 45 722 20 q 740 88 722 71 q 783 105 758 105 "},"ே":{"x_min":150.5625,"x_max":910.171875,"ha":886,"o":"m 687 824 q 598 841 643 841 q 319 726 434 841 q 204 447 204 611 q 305 170 204 286 q 557 54 406 54 q 618 67 591 54 q 572 145 588 101 q 557 244 557 189 q 605 377 557 321 q 727 434 654 434 q 833 396 791 434 q 876 298 876 358 q 778 85 876 170 q 543 0 680 0 q 262 133 375 0 q 150 447 150 266 q 280 765 150 634 q 598 895 411 895 q 816 831 723 895 q 910 664 910 767 q 867 558 910 602 q 760 515 824 515 q 654 557 697 515 q 611 661 611 599 q 630 750 611 709 q 687 824 649 790 m 733 800 q 682 744 699 778 q 666 664 666 710 q 687 606 666 630 q 740 583 708 583 q 794 611 773 583 q 815 678 815 638 q 794 746 815 716 q 733 800 774 777 m 672 100 q 740 170 712 125 q 767 257 767 215 q 746 324 767 295 q 693 352 725 352 q 634 319 657 352 q 611 244 611 286 q 627 172 611 208 q 672 100 642 136 "},"H":{"x_min":-29.15625,"x_max":906.78125,"ha":808,"o":"m 276 410 l 617 410 l 671 592 q 687 676 687 646 q 680 700 687 690 q 659 715 673 710 q 603 720 644 720 l 609 740 l 906 740 l 900 720 q 844 712 862 720 q 805 682 817 701 q 768 592 787 657 l 638 145 q 621 65 621 90 q 636 34 621 45 q 705 20 651 23 l 699 0 l 411 0 l 418 20 q 475 27 461 21 q 507 52 497 37 q 541 145 521 73 l 609 372 l 265 372 l 198 145 q 182 65 182 90 q 196 34 182 45 q 265 20 210 23 l 261 0 l -29 0 l -22 20 q 35 27 21 21 q 67 52 56 37 q 102 145 81 75 l 233 592 q 248 676 248 647 q 242 700 248 690 q 220 715 235 710 q 164 720 206 720 l 170 740 l 463 740 l 457 720 q 402 712 420 720 q 365 683 377 701 q 328 592 348 659 l 276 410 "},"î":{"x_min":48.15625,"x_max":383.34375,"ha":311,"o":"m 257 494 l 149 111 q 138 65 138 72 q 143 50 138 56 q 155 45 148 45 q 174 54 164 45 q 238 124 206 78 l 257 111 q 169 15 219 54 q 99 -12 132 -12 q 62 0 76 -12 q 48 33 48 13 q 61 101 48 54 l 132 345 q 149 421 149 405 q 141 440 149 432 q 118 448 132 448 q 68 442 106 448 l 68 463 l 257 494 m 342 757 l 383 584 l 371 584 l 279 695 l 105 584 l 90 584 l 260 757 l 342 757 "},"−":{"x_min":103.765625,"x_max":692.46875,"ha":755,"o":"m 103 349 l 103 394 l 692 394 l 692 349 l 103 349 "},"¥":{"x_min":-7.453125,"x_max":695.859375,"ha":559,"o":"m 331 242 l 577 242 l 567 205 l 320 205 l 303 151 q 286 63 286 92 q 299 35 286 44 q 370 20 316 22 l 362 0 l 81 0 l 86 20 q 145 29 132 23 q 179 59 166 39 q 208 141 188 73 l 227 205 l -7 205 l 3 242 l 239 242 l 274 356 l 26 356 l 37 392 l 264 392 l 197 612 q 161 695 177 676 q 114 719 144 714 l 119 740 l 362 740 l 356 719 q 292 706 309 719 q 276 673 276 693 q 289 603 276 650 l 352 392 l 502 599 q 551 691 551 668 q 540 708 551 700 q 480 719 524 718 l 485 740 l 695 740 l 690 719 q 631 697 658 716 q 560 616 604 678 l 396 392 l 611 392 l 600 356 l 369 356 l 362 345 l 331 242 "},"ஃ":{"x_min":100.375,"x_max":1049.890625,"ha":1070,"o":"m 629 474 q 532 523 571 474 q 493 637 493 573 q 552 799 493 730 q 697 868 610 868 q 794 818 755 868 q 832 705 832 769 q 774 543 832 612 q 629 474 716 474 m 642 773 q 574 731 600 773 q 548 637 548 690 q 570 562 548 595 q 629 529 593 529 q 697 570 671 529 q 724 664 724 611 q 701 739 724 706 q 642 773 678 773 m 236 0 q 139 49 177 0 q 100 162 100 98 q 158 324 100 255 q 303 393 217 393 q 400 344 362 393 q 439 230 439 295 q 381 68 439 137 q 236 0 322 0 m 249 298 q 181 257 207 298 q 154 162 154 215 q 177 87 154 120 q 236 54 200 54 q 304 95 278 54 q 330 189 330 137 q 308 265 330 231 q 249 298 285 298 m 846 0 q 749 49 788 0 q 710 162 710 98 q 769 324 710 255 q 914 393 827 393 q 1011 344 972 393 q 1049 230 1049 295 q 991 68 1049 137 q 846 0 933 0 m 859 298 q 791 257 817 298 q 765 162 765 215 q 787 87 765 120 q 846 54 810 54 q 914 95 888 54 q 941 189 941 137 q 918 265 941 231 q 859 298 895 298 "},"U":{"x_min":118.6875,"x_max":910.171875,"ha":808,"o":"m 146 740 l 459 740 l 453 720 q 384 711 404 718 q 349 682 364 703 q 319 608 335 662 l 243 345 q 219 254 223 276 q 212 189 212 219 q 262 77 212 123 q 393 31 311 31 q 490 52 447 31 q 563 110 533 73 q 618 210 593 147 q 662 337 643 273 l 728 563 q 752 673 752 648 q 736 704 752 691 q 668 720 719 717 l 674 740 l 910 740 l 904 720 q 844 712 862 720 q 812 683 826 704 q 781 604 798 663 l 701 329 q 628 132 662 196 q 528 25 594 68 q 366 -16 463 -16 q 187 46 255 -16 q 118 190 118 109 q 124 259 118 222 q 146 342 129 283 l 219 594 q 234 674 234 648 q 219 705 234 694 q 141 720 203 716 l 146 740 "},"Ñ":{"x_min":-31.203125,"x_max":851.84375,"ha":746,"o":"m 320 740 l 549 160 l 673 593 q 688 676 688 647 q 674 708 688 696 q 621 719 659 719 q 607 720 614 719 l 613 740 l 851 740 l 845 720 q 790 712 807 720 q 751 682 764 701 q 716 593 734 657 l 541 -16 l 522 -16 l 276 607 l 144 146 q 130 65 130 93 q 143 34 130 45 q 206 20 156 23 l 201 0 l -31 0 l -23 20 q 35 27 20 21 q 68 53 57 37 q 103 146 84 77 l 250 661 q 204 706 229 693 q 129 720 180 718 l 135 740 l 320 740 m 685 945 l 701 945 q 671 839 701 875 q 601 802 642 802 q 509 835 561 802 q 445 874 457 869 q 423 879 435 879 q 391 864 404 879 q 371 804 378 850 l 353 804 q 386 914 357 881 q 456 947 415 947 q 553 908 496 947 q 633 870 611 870 q 664 884 652 870 q 685 945 680 902 "},"F":{"x_min":-27.125,"x_max":747.40625,"ha":683,"o":"m 363 701 l 276 407 l 373 407 q 471 427 438 407 q 538 514 503 448 l 558 514 l 482 244 l 460 244 q 468 298 468 277 q 446 349 468 331 q 363 368 423 368 l 265 368 l 200 145 q 183 65 183 85 q 198 34 183 46 q 271 20 213 23 l 265 0 l -27 0 l -20 20 q 36 27 22 21 q 68 52 58 37 q 103 145 83 75 l 233 591 q 250 676 250 645 q 243 700 250 690 q 222 715 236 710 q 166 720 208 720 l 172 740 l 747 740 l 693 552 l 672 552 q 678 609 678 586 q 658 666 678 644 q 607 695 638 687 q 509 701 585 701 l 363 701 "},"॑":{"x_min":-202.109375,"x_max":-40.6875,"ha":0,"o":"m -137 1003 l -202 1003 l -105 1470 l -40 1470 l -137 1003 "},"*":{"x_min":158.03125,"x_max":559.53125,"ha":559,"o":"m 348 569 q 333 644 346 607 q 314 718 314 698 q 328 761 314 746 q 361 776 341 776 q 391 761 378 776 q 403 719 403 746 q 388 651 403 695 q 370 569 374 607 q 425 616 401 589 q 480 669 462 659 q 516 680 498 680 q 547 668 535 680 q 559 638 559 655 q 541 602 559 618 q 451 571 523 586 q 381 550 409 561 q 451 527 410 535 q 537 497 516 515 q 558 457 558 479 q 545 429 558 441 q 516 417 533 417 q 480 429 500 417 q 427 480 460 440 q 370 530 404 507 q 383 463 372 499 q 403 375 403 398 q 390 338 403 353 q 362 323 377 323 q 326 339 342 323 q 314 375 314 350 q 327 438 314 401 q 342 489 339 475 q 348 530 345 503 q 292 482 316 509 q 232 426 252 438 q 202 417 218 417 q 171 430 184 417 q 158 457 158 442 q 169 486 158 472 q 202 511 180 501 q 269 529 217 518 q 336 550 303 536 q 265 572 306 564 q 183 598 198 586 q 158 642 158 616 q 170 669 158 656 q 199 681 183 681 q 237 670 217 681 q 287 623 257 658 q 348 569 318 589 "},"†":{"x_min":120.71875,"x_max":583.265625,"ha":559,"o":"m 374 366 q 285 177 326 280 q 149 -226 244 74 l 128 -226 q 256 348 256 174 l 256 366 q 306 424 286 394 q 339 494 325 453 q 247 467 298 489 q 177 446 197 446 q 134 462 152 446 q 120 493 120 474 q 136 527 120 513 q 179 541 152 541 q 250 524 205 541 q 295 511 281 514 q 344 507 309 508 q 354 596 354 543 l 352 670 q 376 737 352 708 q 419 757 393 757 q 454 742 440 757 q 467 704 467 728 q 460 666 467 684 q 420 601 451 642 q 381 545 389 560 q 365 507 372 530 q 410 511 398 509 q 448 522 421 514 q 527 540 501 540 q 568 526 552 540 q 583 493 583 512 q 567 460 583 474 q 527 445 552 445 q 499 449 512 445 q 445 470 485 453 q 359 494 404 488 q 354 438 354 459 q 374 366 354 403 "},"ொ":{"x_min":153.28125,"x_max":1665.921875,"ha":1575,"o":"m 870 0 l 819 0 l 900 406 q 912 522 912 463 q 837 731 912 635 q 641 827 762 827 q 333 696 459 827 q 207 379 207 564 q 277 179 207 264 q 451 94 346 94 q 400 172 417 129 q 383 265 383 215 q 430 386 383 339 q 546 434 476 434 q 659 367 615 434 q 702 217 702 301 q 632 53 702 120 q 465 -13 562 -13 q 241 104 330 -13 q 153 379 153 222 q 288 771 153 606 q 628 935 424 935 q 876 822 777 935 q 975 563 975 709 q 965 474 975 521 l 870 0 m 621 257 q 596 333 621 301 q 533 366 571 366 q 464 337 490 366 q 438 263 438 308 q 456 172 438 214 q 512 97 475 131 q 594 163 567 123 q 621 257 621 203 m 1665 542 l 1652 488 l 1539 488 l 1442 0 l 1333 0 l 1431 488 l 1218 488 l 1120 0 l 1069 0 l 1177 542 l 1665 542 "},"°":{"x_min":115.96875,"x_max":451.703125,"ha":447,"o":"m 283 756 q 402 707 354 756 q 451 588 451 658 q 402 470 451 519 q 283 421 353 421 q 165 470 214 421 q 115 588 115 519 q 164 707 115 658 q 283 756 213 756 m 283 710 q 197 675 232 710 q 161 589 161 639 q 197 503 161 539 q 283 467 232 467 q 369 503 333 467 q 404 589 404 539 q 369 675 404 639 q 283 710 334 710 "},"å":{"x_min":26.453125,"x_max":524.9375,"ha":559,"o":"m 524 494 l 418 124 l 406 73 q 404 62 404 67 q 410 46 404 53 q 421 42 414 42 q 439 50 427 42 q 496 115 460 66 l 514 103 q 437 16 477 46 q 363 -12 397 -12 q 328 -1 340 -12 q 316 32 316 10 q 328 103 316 59 l 340 144 q 208 13 268 50 q 124 -12 165 -12 q 55 20 84 -12 q 26 110 26 52 q 78 294 26 197 q 210 448 130 390 q 328 494 273 494 q 384 476 362 494 q 418 418 406 459 l 438 480 l 524 494 m 330 465 q 256 432 295 465 q 156 295 200 386 q 113 130 113 204 q 131 71 113 93 q 174 50 150 50 q 303 138 233 50 q 397 377 397 255 q 379 444 397 423 q 330 465 361 465 m 404 775 q 477 745 447 775 q 507 672 507 715 q 477 599 507 630 q 404 569 447 569 q 331 599 361 569 q 301 672 301 630 q 331 745 301 715 q 404 775 360 775 m 404 740 q 356 720 376 740 q 336 672 336 701 q 356 624 336 644 q 404 604 376 604 q 452 624 432 604 q 472 672 472 644 q 452 720 472 701 q 404 740 433 740 "},"0":{"x_min":66.46875,"x_max":552.078125,"ha":559,"o":"m 386 755 q 504 697 456 755 q 552 512 552 638 q 516 292 552 404 q 416 96 480 179 q 309 3 365 31 q 233 -12 276 -12 q 114 45 162 -12 q 66 230 66 103 q 114 481 66 355 q 258 705 170 628 q 386 755 315 755 m 387 727 q 322 702 355 727 q 255 598 290 677 q 189 396 221 520 q 148 120 148 233 q 172 34 148 63 q 232 6 197 6 q 289 29 265 6 q 396 230 352 88 q 469 609 469 463 q 444 698 469 670 q 387 727 420 727 "},"”":{"x_min":203.46875,"x_max":613.796875,"ha":622,"o":"m 454 536 q 524 586 495 552 q 539 626 539 603 q 536 643 539 636 q 522 661 535 647 q 507 682 510 676 q 502 701 502 691 q 519 740 502 723 q 558 757 536 757 q 597 739 581 757 q 613 693 613 722 q 596 626 613 660 q 546 565 579 592 q 465 516 523 546 l 454 536 m 203 536 q 274 585 259 566 q 289 623 289 605 q 285 642 289 634 q 271 661 284 647 q 256 681 259 676 q 252 699 252 690 q 269 740 252 723 q 307 757 285 757 q 347 740 331 757 q 363 693 363 722 q 214 516 363 585 l 203 536 "},"ö":{"x_min":32.5625,"x_max":552.796875,"ha":559,"o":"m 516 323 q 473 161 516 241 q 352 33 430 80 q 202 -12 275 -12 q 80 34 127 -12 q 32 158 32 82 q 78 319 32 238 q 202 447 124 400 q 351 494 279 494 q 470 446 423 494 q 516 323 516 398 m 426 360 q 401 438 426 411 q 337 465 376 465 q 189 350 257 465 q 122 122 122 236 q 148 42 122 70 q 214 14 174 14 q 359 128 291 14 q 426 360 426 242 m 493 731 q 535 714 518 731 q 552 672 552 697 q 535 631 552 648 q 493 614 518 614 q 452 631 470 614 q 435 672 435 648 q 452 714 435 697 q 493 731 469 731 m 299 731 q 341 714 324 731 q 358 672 358 697 q 341 631 358 648 q 299 614 324 614 q 258 631 275 614 q 241 672 241 648 q 258 714 241 697 q 299 731 275 731 "},"Õ":{"x_min":66.46875,"x_max":802.34375,"ha":808,"o":"m 550 757 q 681 725 624 757 q 770 630 737 693 q 802 501 802 568 q 733 251 802 382 q 553 51 664 120 q 322 -16 441 -16 q 179 21 236 -16 q 94 121 122 59 q 66 242 66 183 q 116 446 66 345 q 236 616 166 548 q 383 720 305 684 q 550 757 462 757 m 532 722 q 425 695 477 722 q 322 606 373 668 q 229 446 270 545 q 179 215 179 323 q 219 77 179 137 q 341 18 259 18 q 439 42 391 18 q 539 126 486 67 q 648 317 603 201 q 692 533 692 433 q 652 665 692 608 q 532 722 612 722 m 731 945 l 747 945 q 717 839 747 875 q 647 802 688 802 q 555 835 607 802 q 491 874 503 869 q 469 879 481 879 q 437 864 450 879 q 417 804 424 850 l 399 804 q 432 914 403 881 q 502 947 461 947 q 599 908 542 947 q 679 870 657 870 q 710 884 698 870 q 731 945 726 902 "},"þ":{"x_min":-123.4375,"x_max":528.328125,"ha":559,"o":"m 328 776 l 209 368 q 316 466 269 438 q 411 494 362 494 q 494 455 459 494 q 528 355 528 417 q 430 111 528 235 q 202 -12 333 -12 q 107 14 154 -12 l 67 -126 q 55 -181 55 -168 q 62 -202 55 -193 q 82 -215 68 -210 q 138 -219 96 -219 l 133 -241 l -123 -241 l -118 -219 q -49 -202 -67 -217 q -12 -116 -31 -186 l 207 644 q 220 700 220 689 q 211 723 220 715 q 186 731 202 731 q 141 727 170 731 l 141 748 l 328 776 m 120 57 q 211 16 153 16 q 301 55 252 16 q 393 182 350 93 q 435 356 435 270 q 415 423 435 400 q 368 446 395 446 q 270 398 320 446 q 167 220 200 331 l 120 57 "},"]":{"x_min":-111.90625,"x_max":407.609375,"ha":435,"o":"m 407 757 l 120 -222 l -111 -222 l -100 -185 l 52 -185 l 316 718 l 164 718 l 175 757 l 407 757 "},"8":{"x_min":42.734375,"x_max":546.640625,"ha":559,"o":"m 377 414 q 454 307 430 357 q 478 208 478 258 q 410 53 478 119 q 243 -12 343 -12 q 98 41 154 -12 q 42 166 42 94 q 88 288 42 228 q 260 402 133 347 q 194 501 211 462 q 177 577 177 539 q 231 703 177 651 q 368 755 286 755 q 496 710 446 755 q 546 604 546 664 q 506 495 546 544 q 377 414 465 446 m 356 437 q 447 503 415 457 q 480 609 480 549 q 448 696 480 664 q 366 728 417 728 q 287 697 318 728 q 257 618 257 667 q 273 550 257 581 q 356 437 296 505 m 280 380 q 157 282 199 346 q 115 144 115 218 q 152 49 115 85 q 249 12 189 12 q 354 56 311 12 q 396 160 396 99 q 372 256 396 206 q 280 380 347 307 "},"R":{"x_min":-25.765625,"x_max":647.703125,"ha":683,"o":"m 464 0 l 345 359 q 261 368 304 359 l 197 144 q 184 70 184 100 q 200 34 184 47 q 265 20 212 24 l 261 0 l -25 0 l -19 20 q 35 28 21 21 q 67 53 57 37 q 104 144 85 79 l 233 591 q 246 660 246 636 q 226 703 246 685 q 167 720 205 720 l 174 740 l 415 740 q 590 694 536 740 q 643 573 643 648 q 588 443 643 502 q 438 368 533 383 l 510 151 q 562 47 536 71 q 647 20 589 23 l 641 0 l 464 0 m 269 398 q 332 394 305 394 q 481 446 426 394 q 535 575 535 498 q 501 669 535 636 q 398 701 467 701 q 357 696 381 701 l 269 398 "},"o":{"x_min":32.5625,"x_max":516.8125,"ha":559,"o":"m 516 323 q 473 161 516 241 q 352 33 430 80 q 202 -12 275 -12 q 80 34 127 -12 q 32 158 32 82 q 78 319 32 238 q 202 447 124 400 q 351 494 279 494 q 470 446 423 494 q 516 323 516 398 m 426 360 q 401 438 426 411 q 337 465 376 465 q 189 350 257 465 q 122 122 122 236 q 148 42 122 70 q 214 14 174 14 q 359 128 291 14 q 426 360 426 242 "},"5":{"x_min":40.015625,"x_max":535.796875,"ha":559,"o":"m 288 740 l 535 740 l 510 650 l 288 650 l 247 558 q 385 503 335 544 q 460 325 460 440 q 432 188 460 249 q 364 85 404 126 q 276 19 323 43 q 149 -12 213 -12 q 61 10 93 -12 q 40 52 40 27 q 54 85 40 71 q 88 99 68 99 q 153 71 118 99 q 189 46 174 52 q 217 42 200 42 q 330 103 278 42 q 382 263 382 164 q 354 379 382 331 q 284 446 326 427 q 170 474 242 466 l 288 740 "},"õ":{"x_min":32.5625,"x_max":549.765625,"ha":559,"o":"m 516 323 q 473 161 516 241 q 352 33 430 80 q 202 -12 275 -12 q 80 34 127 -12 q 32 158 32 82 q 78 319 32 238 q 202 447 124 400 q 351 494 279 494 q 470 446 423 494 q 516 323 516 398 m 426 360 q 401 438 426 411 q 337 465 376 465 q 189 350 257 465 q 122 122 122 236 q 148 42 122 70 q 214 14 174 14 q 359 128 291 14 q 426 360 426 242 m 533 744 l 549 744 q 519 638 549 674 q 449 601 490 601 q 357 634 409 601 q 293 673 305 668 q 271 678 283 678 q 239 663 252 678 q 219 603 226 649 l 201 603 q 234 713 205 680 q 304 746 263 746 q 401 707 344 746 q 481 669 459 669 q 512 683 500 669 q 533 744 528 701 "},"ஊ":{"x_min":77.3125,"x_max":1539.5625,"ha":1470,"o":"m 1394 54 l 1380 0 l 199 0 q 77 81 77 0 q 111 141 77 120 q 199 162 146 162 l 348 162 q 464 210 417 162 q 511 325 511 257 q 477 436 511 391 q 389 481 444 481 q 317 465 347 481 q 375 351 375 425 q 344 270 375 303 q 267 237 314 237 q 194 270 223 237 q 165 352 165 303 q 243 490 165 438 q 430 542 320 542 q 564 487 509 542 q 619 352 619 432 q 539 178 619 248 q 348 108 459 108 l 211 108 q 172 81 172 108 q 210 54 172 54 l 1394 54 m 265 436 q 226 355 226 406 q 259 298 226 298 q 294 358 294 298 q 265 436 294 402 m 1539 542 l 1526 488 l 1437 488 l 1363 122 l 1270 122 l 1342 488 l 1226 488 l 1148 122 l 1053 122 l 1083 274 q 1089 328 1089 299 q 1053 442 1088 396 q 959 488 1018 488 q 797 430 866 488 q 728 284 728 371 q 745 207 728 239 q 796 155 762 174 q 769 252 769 196 q 804 342 769 305 q 892 379 839 379 q 969 345 939 379 q 999 264 999 311 q 952 149 999 196 q 836 101 905 101 q 720 155 767 101 q 674 284 674 210 q 758 468 674 395 q 959 542 842 542 q 1080 498 1028 542 q 1140 386 1131 455 l 1173 542 l 1539 542 m 839 154 q 891 186 872 160 q 911 244 911 211 q 877 311 911 311 q 838 287 854 311 q 823 230 823 262 q 839 154 823 189 "},"ல":{"x_min":123.4375,"x_max":1045.8125,"ha":1070,"o":"m 435 189 q 420 237 435 217 q 381 257 404 257 q 332 233 352 257 q 313 176 313 209 q 354 67 313 113 q 413 110 391 75 q 435 189 435 145 m 1045 352 q 962 103 1045 206 q 774 0 878 0 q 656 38 704 0 q 608 127 608 76 q 611 162 608 144 l 640 298 q 644 340 644 320 q 592 444 644 400 q 462 488 539 488 q 263 420 349 488 q 177 250 177 353 q 210 130 177 183 q 299 67 244 78 q 259 176 259 113 q 302 282 259 239 q 408 325 345 325 q 504 285 464 325 q 543 189 543 246 q 479 54 543 108 q 326 0 414 0 q 180 75 238 0 q 123 250 123 151 q 233 460 123 378 q 489 542 344 542 q 672 482 592 542 q 752 343 752 423 q 747 298 752 323 l 720 162 q 717 131 717 147 q 738 86 717 105 q 788 67 760 67 q 934 150 878 67 q 991 339 991 232 q 937 434 991 374 q 883 529 883 494 q 897 557 883 545 q 930 569 911 569 q 988 546 964 569 q 1029 471 1013 522 q 1045 352 1045 419 "},",":{"x_min":-11.53125,"x_max":148.53125,"ha":279,"o":"m -11 -122 q 54 -75 29 -104 q 74 -33 74 -54 q 71 -15 74 -23 q 56 1 69 -11 q 41 19 43 14 q 37 40 37 29 q 53 81 37 64 q 91 98 69 98 q 131 80 113 98 q 148 35 148 62 q 110 -63 148 -13 q 0 -140 71 -113 l -11 -122 "},"d":{"x_min":21.03125,"x_max":604.96875,"ha":559,"o":"m 604 776 l 417 132 q 401 63 401 80 q 406 52 401 57 q 415 48 411 48 q 432 54 423 48 q 495 120 451 68 l 514 109 q 434 21 474 54 q 359 -12 394 -12 q 328 0 340 -12 q 316 37 316 12 q 333 120 316 68 l 354 188 q 210 18 275 65 q 124 -12 165 -12 q 51 23 82 -12 q 21 124 21 60 q 72 297 21 205 q 210 447 124 389 q 333 494 277 494 q 384 482 362 494 q 426 442 405 470 l 480 632 q 489 664 485 652 q 496 700 496 686 q 488 719 496 712 q 458 729 476 729 q 417 725 446 729 l 417 745 l 604 776 m 402 388 q 382 444 402 423 q 330 465 362 465 q 187 352 261 465 q 113 135 113 239 q 131 72 113 94 q 174 51 149 51 q 316 174 231 51 q 402 388 402 297 "},"\"":{"x_min":160.734375,"x_max":505.28125,"ha":469,"o":"m 360 438 l 376 597 q 385 670 383 659 q 404 724 393 706 q 429 747 413 737 q 465 757 446 757 q 494 747 484 757 q 505 719 505 736 q 497 683 505 705 q 463 598 477 626 l 386 438 l 360 438 m 160 438 l 177 600 q 191 693 184 669 q 221 742 202 727 q 263 757 240 757 q 294 746 282 757 q 305 718 305 735 q 299 690 305 706 q 259 599 292 667 l 183 438 l 160 438 "},"ê":{"x_min":35.265625,"x_max":495.34375,"ha":496,"o":"m 132 205 q 129 160 129 178 q 163 77 129 111 q 247 43 198 43 q 323 59 286 43 q 430 130 359 75 l 442 115 q 195 -12 312 -12 q 75 37 115 -12 q 35 147 35 87 q 85 314 35 229 q 211 446 135 399 q 367 494 286 494 q 453 470 425 494 q 480 415 480 446 q 444 328 480 369 q 305 240 397 274 q 132 205 244 218 m 137 232 q 268 264 217 242 q 369 336 335 294 q 402 415 402 377 q 388 452 402 438 q 347 466 373 466 q 229 407 291 466 q 137 232 166 348 m 454 757 l 495 584 l 483 584 l 391 695 l 217 584 l 202 584 l 372 757 l 454 757 "},"„":{"x_min":16.28125,"x_max":426.609375,"ha":622,"o":"m 267 -122 q 337 -71 307 -105 q 352 -33 352 -55 q 348 -15 352 -22 q 335 2 347 -11 q 320 23 323 16 q 315 42 315 32 q 331 82 315 65 q 371 99 348 99 q 410 81 394 99 q 426 34 426 63 q 409 -32 426 1 q 359 -93 392 -65 q 278 -143 336 -112 l 267 -122 m 16 -122 q 86 -73 71 -92 q 102 -35 102 -53 q 98 -15 102 -23 q 84 2 96 -11 q 69 22 71 16 q 65 40 65 31 q 82 81 65 64 q 120 99 98 99 q 160 81 144 99 q 176 33 176 63 q 27 -142 176 -73 l 16 -122 "},"Â":{"x_min":-54.9375,"x_max":693.34375,"ha":683,"o":"m 575 757 l 519 141 q 515 84 515 98 q 523 51 515 63 q 551 27 533 35 q 611 20 569 20 l 605 0 l 314 0 l 320 20 l 332 20 q 390 35 368 20 q 415 69 406 46 q 426 149 421 86 l 435 243 l 223 243 l 147 141 q 115 92 122 107 q 109 63 109 77 q 123 33 109 46 q 170 20 137 21 l 164 0 l -54 0 l -48 20 q 22 47 -8 21 q 114 155 53 72 l 556 757 l 575 757 m 467 575 l 253 283 l 439 283 l 467 575 m 652 965 l 693 792 l 681 792 l 589 903 l 415 792 l 400 792 l 570 965 l 652 965 "},"Í":{"x_min":-35.265625,"x_max":458.484375,"ha":372,"o":"m 276 20 l 269 0 l -35 0 l -27 20 q 33 27 18 21 q 68 53 57 37 q 105 145 86 79 l 234 592 q 250 676 250 647 q 243 700 250 690 q 222 715 236 710 q 166 720 208 720 l 172 740 l 458 740 l 452 720 q 400 712 417 720 q 363 681 376 701 q 330 592 350 661 l 202 145 q 184 66 184 83 q 191 43 184 52 q 212 28 198 33 q 276 20 227 23 m 454 983 l 294 795 l 275 795 l 331 983 l 454 983 "},"´":{"x_min":223.140625,"x_max":402.1875,"ha":372,"o":"m 402 765 l 242 577 l 223 577 l 279 765 l 402 765 "},"Ú":{"x_min":118.6875,"x_max":910.171875,"ha":808,"o":"m 146 740 l 459 740 l 453 720 q 384 711 404 718 q 349 682 364 703 q 319 608 335 662 l 243 345 q 219 254 223 276 q 212 189 212 219 q 262 77 212 123 q 393 31 311 31 q 490 52 447 31 q 563 110 533 73 q 618 210 593 147 q 662 337 643 273 l 728 563 q 752 673 752 648 q 736 704 752 691 q 668 720 719 717 l 674 740 l 910 740 l 904 720 q 844 712 862 720 q 812 683 826 704 q 781 604 798 663 l 701 329 q 628 132 662 196 q 528 25 594 68 q 366 -16 463 -16 q 187 46 255 -16 q 118 190 118 109 q 124 259 118 222 q 146 342 129 283 l 219 594 q 234 674 234 648 q 219 705 234 694 q 141 720 203 716 l 146 740 m 673 983 l 513 795 l 494 795 l 550 983 l 673 983 "},"ி":{"x_min":264.5,"x_max":734.515625,"ha":741,"o":"m 615 0 l 564 0 l 672 542 q 678 591 678 569 q 626 729 678 671 q 495 786 574 786 q 380 746 429 786 q 332 644 332 705 q 373 542 332 588 l 311 542 q 264 691 264 602 q 337 837 264 779 q 508 895 411 895 q 671 816 608 895 q 734 637 734 738 q 724 542 734 592 l 615 0 "},"Ý":{"x_min":100.375,"x_max":746.046875,"ha":622,"o":"m 390 393 l 531 590 q 586 689 586 668 q 574 709 586 701 q 507 720 562 716 l 513 740 l 746 740 l 741 720 q 695 710 707 715 q 656 685 675 702 q 581 594 630 661 l 400 345 l 345 162 q 326 67 326 93 q 332 41 326 50 q 354 27 338 32 q 417 20 375 21 l 412 0 l 100 0 l 107 20 q 168 27 153 21 q 205 54 193 37 q 243 144 223 79 l 308 360 l 229 615 q 190 699 208 683 q 128 720 172 716 l 133 740 l 407 740 l 400 720 q 342 713 349 716 q 322 698 330 710 q 314 671 314 687 q 330 594 314 649 l 390 393 m 603 983 l 443 795 l 424 795 l 480 983 l 603 983 "},"ஐ":{"x_min":28.484375,"x_max":991.5625,"ha":1004,"o":"m 408 298 q 394 344 408 323 q 358 366 379 366 q 324 349 335 366 q 313 298 313 332 q 323 246 313 269 q 354 206 333 223 q 394 239 381 216 q 408 298 408 262 m 991 311 q 907 127 991 201 q 706 54 823 54 l 340 54 q 198 8 259 54 q 137 -108 137 -37 q 175 -231 137 -178 q 272 -284 213 -284 q 378 -241 335 -284 q 421 -135 421 -198 l 530 -135 q 568 -258 530 -205 q 666 -311 607 -311 q 771 -264 728 -311 q 815 -149 815 -217 q 788 -54 815 -100 l 842 -40 q 862 -147 862 -83 q 800 -306 862 -246 q 652 -366 739 -366 q 539 -337 590 -366 q 462 -250 489 -309 q 388 -323 444 -293 q 259 -352 333 -352 q 96 -287 164 -352 q 28 -128 28 -223 q 123 41 28 -25 q 340 108 218 108 l 706 108 q 832 169 782 108 q 883 311 883 229 q 862 444 883 400 q 801 488 842 488 q 713 421 752 488 q 666 284 674 355 l 652 176 l 543 176 l 557 284 q 558 317 558 295 q 506 438 558 389 q 383 488 454 488 q 246 447 301 488 q 191 339 191 407 q 221 245 191 284 q 299 203 252 206 q 259 305 259 238 q 289 386 259 352 q 364 420 320 420 q 445 385 414 420 q 476 298 476 349 q 430 191 476 233 q 318 149 385 149 q 188 204 240 149 q 137 339 137 260 q 209 486 137 430 q 383 542 281 542 q 541 493 472 542 q 625 366 611 444 q 693 490 643 438 q 805 542 744 542 q 945 484 898 542 q 991 311 991 427 "},"ழ":{"x_min":94.953125,"x_max":990.203125,"ha":1021,"o":"m 935 230 q 895 398 935 322 q 786 474 855 474 q 733 454 756 474 q 705 406 710 433 l 634 54 l 813 54 q 902 108 868 54 q 935 230 935 162 m 990 230 q 940 70 990 140 q 813 0 891 0 l 623 0 q 621 -21 621 -13 q 641 -62 621 -43 q 691 -81 661 -81 l 773 -81 l 759 -135 l 678 -135 q 583 -203 621 -135 q 459 -323 539 -280 q 284 -366 379 -366 q 151 -320 208 -366 q 94 -203 94 -274 q 121 -109 94 -150 q 189 -67 147 -67 q 218 -80 206 -67 q 230 -108 230 -92 q 203 -166 230 -127 q 176 -223 176 -204 q 208 -286 176 -261 q 284 -311 241 -311 q 394 -291 349 -311 q 461 -230 438 -271 q 524 -141 493 -172 q 583 -108 554 -111 q 529 -78 547 -98 q 511 -28 511 -58 q 515 0 511 -12 l 122 0 l 230 542 l 339 542 l 241 54 l 526 54 l 596 406 q 646 504 609 466 q 732 542 683 542 q 917 448 844 542 q 990 230 990 355 "},"Ö":{"x_min":66.46875,"x_max":802.34375,"ha":808,"o":"m 550 757 q 681 725 624 757 q 770 630 737 693 q 802 501 802 568 q 733 251 802 382 q 553 51 664 120 q 322 -16 441 -16 q 179 21 236 -16 q 94 121 122 59 q 66 242 66 183 q 116 446 66 345 q 236 616 166 548 q 383 720 305 684 q 550 757 462 757 m 532 722 q 425 695 477 722 q 322 606 373 668 q 229 446 270 545 q 179 215 179 323 q 219 77 179 137 q 341 18 259 18 q 439 42 391 18 q 539 126 486 67 q 648 317 603 201 q 692 533 692 433 q 652 665 692 608 q 532 722 612 722 m 688 934 q 730 917 713 934 q 747 875 747 900 q 730 834 747 851 q 688 817 713 817 q 647 834 665 817 q 630 875 630 851 q 647 917 630 900 q 688 934 664 934 m 494 934 q 536 917 519 934 q 553 875 553 900 q 536 834 553 851 q 494 817 519 817 q 453 834 470 817 q 436 875 436 851 q 453 917 436 900 q 494 934 470 934 "},"z":{"x_min":-31.203125,"x_max":440.84375,"ha":435,"o":"m 93 480 l 440 480 l 440 467 l 63 73 l 222 73 q 294 78 279 73 q 322 96 309 82 q 351 148 335 111 l 371 148 l 324 0 l -31 0 l -31 15 l 346 408 l 189 408 q 129 406 139 408 q 99 388 113 402 q 68 343 84 375 l 47 343 l 93 480 "},"௦":{"x_min":67.828125,"x_max":590.046875,"ha":570,"o":"m 264 0 q 118 51 169 0 q 67 183 67 103 q 153 428 67 315 q 386 542 239 542 q 535 494 481 542 q 590 366 590 446 q 501 113 590 227 q 264 0 413 0 m 360 488 q 200 387 261 488 q 139 187 139 286 q 171 88 139 123 q 259 54 203 54 q 420 154 358 54 q 481 358 481 255 q 449 451 481 415 q 360 488 417 488 "},"™":{"x_min":103.765625,"x_max":1164.515625,"ha":1096,"o":"m 115 740 l 512 740 l 524 630 l 505 630 q 477 688 500 670 q 400 707 454 707 l 359 707 l 359 391 q 370 333 359 345 q 417 319 381 320 l 417 299 l 212 299 l 212 319 q 257 334 248 322 q 267 390 267 345 l 267 707 l 225 707 q 152 690 174 707 q 122 630 130 673 l 103 630 l 115 740 m 718 740 l 867 427 l 1011 740 l 1164 740 l 1164 720 q 1123 714 1133 719 q 1108 696 1113 708 q 1104 646 1104 684 l 1104 390 q 1114 333 1104 344 q 1164 319 1124 321 l 1164 299 l 947 299 l 947 319 q 990 325 979 320 q 1006 343 1001 331 q 1011 390 1011 354 l 1011 659 l 844 299 l 827 299 l 659 653 l 659 390 q 663 342 659 354 q 678 325 668 331 q 710 319 688 319 l 729 319 l 729 299 l 562 299 l 562 319 q 603 324 592 319 q 619 341 614 330 q 623 390 623 353 l 623 645 q 619 697 623 687 q 603 714 614 708 q 562 720 592 720 l 562 740 l 718 740 "},"ã":{"x_min":26.453125,"x_max":549.765625,"ha":559,"o":"m 524 494 l 418 124 l 406 73 q 404 62 404 67 q 410 46 404 53 q 421 42 414 42 q 439 50 427 42 q 496 115 460 66 l 514 103 q 437 16 477 46 q 363 -12 397 -12 q 328 -1 340 -12 q 316 32 316 10 q 328 103 316 59 l 340 144 q 208 13 268 50 q 124 -12 165 -12 q 55 20 84 -12 q 26 110 26 52 q 78 294 26 197 q 210 448 130 390 q 328 494 273 494 q 384 476 362 494 q 418 418 406 459 l 438 480 l 524 494 m 330 465 q 256 432 295 465 q 156 295 200 386 q 113 130 113 204 q 131 71 113 93 q 174 50 150 50 q 303 138 233 50 q 397 377 397 255 q 379 444 397 423 q 330 465 361 465 m 533 744 l 549 744 q 519 638 549 674 q 449 601 490 601 q 357 634 409 601 q 293 673 305 668 q 271 678 283 678 q 239 663 252 678 q 219 603 226 649 l 201 603 q 234 713 205 680 q 304 746 263 746 q 401 707 344 746 q 481 669 459 669 q 512 683 500 669 q 533 744 528 701 "},"æ":{"x_min":24.421875,"x_max":729.09375,"ha":746,"o":"m 500 485 l 487 432 q 626 494 558 494 q 701 470 673 494 q 729 414 729 446 q 708 348 729 382 q 652 288 687 314 q 557 240 617 263 q 430 206 497 217 q 423 144 423 169 q 448 68 423 95 q 516 42 473 42 q 591 61 553 42 q 677 132 628 81 l 691 116 q 585 21 643 54 q 476 -12 527 -12 q 377 25 415 -12 q 338 124 338 64 q 340 164 338 140 q 233 29 265 55 q 122 -12 180 -12 q 53 20 82 -12 q 24 113 24 52 q 78 295 24 197 q 212 450 132 393 q 326 494 273 494 q 384 472 362 494 q 411 397 405 450 l 430 474 l 500 485 m 169 50 q 242 85 199 50 q 343 225 300 131 q 386 393 386 318 q 370 450 386 432 q 327 468 355 468 q 184 343 258 468 q 111 126 111 217 q 132 68 111 94 q 169 50 147 50 m 435 233 q 605 313 552 259 q 659 414 659 366 q 644 450 659 434 q 609 465 629 465 q 548 442 583 465 q 485 374 512 419 q 435 233 459 328 "},"É":{"x_min":-25.09375,"x_max":706.703125,"ha":683,"o":"m 362 700 l 277 407 l 346 407 q 454 430 421 407 q 511 514 487 453 l 531 514 l 455 245 l 434 245 q 443 303 443 279 q 434 341 443 326 q 407 362 424 355 q 337 368 391 368 l 267 368 l 196 124 q 185 69 185 88 q 199 44 185 55 q 245 37 208 37 l 311 37 q 481 74 417 37 q 596 205 545 112 l 617 205 l 547 0 l -25 0 l -18 20 q 39 27 24 21 q 71 52 61 37 q 105 147 85 75 l 236 593 q 250 676 250 647 q 236 708 250 696 q 180 720 222 720 l 168 720 l 174 740 l 706 740 l 661 561 l 640 561 q 644 603 644 586 q 630 652 644 632 q 576 690 611 677 q 455 700 550 700 l 362 700 m 559 983 l 399 795 l 380 795 l 436 983 l 559 983 "},"ஂ":{"x_min":-210.25,"x_max":-20.34375,"ha":0,"o":"m -20 773 q -47 705 -20 733 q -115 678 -75 678 q -182 706 -154 678 q -210 773 -210 733 q -182 840 -210 813 q -115 868 -155 868 q -47 840 -75 868 q -20 773 -20 813 m -54 772 q -72 815 -54 797 q -115 832 -90 832 q -158 815 -141 832 q -176 772 -176 797 q -158 729 -176 747 q -115 711 -141 711 q -72 729 -90 711 q -54 772 -54 746 "},"~":{"x_min":10.859375,"x_max":593.4375,"ha":605,"o":"m 569 368 l 593 368 q 553 257 591 297 q 459 217 514 217 q 405 225 434 217 q 256 283 376 233 q 136 318 172 318 q 72 294 98 318 q 35 218 46 271 l 10 218 q 51 331 14 292 q 138 370 88 370 q 187 362 162 370 q 337 306 244 345 q 467 267 430 267 q 536 293 507 267 q 569 368 564 319 "},"³":{"x_min":71.890625,"x_max":362.84375,"ha":335,"o":"m 151 568 l 151 582 q 270 623 233 592 q 295 669 295 642 q 281 704 295 690 q 246 717 267 717 q 185 677 214 717 l 162 683 q 270 755 199 755 q 338 733 313 755 q 362 681 362 712 q 344 636 362 657 q 271 590 320 609 q 332 501 332 561 q 281 399 332 445 q 153 354 231 354 q 86 368 109 354 q 71 389 71 378 q 81 408 71 400 q 107 417 90 417 q 148 404 123 417 q 205 387 184 387 q 241 408 225 387 q 263 475 263 437 q 236 540 263 514 q 151 568 208 566 "},"¡":{"x_min":78.671875,"x_max":349.28125,"ha":435,"o":"m 293 534 q 333 518 316 534 q 349 478 349 501 q 333 438 349 455 q 293 422 316 422 q 253 438 269 422 q 237 478 237 455 q 253 518 237 501 q 293 534 269 534 m 257 335 l 278 335 q 240 184 250 236 q 215 48 229 132 q 182 -153 188 -124 q 147 -228 171 -202 q 114 -241 134 -241 q 89 -229 99 -241 q 78 -197 78 -217 q 88 -139 78 -173 q 177 107 111 -62 q 211 197 208 188 q 257 335 222 226 "},"[":{"x_min":6.78125,"x_max":526.984375,"ha":435,"o":"m 6 -222 l 294 757 l 526 757 l 514 719 l 362 719 l 98 -183 l 250 -183 l 239 -222 l 6 -222 "},"‌":{"x_min":-80.03125,"x_max":244.15625,"ha":0,"o":"m 244 949 l -25 -400 l -80 -400 l 189 949 l 244 949 "},"௯":{"x_min":191.265625,"x_max":1140.765625,"ha":1106,"o":"m 537 244 l 326 244 q 269 224 293 244 q 245 176 245 205 q 299 88 245 122 q 421 54 354 54 q 482 76 456 54 q 515 135 507 99 l 537 244 m 585 488 l 435 488 l 397 298 l 548 298 l 585 488 m 896 135 q 815 230 896 200 q 760 122 760 185 q 780 73 760 93 q 828 54 800 54 q 877 78 857 54 q 896 135 896 102 m 1005 0 q 1066 149 1066 72 q 1033 244 1066 203 q 950 284 1000 284 q 862 264 900 284 q 931 214 904 249 q 957 135 957 179 q 920 40 957 80 q 828 0 882 0 q 742 35 778 0 q 706 122 706 71 q 760 244 706 198 l 645 244 l 634 189 q 556 48 615 96 q 421 0 497 0 q 261 49 331 0 q 191 176 191 99 q 231 263 191 227 q 326 298 271 298 l 345 298 l 394 542 l 869 542 l 855 488 l 694 488 l 656 298 l 733 298 q 815 284 785 298 q 950 325 861 325 q 1084 274 1028 325 q 1140 149 1140 223 q 1093 0 1140 84 l 1005 0 "},"௫":{"x_min":274,"x_max":1104.828125,"ha":1104,"o":"m 1094 400 l 1053 406 q 1062 463 1062 436 q 971 639 1062 559 q 748 718 881 718 q 446 554 564 718 q 328 176 328 389 q 399 -139 328 -33 q 613 -244 470 -244 q 855 -126 758 -244 q 952 149 952 -8 q 930 235 952 198 q 873 272 908 272 q 831 260 852 272 q 805 230 811 248 l 759 0 l 651 0 l 748 488 l 588 488 l 491 0 l 439 0 l 548 542 l 959 542 l 945 488 l 857 488 l 819 298 q 907 339 853 339 q 1019 285 977 339 q 1060 149 1060 232 q 932 -167 1060 -36 q 619 -298 804 -298 q 365 -173 457 -298 q 274 149 274 -48 q 402 592 274 398 q 735 786 530 786 q 999 689 893 786 q 1104 474 1104 592 q 1094 400 1104 438 "},"ஹ":{"x_min":126.15625,"x_max":1550.421875,"ha":1583,"o":"m 398 176 q 385 223 398 202 q 351 244 372 244 q 307 219 324 244 q 290 162 290 195 q 317 67 290 117 q 376 101 354 69 q 398 176 398 133 m 1550 311 q 1431 7 1550 137 q 1129 -122 1311 -122 l 275 -122 q 246 -134 259 -122 q 234 -162 234 -146 q 244 -196 234 -174 q 255 -230 255 -218 q 239 -274 255 -256 q 200 -291 224 -291 q 147 -265 168 -291 q 126 -203 126 -238 q 170 -115 126 -150 q 275 -81 215 -81 l 1129 -81 q 1364 55 1274 -81 q 1455 366 1455 192 q 1424 452 1455 415 q 1346 488 1393 488 q 1243 448 1288 488 q 1184 339 1198 408 l 1116 0 l 1007 0 l 1086 393 q 1090 427 1090 412 q 1078 470 1090 453 q 1048 488 1066 488 q 993 462 1018 488 q 960 393 968 436 l 885 0 l 520 0 q 656 271 656 113 q 585 425 656 362 q 419 488 515 488 q 250 413 319 488 q 181 230 181 338 q 202 131 181 172 q 263 67 222 90 q 236 162 236 113 q 279 268 236 225 q 385 311 322 311 q 472 271 436 311 q 507 176 507 231 q 456 51 507 103 q 330 0 404 0 q 185 68 244 0 q 127 230 127 137 q 220 460 127 365 q 446 556 312 556 q 670 474 575 556 q 765 271 765 392 q 683 54 765 152 l 838 54 l 906 393 q 960 502 920 463 q 1048 542 999 542 q 1125 506 1094 542 q 1157 420 1157 470 q 1229 509 1177 476 q 1346 542 1281 542 q 1492 473 1433 542 q 1550 311 1550 404 "},"%":{"x_min":78.671875,"x_max":913.5625,"ha":931,"o":"m 913 757 l 130 -29 l 78 -29 l 861 757 l 913 757 m 295 757 q 384 716 346 757 q 421 609 421 675 q 355 434 421 507 q 214 360 288 360 q 120 402 158 360 q 82 510 82 444 q 151 683 82 609 q 295 757 219 757 m 299 733 q 250 712 272 733 q 181 595 210 676 q 152 446 152 514 q 169 399 152 417 q 208 381 185 381 q 249 398 231 381 q 320 514 288 434 q 353 667 353 594 q 337 715 353 697 q 299 733 320 733 m 781 365 q 873 324 834 365 q 911 214 911 282 q 879 93 911 152 q 798 2 848 35 q 702 -29 748 -29 q 610 10 648 -29 q 572 113 572 50 q 640 290 572 215 q 781 365 708 365 m 788 343 q 739 323 760 343 q 671 206 702 288 q 640 57 640 124 q 657 9 640 27 q 695 -8 673 -8 q 739 9 720 -8 q 809 127 778 46 q 841 273 841 208 q 825 324 841 306 q 788 343 809 343 "},"P":{"x_min":-26.453125,"x_max":694.5,"ha":683,"o":"m 174 740 l 465 740 q 637 691 581 740 q 694 570 694 641 q 658 461 694 514 q 551 375 622 408 q 398 342 480 342 q 267 360 346 342 l 208 158 q 187 63 187 86 q 202 34 187 46 q 273 20 217 23 l 267 0 l -26 0 l -21 20 q 60 40 37 20 q 108 149 82 60 l 231 571 q 252 673 252 647 q 237 705 252 692 q 168 720 221 717 l 174 740 m 276 395 q 376 379 338 379 q 484 403 435 379 q 560 477 533 428 q 588 579 588 526 q 554 667 588 634 q 452 699 520 699 q 362 690 415 699 l 276 395 "},"_":{"x_min":-9.5,"x_max":569.03125,"ha":559,"o":"m 569 -241 l -9 -241 l -9 -195 l 569 -195 l 569 -241 "},"ñ":{"x_min":21.03125,"x_max":549.765625,"ha":559,"o":"m 246 494 l 174 245 q 330 446 276 398 q 435 494 385 494 q 480 476 462 494 q 497 429 497 457 q 482 341 497 396 l 415 111 q 404 63 404 71 q 408 50 404 55 q 417 45 413 45 q 433 52 423 45 q 497 122 462 75 l 514 111 q 417 8 463 39 q 360 -12 385 -12 q 328 0 340 -12 q 316 31 316 11 q 335 122 316 58 l 398 341 q 410 405 410 382 q 403 423 410 416 q 385 430 396 430 q 349 417 370 430 q 265 336 309 392 q 172 191 221 279 q 130 90 147 145 l 103 0 l 21 0 l 120 341 q 138 415 138 403 q 128 437 138 427 q 105 446 118 446 q 82 443 98 446 l 61 440 l 57 460 l 246 494 m 533 744 l 549 744 q 519 638 549 674 q 449 601 490 601 q 357 634 409 601 q 293 673 305 668 q 271 678 283 678 q 239 663 252 678 q 219 603 226 649 l 201 603 q 234 713 205 680 q 304 746 263 746 q 401 707 344 746 q 481 669 459 669 q 512 683 500 669 q 533 744 528 701 "},"‚":{"x_min":35.265625,"x_max":195.328125,"ha":372,"o":"m 35 -122 q 102 -75 76 -104 q 122 -33 122 -54 q 118 -15 122 -23 q 103 1 115 -11 q 88 19 90 14 q 84 40 84 29 q 100 81 84 64 q 138 98 116 98 q 178 80 160 98 q 195 35 195 62 q 157 -63 195 -13 q 46 -140 118 -113 l 35 -122 "},"ஆ":{"x_min":51.546875,"x_max":1353.734375,"ha":1351,"o":"m 729 108 l 187 108 q 141 98 156 108 q 126 67 126 88 q 185 -9 126 35 q 370 -54 245 -54 q 571 -13 481 -54 q 729 108 661 27 m 594 474 q 533 427 553 458 q 512 352 512 397 q 527 309 512 326 q 567 291 543 291 q 620 313 599 291 q 641 366 641 334 q 594 474 641 436 m 1030 -189 l 922 -189 l 982 108 l 838 108 q 632 -64 741 -6 q 404 -122 524 -122 q 219 -88 302 -122 q 94 -4 137 -55 q 51 94 51 46 q 75 143 51 124 q 132 162 99 162 l 770 162 q 824 316 824 238 q 792 426 824 378 q 709 474 759 474 q 736 379 736 428 q 695 265 736 313 q 594 217 655 217 q 497 260 537 217 q 458 362 458 304 q 526 492 458 442 q 685 542 595 542 q 851 480 782 542 q 919 322 919 417 q 878 162 919 233 l 992 162 l 1068 542 l 1177 542 l 1073 18 q 1204 74 1123 74 q 1309 37 1264 74 q 1353 -54 1353 1 q 1210 -270 1353 -189 q 892 -352 1067 -352 q 672 -309 763 -352 q 580 -204 580 -265 q 642 -134 580 -161 q 784 -108 704 -108 l 784 -203 q 689 -173 748 -173 q 634 -203 634 -173 q 717 -273 634 -248 q 892 -298 800 -298 q 1132 -234 1033 -298 q 1231 -77 1231 -170 q 1207 -9 1231 -38 q 1150 20 1184 20 q 1066 -16 1102 20 l 1030 -189 "},"Æ":{"x_min":-59,"x_max":1016.65625,"ha":994,"o":"m 600 370 l 526 118 q 516 71 516 83 q 528 49 516 59 q 564 38 539 38 l 630 38 q 901 206 818 38 l 922 206 l 851 0 l 305 0 l 311 20 q 381 35 359 20 q 432 122 413 57 l 473 263 l 245 263 l 166 166 q 111 90 124 113 q 104 60 104 75 q 118 32 104 43 q 166 20 131 21 l 160 0 l -59 0 l -53 20 q 8 40 -19 23 q 98 135 35 58 l 486 619 q 521 667 514 653 q 527 691 527 680 q 522 706 527 699 q 507 716 518 712 q 470 720 497 720 l 477 740 l 1016 740 l 971 564 l 948 564 q 953 609 953 590 q 939 653 953 635 q 885 693 921 678 q 772 704 857 704 l 695 704 l 610 409 l 664 409 q 763 429 732 409 q 827 515 806 455 l 851 515 l 772 246 l 750 246 q 760 306 760 284 q 732 359 760 341 q 651 370 714 370 l 600 370 m 486 305 l 600 704 l 278 305 l 486 305 "},"௵":{"x_min":150.5625,"x_max":1804.078125,"ha":1837,"o":"m 585 189 q 545 264 585 264 q 496 233 514 264 q 477 166 477 202 q 504 81 477 103 q 563 114 541 83 q 585 189 585 146 m 1413 135 q 1223 -187 1413 -63 q 786 -311 1032 -311 q 340 -157 531 -311 q 150 230 150 -3 q 259 550 150 414 q 549 750 368 686 q 933 813 729 813 q 1387 686 1197 813 q 1578 352 1578 559 q 1569 255 1578 328 q 1559 146 1559 181 q 1573 77 1559 100 q 1614 54 1587 54 q 1716 149 1679 54 q 1753 352 1753 244 q 1735 422 1753 389 q 1687 461 1717 455 q 1631 508 1631 472 q 1683 549 1631 549 q 1772 491 1740 549 q 1804 352 1804 434 q 1745 103 1804 206 q 1607 0 1686 0 q 1524 39 1552 0 q 1497 155 1497 78 q 1507 251 1497 185 q 1516 345 1516 316 q 1339 635 1516 524 q 934 746 1162 746 q 582 692 752 746 q 313 516 413 639 q 212 230 212 394 q 384 -118 212 20 q 786 -257 556 -257 q 1148 -147 991 -257 q 1304 122 1304 -37 q 1286 214 1304 172 q 1237 257 1268 257 q 1205 250 1220 257 q 1188 231 1199 243 l 1142 0 l 1033 0 l 1131 488 l 968 488 l 870 0 l 762 0 l 812 257 q 817 302 817 282 q 763 444 817 386 q 626 501 710 501 q 443 422 517 501 q 368 230 368 342 q 389 143 368 177 q 450 94 409 109 q 430 183 430 132 q 471 288 430 244 q 572 332 512 332 q 659 291 623 332 q 694 196 694 251 q 643 58 694 116 q 518 0 593 0 q 373 68 431 0 q 314 230 314 137 q 405 460 314 364 q 626 556 495 556 q 806 494 737 556 q 887 339 875 432 l 927 542 l 1398 542 l 1384 488 l 1239 488 l 1202 299 q 1277 325 1230 325 q 1375 267 1338 325 q 1413 135 1413 209 "},"ª":{"x_min":96.984375,"x_max":421.171875,"ha":309,"o":"m 421 757 l 352 535 q 343 496 343 507 q 345 489 343 492 q 352 485 348 485 q 366 491 358 485 q 402 530 379 501 l 415 522 q 316 453 364 453 q 293 460 301 453 q 286 480 286 467 q 293 522 286 497 l 301 547 q 217 469 254 491 q 161 453 187 453 q 115 473 134 453 q 96 527 96 493 q 129 635 96 577 q 209 725 162 692 q 292 757 256 757 q 329 747 315 757 q 352 712 343 737 l 364 749 l 421 757 m 297 742 q 215 690 256 742 q 153 539 153 613 q 165 504 153 517 q 194 491 177 491 q 287 555 233 491 q 340 690 340 619 q 328 729 340 716 q 297 742 316 742 "},"Œ":{"x_min":24.421875,"x_max":1083.796875,"ha":1055,"o":"m 987 204 l 918 0 l 554 0 q 410 -2 470 0 l 281 -7 q 145 26 205 -7 q 55 122 86 60 q 24 248 24 185 q 72 441 24 348 q 188 601 120 534 q 340 707 256 668 q 489 746 425 746 q 544 744 495 746 q 701 740 621 740 l 1083 740 l 1036 560 l 1015 560 q 1019 602 1019 585 q 1002 653 1019 629 q 959 688 986 677 q 853 698 933 698 l 742 698 l 657 406 l 701 406 q 795 415 765 406 q 846 445 826 424 q 886 512 866 465 l 906 512 l 828 243 l 807 243 q 818 303 818 286 q 799 350 818 332 q 746 368 779 368 l 716 368 l 646 368 l 577 135 q 564 73 564 87 q 570 53 564 63 q 585 41 576 44 q 635 37 594 37 l 694 37 q 796 50 758 37 q 895 107 853 68 q 967 204 937 146 l 987 204 m 600 539 q 619 634 619 604 q 593 683 619 661 q 514 705 567 705 q 348 655 419 705 q 199 464 258 591 q 139 217 139 337 q 186 81 139 130 q 318 33 233 33 q 434 64 396 33 q 503 204 472 95 l 600 539 "},"T":{"x_min":78,"x_max":726.375,"ha":622,"o":"m 164 740 l 726 740 l 665 543 l 644 543 q 655 620 655 586 q 630 680 655 660 q 535 695 611 695 l 476 695 l 330 186 q 302 67 302 90 q 319 33 302 46 q 381 20 337 20 l 406 20 l 400 0 l 78 0 l 84 20 l 98 20 q 164 33 141 20 q 192 67 179 43 q 227 170 205 91 l 381 695 l 337 695 q 234 679 273 695 q 171 632 195 663 q 132 543 147 600 l 111 543 l 164 740 "},"š":{"x_min":-10.171875,"x_max":461.46875,"ha":435,"o":"m 405 494 l 372 326 l 352 326 q 320 432 349 399 q 250 465 292 465 q 197 447 217 465 q 177 402 177 429 q 184 368 177 385 q 219 322 192 352 q 310 205 290 244 q 331 131 331 166 q 284 30 331 74 q 165 -12 237 -12 q 74 5 126 -12 q 46 12 56 12 q 9 -12 22 12 l -10 -12 l 23 164 l 43 164 q 77 46 46 80 q 162 12 108 12 q 228 35 204 12 q 252 92 252 58 q 244 132 252 113 q 179 223 228 165 q 116 310 130 281 q 103 368 103 339 q 141 457 103 421 q 240 494 180 494 q 272 491 258 494 q 308 479 280 489 q 345 468 336 468 q 385 494 368 468 l 405 494 m 209 584 l 168 757 l 180 757 l 272 647 l 446 757 l 461 757 l 291 584 l 209 584 "},"॥":{"x_min":124.109375,"x_max":725.703125,"ha":850,"o":"m 514 -72 l 395 -72 l 606 942 l 725 942 l 514 -72 m 243 -72 l 124 -72 l 335 942 l 454 942 l 243 -72 "},"Þ":{"x_min":-26.453125,"x_max":676.859375,"ha":683,"o":"m 209 166 l 203 145 q 186 66 186 82 q 193 42 186 52 q 217 26 200 32 q 270 20 233 20 l 265 0 l -26 0 l -21 20 q 36 27 21 21 q 70 53 59 37 q 105 143 85 75 l 235 593 q 252 670 252 651 q 244 695 252 684 q 219 712 236 706 q 169 718 202 718 l 174 740 l 464 740 l 459 718 q 395 707 415 718 q 360 672 374 696 q 326 572 349 653 l 446 572 q 547 563 516 572 q 641 503 605 546 q 676 398 676 459 q 622 261 676 322 q 504 183 567 200 q 285 166 440 166 l 209 166 m 219 202 l 298 202 q 502 256 442 202 q 561 404 561 309 q 516 513 561 480 q 421 535 486 535 l 314 535 l 219 202 "},"j":{"x_min":-191.9375,"x_max":311.296875,"ha":311,"o":"m 256 710 q 295 694 278 710 q 311 655 311 678 q 295 616 311 632 q 256 600 278 600 q 217 616 233 600 q 200 655 200 632 q 217 694 200 678 q 256 710 233 710 m 264 494 l 123 5 q 19 -183 85 -125 q -122 -241 -46 -241 q -174 -225 -156 -241 q -191 -187 -191 -209 q -178 -158 -191 -170 q -147 -145 -165 -145 q -120 -155 -132 -145 q -110 -174 -110 -164 q -124 -198 -110 -188 q -131 -208 -131 -204 l -130 -211 q -125 -214 -128 -213 q -115 -215 -122 -215 q -40 -187 -71 -215 q 15 -75 -8 -159 l 138 343 q 155 412 155 405 q 144 435 155 425 q 114 446 132 446 q 98 444 107 446 q 77 440 90 443 l 77 460 l 264 494 "},"ச":{"x_min":81.390625,"x_max":759.609375,"ha":681,"o":"m 427 244 l 217 244 q 159 224 183 244 q 135 176 135 205 q 189 88 135 122 q 311 54 244 54 q 372 76 346 54 q 405 135 398 99 l 427 244 m 476 488 l 325 488 l 287 298 l 438 298 l 476 488 m 524 189 q 446 48 505 96 q 311 0 387 0 q 151 49 221 0 q 81 176 81 99 q 121 263 81 227 q 217 298 162 298 l 236 298 l 284 542 l 759 542 l 746 488 l 584 488 l 546 298 l 712 298 l 705 244 l 535 244 l 524 189 "},"1":{"x_min":68.5,"x_max":466.625,"ha":559,"o":"m 466 755 l 290 143 q 276 65 276 89 q 289 34 276 45 q 354 20 303 23 l 349 0 l 68 0 l 75 20 q 134 27 120 21 q 169 53 158 37 q 205 143 187 78 l 332 583 q 345 628 343 623 q 346 650 346 639 q 336 680 346 669 q 307 691 326 691 q 263 684 293 691 l 256 704 l 440 755 l 466 755 "},"›":{"x_min":25.09375,"x_max":309.953125,"ha":372,"o":"m 25 -16 l 210 244 l 150 502 l 174 502 l 309 244 l 54 -16 l 25 -16 "},"ூ":{"x_min":-223.8125,"x_max":902.03125,"ha":996,"o":"m 522 488 l 400 488 l 381 393 q 379 362 379 383 q 431 298 379 298 q 496 362 483 298 l 522 488 m 644 542 l 610 383 q 550 268 594 307 q 436 230 507 230 q 354 267 386 230 q 321 356 321 304 q 325 393 321 374 l 345 488 l -223 488 l -223 542 l 359 542 q 463 671 388 623 q 630 718 537 718 q 823 635 745 718 q 902 434 902 551 q 789 128 902 257 q 508 0 676 0 q 265 121 362 0 q 169 406 169 243 l 223 406 q 304 169 223 270 q 508 67 385 67 q 713 173 632 67 q 793 420 793 280 q 735 582 793 513 q 590 651 676 651 q 480 621 529 651 q 413 542 432 592 l 644 542 "},"<":{"x_min":82.0625,"x_max":669.40625,"ha":755,"o":"m 82 385 l 669 639 l 669 592 l 164 373 l 669 151 l 669 102 l 82 358 l 82 385 "},"t":{"x_min":46.125,"x_max":333.6875,"ha":311,"o":"m 290 629 l 247 480 l 333 480 l 324 446 l 239 446 l 145 124 q 130 57 130 72 q 134 43 130 48 q 144 37 138 37 q 180 57 158 37 q 239 124 193 68 l 257 110 q 162 7 206 37 q 100 -12 131 -12 q 61 2 76 -12 q 46 40 46 16 q 63 130 46 69 l 154 446 l 71 446 l 77 467 q 177 516 137 484 q 266 629 217 549 l 290 629 "},"¬":{"x_min":82.0625,"x_max":671.4375,"ha":755,"o":"m 82 479 l 671 479 l 671 257 l 628 257 l 628 435 l 82 435 l 82 479 "},"ù":{"x_min":32.5625,"x_max":526.296875,"ha":559,"o":"m 526 480 l 431 155 q 410 63 410 82 q 413 49 410 54 q 423 44 417 44 q 443 53 432 44 q 499 120 455 61 l 516 107 q 427 7 473 40 q 370 -12 398 -12 q 336 -1 348 -12 q 324 29 324 10 q 331 79 324 48 q 381 255 340 119 q 226 44 288 102 q 110 -12 164 -12 q 67 4 85 -12 q 50 48 50 21 q 73 174 50 89 l 122 343 q 139 418 139 403 q 134 429 139 424 q 124 434 130 434 q 101 425 113 434 q 49 365 90 417 l 32 377 q 119 470 73 440 q 183 494 154 494 q 217 481 204 494 q 229 448 229 468 q 208 343 229 418 l 156 166 q 135 75 135 94 q 142 58 135 65 q 160 52 149 52 q 207 70 178 52 q 284 150 236 88 q 364 266 333 212 q 431 439 396 320 l 443 480 l 526 480 m 350 765 l 409 577 l 392 577 l 229 765 l 350 765 "},"உ":{"x_min":77.3125,"x_max":1040.390625,"ha":1042,"o":"m 1040 54 l 1026 0 l 199 0 q 77 81 77 0 q 111 141 77 120 q 199 162 146 162 l 348 162 q 464 210 417 162 q 511 325 511 257 q 477 436 511 391 q 389 481 444 481 q 317 465 353 481 q 375 351 375 425 q 344 270 375 303 q 267 237 314 237 q 194 270 223 237 q 165 352 165 303 q 244 489 165 435 q 430 542 324 542 q 564 487 509 542 q 619 352 619 432 q 539 178 619 248 q 348 108 459 108 l 211 108 q 172 81 172 108 q 210 54 172 54 l 1040 54 m 265 436 q 226 358 226 406 q 259 298 226 298 q 294 358 294 298 q 265 436 294 402 "},"ï":{"x_min":48.15625,"x_max":411.796875,"ha":311,"o":"m 257 494 l 149 111 q 138 65 138 72 q 143 50 138 56 q 155 45 148 45 q 174 54 164 45 q 238 124 206 78 l 257 111 q 169 15 219 54 q 99 -12 132 -12 q 62 0 76 -12 q 48 33 48 13 q 61 101 48 54 l 132 345 q 149 421 149 405 q 141 440 149 432 q 118 448 132 448 q 68 442 106 448 l 68 463 l 257 494 m 352 731 q 394 714 377 731 q 411 672 411 697 q 394 631 411 648 q 352 614 377 614 q 311 631 329 614 q 294 672 294 648 q 311 714 294 697 q 352 731 328 731 m 158 731 q 200 714 183 731 q 217 672 217 697 q 200 631 217 648 q 158 614 183 614 q 117 631 134 614 q 100 672 100 648 q 117 714 100 697 q 158 731 134 731 "},"ஸ":{"x_min":126.15625,"x_max":1290.65625,"ha":1332,"o":"m 397 189 q 386 236 397 215 q 356 257 375 257 q 307 228 326 257 q 288 162 288 200 q 302 81 288 118 q 369 119 342 88 q 397 189 397 149 m 1290 352 q 1207 103 1290 206 q 1019 0 1123 0 q 900 38 948 0 q 852 127 852 76 q 856 162 852 145 l 906 393 q 908 417 908 406 q 898 457 908 440 q 866 474 888 474 q 790 434 822 474 q 747 339 758 394 l 679 0 l 571 0 l 622 257 q 626 297 626 278 q 573 428 626 369 q 438 488 519 488 q 255 413 330 488 q 180 230 180 338 q 202 135 180 172 q 268 81 224 98 q 234 189 234 129 q 278 286 234 247 q 383 325 322 325 q 470 285 435 325 q 505 189 505 244 q 455 55 505 111 q 329 0 404 0 q 184 68 242 0 q 126 230 126 137 q 217 451 126 360 q 438 542 308 542 q 600 490 529 542 q 695 352 672 438 q 768 488 718 434 q 878 542 817 542 q 974 506 937 542 q 1011 415 1011 471 q 1006 370 1011 395 l 965 162 q 961 131 961 147 q 983 86 961 105 q 1032 67 1005 67 q 1176 147 1117 67 q 1236 339 1235 226 q 1171 442 1236 390 q 1127 523 1127 477 q 1141 557 1127 545 q 1175 569 1155 569 q 1233 546 1208 569 q 1274 471 1257 522 q 1290 352 1290 419 "},"Ò":{"x_min":66.46875,"x_max":802.34375,"ha":808,"o":"m 550 757 q 681 725 624 757 q 770 630 737 693 q 802 501 802 568 q 733 251 802 382 q 553 51 664 120 q 322 -16 441 -16 q 179 21 236 -16 q 94 121 122 59 q 66 242 66 183 q 116 446 66 345 q 236 616 166 548 q 383 720 305 684 q 550 757 462 757 m 532 722 q 425 695 477 722 q 322 606 373 668 q 229 446 270 545 q 179 215 179 323 q 219 77 179 137 q 341 18 259 18 q 439 42 391 18 q 539 126 486 67 q 648 317 603 201 q 692 533 692 433 q 652 665 692 608 q 532 722 612 722 m 605 983 l 664 795 l 647 795 l 484 983 l 605 983 "},"ற":{"x_min":-6.78125,"x_max":820.65625,"ha":861,"o":"m 820 271 q 705 -24 820 72 q 345 -122 590 -122 l 142 -122 q 113 -134 126 -122 q 101 -162 101 -146 q 111 -196 101 -174 q 122 -230 122 -218 q 106 -274 122 -256 q 67 -291 91 -291 q 14 -265 35 -291 q -6 -203 -6 -238 q 37 -115 -6 -150 q 142 -81 82 -81 l 345 -81 q 615 10 519 -81 q 712 271 712 103 q 682 410 712 345 q 603 474 653 474 q 531 454 562 474 q 495 406 500 434 l 413 0 l 305 0 l 386 406 q 388 424 388 417 q 372 470 388 451 q 332 488 356 488 q 281 463 305 488 q 250 406 257 439 l 169 0 l 115 0 l 196 406 q 250 501 207 459 q 345 542 293 542 q 416 519 385 542 q 454 461 447 497 q 524 522 483 501 q 617 542 564 542 q 764 460 707 542 q 820 271 820 377 "},"&":{"x_min":53.578125,"x_max":819.296875,"ha":869,"o":"m 588 387 l 809 387 l 809 367 q 731 341 760 360 q 659 262 701 321 q 570 137 606 183 q 710 27 635 27 q 794 67 757 27 l 819 67 q 750 3 786 23 q 663 -16 713 -16 q 572 2 611 -16 q 497 67 534 21 q 381 2 436 22 q 259 -16 326 -16 q 107 34 160 -16 q 53 168 53 85 q 135 340 53 265 q 356 444 189 387 q 352 483 353 465 q 350 516 350 501 q 408 693 350 628 q 550 757 467 757 q 638 726 605 757 q 670 649 670 695 q 623 537 670 590 q 455 444 576 483 q 552 172 494 281 q 636 335 636 274 q 626 357 636 348 q 588 367 615 365 l 588 387 m 448 479 q 560 547 531 514 q 600 644 600 592 q 580 699 600 679 q 531 720 561 720 q 464 685 491 720 q 437 572 437 651 q 440 530 437 553 q 448 479 442 507 m 361 410 q 209 313 256 370 q 163 195 163 256 q 207 81 163 126 q 321 36 250 36 q 391 48 360 36 q 476 98 421 60 q 408 240 440 152 q 361 410 376 328 "},"I":{"x_min":-35.265625,"x_max":458.484375,"ha":372,"o":"m 276 20 l 269 0 l -35 0 l -27 20 q 33 27 18 21 q 68 53 57 37 q 105 145 86 79 l 234 592 q 250 676 250 647 q 243 700 250 690 q 222 715 236 710 q 166 720 208 720 l 172 740 l 458 740 l 452 720 q 400 712 417 720 q 363 681 376 701 q 330 592 350 661 l 202 145 q 184 66 184 83 q 191 43 184 52 q 212 28 198 33 q 276 20 227 23 "},"ஏ":{"x_min":124.796875,"x_max":1013.265625,"ha":921,"o":"m 301 67 q 386 99 350 67 q 423 176 423 130 q 408 232 423 208 q 368 257 393 257 q 310 229 333 257 q 287 162 287 201 q 301 67 287 104 m 687 54 l 775 488 l 463 488 q 263 418 348 488 q 179 244 179 349 q 196 150 179 191 q 246 81 212 109 q 233 176 233 104 q 279 300 233 248 q 396 352 326 352 q 488 308 451 352 q 524 203 524 263 q 472 60 524 120 q 341 0 419 0 q 186 72 248 0 q 124 244 124 145 q 225 457 124 372 q 463 542 326 542 l 1013 542 l 999 488 l 884 488 l 786 0 q 559 -58 664 0 q 396 -217 454 -116 l 368 -196 q 523 -12 436 -80 q 687 54 610 54 "},"G":{"x_min":77.3125,"x_max":810.46875,"ha":808,"o":"m 805 757 l 749 524 l 729 524 q 733 584 733 564 q 686 679 733 638 q 556 720 639 720 q 278 561 386 720 q 193 278 193 435 q 246 99 193 174 q 409 24 299 24 q 461 29 436 24 q 534 51 485 34 l 588 242 q 600 304 600 281 q 585 334 600 324 q 511 350 562 350 l 496 350 l 502 371 l 810 371 l 805 350 q 743 340 763 349 q 710 309 724 331 q 680 223 701 294 l 626 35 q 505 -6 551 4 q 408 -17 459 -17 q 219 26 292 -17 q 112 142 147 70 q 77 286 77 215 q 117 468 77 382 q 218 615 158 555 q 349 710 278 675 q 555 757 447 757 q 698 731 634 757 q 735 720 723 720 q 758 727 749 720 q 784 757 768 733 l 805 757 "},"`":{"x_min":196.6875,"x_max":376.40625,"ha":372,"o":"m 317 765 l 376 577 l 359 577 l 196 765 l 317 765 "},"·":{"x_min":79.359375,"x_max":200.078125,"ha":279,"o":"m 139 430 q 182 413 165 430 q 200 370 200 395 q 182 327 200 345 q 139 309 164 309 q 96 327 114 309 q 79 370 79 345 q 96 413 79 395 q 139 430 114 430 "},"¿":{"x_min":40.015625,"x_max":444.234375,"ha":559,"o":"m 388 533 q 428 517 412 533 q 444 477 444 501 q 427 438 444 455 q 388 422 411 422 q 349 438 365 422 q 333 477 333 455 q 349 517 333 501 q 388 533 365 533 m 356 334 l 376 334 q 343 215 368 265 q 236 78 318 164 q 144 -42 168 5 q 127 -113 127 -77 q 158 -186 127 -156 q 236 -216 188 -216 q 311 -196 282 -216 q 328 -170 328 -185 q 319 -140 328 -159 q 309 -107 309 -120 q 323 -77 309 -89 q 355 -65 336 -65 q 387 -78 374 -65 q 401 -113 401 -92 q 381 -173 401 -143 q 320 -222 361 -202 q 227 -241 280 -241 q 91 -193 143 -241 q 40 -85 40 -146 q 63 -1 40 -37 q 184 106 95 46 q 305 213 272 167 q 356 334 339 259 "},"ý":{"x_min":-89.53125,"x_max":490.359375,"ha":496,"o":"m 178 494 q 204 435 197 462 q 218 326 211 407 l 242 57 q 337 182 275 96 q 411 295 367 223 q 444 356 438 339 q 447 374 447 365 q 443 384 447 380 q 423 393 440 387 q 397 412 407 398 q 386 444 386 426 q 399 480 386 466 q 432 494 413 494 q 473 474 456 494 q 490 419 490 454 q 460 320 490 376 q 347 150 431 265 q 143 -99 263 35 q 21 -217 61 -192 q -46 -241 -18 -241 q -76 -228 -63 -241 q -89 -198 -89 -215 q -71 -160 -89 -177 q -33 -142 -54 -142 q -15 -147 -22 -142 q -5 -162 -10 -149 q 4 -180 0 -175 q 10 -183 6 -183 q 21 -177 13 -183 q 91 -118 51 -158 q 169 -31 144 -65 l 138 314 q 115 419 130 400 q 64 438 100 438 q 23 434 52 438 l 18 455 l 178 494 m 473 765 l 313 577 l 294 577 l 350 765 l 473 765 "},"º":{"x_min":124.796875,"x_max":439.484375,"ha":347,"o":"m 439 656 q 376 514 439 576 q 233 453 314 453 q 154 482 184 453 q 124 555 124 511 q 188 694 124 631 q 330 757 252 757 q 409 728 379 757 q 439 656 439 699 m 380 677 q 364 724 380 707 q 322 740 348 740 q 226 670 269 740 q 183 534 183 600 q 199 486 183 503 q 243 469 216 469 q 336 537 292 469 q 380 677 380 606 "},"௱":{"x_min":112.578125,"x_max":994.28125,"ha":903,"o":"m 994 542 l 982 488 l 865 488 l 767 0 l 659 0 l 756 488 l 596 488 l 499 0 l 390 0 l 463 366 q 469 413 469 393 q 455 475 469 448 q 417 501 442 501 q 340 462 374 501 q 295 366 307 422 l 221 0 l 112 0 l 187 366 q 260 501 203 447 q 389 556 318 556 q 475 527 438 556 q 512 454 512 498 l 530 542 l 994 542 "},"ௐ":{"x_min":75.28125,"x_max":945.4375,"ha":966,"o":"m 416 162 q 399 210 416 190 q 355 230 382 230 q 311 210 328 230 q 294 162 294 190 q 321 54 294 86 q 388 91 361 61 q 416 162 416 122 m 945 244 q 895 92 945 158 q 769 27 845 27 q 681 76 715 27 q 647 189 647 126 q 606 108 606 166 q 645 3 606 47 q 741 -40 684 -40 l 877 -40 l 864 -94 l 741 -94 q 670 -122 700 -94 q 619 -203 639 -149 q 505 -341 588 -290 q 321 -393 423 -393 q 146 -342 218 -393 q 75 -227 75 -290 q 77 -203 75 -215 l 104 -67 l 158 -67 l 131 -189 q 128 -217 128 -203 q 137 -255 128 -239 l 229 -255 l 257 -116 q 328 -63 268 -63 q 417 -99 381 -63 q 454 -187 454 -134 q 429 -259 454 -228 q 367 -290 404 -290 l 180 -290 q 321 -339 238 -339 q 454 -293 396 -339 q 524 -176 512 -248 q 559 -91 533 -129 q 619 -54 585 -54 q 552 94 552 2 q 602 237 552 177 q 728 298 652 298 q 701 189 701 265 q 719 123 701 152 q 769 94 738 94 q 818 133 800 94 q 836 217 836 171 q 743 401 836 328 q 524 474 649 474 q 279 403 387 474 q 172 217 172 331 q 198 124 172 165 q 267 67 223 82 q 240 162 240 113 q 283 268 240 225 q 389 311 326 311 q 475 276 440 311 q 511 189 511 240 q 456 55 511 110 q 321 0 400 0 q 177 64 236 0 q 118 217 118 128 q 241 450 118 358 q 524 542 364 542 q 816 459 687 542 q 945 244 945 376 m 282 -255 l 367 -255 q 401 -233 388 -255 q 415 -187 415 -212 q 398 -129 415 -155 q 355 -104 381 -104 q 310 -137 322 -104 l 282 -255 m 482 -65 q 436 -28 436 -65 q 482 9 436 9 q 529 -28 529 9 q 482 -65 529 -65 "},";":{"x_min":19.671875,"x_max":295.03125,"ha":372,"o":"m 239 493 q 278 477 261 493 q 295 438 295 461 q 278 398 295 415 q 239 382 261 382 q 199 398 216 382 q 183 438 183 415 q 199 477 183 461 q 239 493 215 493 m 19 -121 q 90 -69 77 -88 q 104 -34 104 -51 q 100 -15 104 -23 q 86 3 99 -10 q 71 23 73 17 q 67 43 67 32 q 84 83 67 66 q 122 100 100 100 q 161 82 144 100 q 178 35 178 64 q 158 -36 178 -1 q 101 -99 137 -71 q 29 -140 88 -109 l 19 -121 "},"௬":{"x_min":261.796875,"x_max":1102.796875,"ha":1104,"o":"m 607 244 l 397 244 q 340 224 364 244 q 316 176 316 205 q 370 88 316 122 q 492 54 424 54 q 552 76 526 54 q 585 135 578 99 l 607 244 m 656 488 l 505 488 l 467 298 l 618 298 l 656 488 m 705 189 q 627 48 686 96 q 492 0 567 0 q 331 49 402 0 q 261 176 261 99 q 302 263 261 227 q 397 298 342 298 l 416 298 l 465 542 l 953 542 l 940 488 l 765 488 l 727 298 l 1102 298 l 1093 244 l 1048 244 l 1001 0 l 892 0 l 940 244 l 865 244 l 817 0 l 750 0 l 797 244 l 716 244 l 705 189 "},"6":{"x_min":70.53125,"x_max":587.34375,"ha":559,"o":"m 587 755 l 587 734 q 406 642 494 712 q 252 462 318 572 q 348 487 311 487 q 466 437 417 487 q 515 301 515 387 q 431 79 515 171 q 250 -12 347 -12 q 115 52 161 -12 q 70 202 70 117 q 122 423 70 314 q 262 611 174 533 q 446 726 351 689 q 587 755 503 748 m 225 416 q 147 137 147 250 q 177 45 147 78 q 244 11 206 11 q 362 103 307 11 q 416 314 416 194 q 384 414 416 379 q 308 449 353 449 q 272 443 289 449 q 225 416 255 436 "},"அ":{"x_min":51.546875,"x_max":1215.375,"ha":1232,"o":"m 770 108 l 187 108 q 141 98 156 108 q 126 67 126 88 q 188 -10 126 33 q 390 -54 251 -54 q 607 -13 512 -54 q 770 108 701 27 m 634 474 q 573 427 594 458 q 553 352 553 397 q 568 309 553 326 q 607 291 583 291 q 661 313 640 291 q 682 366 682 334 q 634 474 682 436 m 1068 -189 l 960 -189 l 1020 108 l 878 108 q 668 -64 781 -6 q 424 -122 554 -122 q 226 -87 316 -122 q 93 -3 136 -53 q 51 94 51 46 q 75 143 51 124 q 132 162 99 162 l 811 162 q 865 316 865 238 q 832 426 865 378 q 750 474 800 474 q 777 379 777 428 q 736 265 777 313 q 634 217 695 217 q 538 260 577 217 q 499 362 499 304 q 567 492 499 442 q 725 542 636 542 q 891 480 823 542 q 960 322 960 417 q 919 162 960 233 l 1030 162 l 1106 542 l 1215 542 l 1068 -189 "},"n":{"x_min":21.03125,"x_max":514.09375,"ha":559,"o":"m 246 494 l 174 245 q 330 446 276 398 q 435 494 385 494 q 480 476 462 494 q 497 429 497 457 q 482 341 497 396 l 415 111 q 404 63 404 71 q 408 50 404 55 q 417 45 413 45 q 433 52 423 45 q 497 122 462 75 l 514 111 q 417 8 463 39 q 360 -12 385 -12 q 328 0 340 -12 q 316 31 316 11 q 335 122 316 58 l 398 341 q 410 405 410 382 q 403 423 410 416 q 385 430 396 430 q 349 417 370 430 q 265 336 309 392 q 172 191 221 279 q 130 90 147 145 l 103 0 l 21 0 l 120 341 q 138 415 138 403 q 128 437 138 427 q 105 446 118 446 q 82 443 98 446 l 61 440 l 57 460 l 246 494 "},"¤":{"x_min":48.828125,"x_max":577.84375,"ha":559,"o":"m 467 556 l 545 634 l 577 602 l 499 525 q 555 372 555 453 q 499 217 555 288 l 577 138 l 545 107 l 467 186 q 320 130 394 130 q 226 146 272 130 q 159 186 181 163 l 80 107 l 48 138 l 127 217 q 71 370 71 281 q 127 525 71 457 l 48 602 l 80 634 l 159 556 q 231 596 187 581 q 314 611 275 611 q 394 597 352 611 q 467 556 436 583 m 314 567 q 173 509 231 567 q 115 369 115 451 q 173 231 115 289 q 313 173 231 173 q 453 231 394 173 q 511 370 511 290 q 484 468 511 420 q 411 542 457 516 q 314 567 364 567 "},"p":{"x_min":-123.4375,"x_max":528.328125,"ha":559,"o":"m 247 494 l 209 368 q 316 466 269 438 q 411 494 362 494 q 494 455 459 494 q 528 355 528 417 q 430 111 528 235 q 202 -12 333 -12 q 154 -7 175 -12 q 107 14 133 -1 l 67 -126 q 55 -180 55 -168 q 62 -201 55 -192 q 82 -214 68 -209 q 138 -219 96 -219 l 133 -239 l -123 -239 l -118 -219 q -49 -201 -67 -217 q -12 -116 -31 -186 l 126 361 q 138 417 138 406 q 130 440 138 432 q 104 448 122 448 q 60 444 88 448 l 60 465 l 247 494 m 120 57 q 211 16 153 16 q 268 32 239 16 q 326 79 298 48 q 377 151 354 110 q 417 247 399 191 q 435 356 435 302 q 415 423 435 400 q 368 446 395 446 q 251 378 309 446 q 167 220 194 311 l 120 57 "},"‡":{"x_min":-15.59375,"x_max":563.609375,"ha":559,"o":"m 377 414 q 299 308 329 375 q 269 178 269 241 q 280 120 269 155 q 201 0 226 74 q 288 16 250 2 q 347 29 327 29 q 377 17 364 29 q 389 -10 389 6 q 377 -39 389 -27 q 349 -51 365 -51 q 282 -33 330 -51 q 194 -16 247 -19 q 181 -122 182 -68 q 162 -218 179 -194 q 122 -241 145 -241 q 97 -228 109 -241 q 85 -200 85 -215 q 120 -113 85 -166 q 171 -16 154 -60 q 80 -37 124 -21 q 25 -50 46 -50 q -3 -38 8 -50 q -15 -10 -15 -26 q -3 17 -15 4 q 24 30 9 30 q 87 15 46 30 q 179 0 129 1 q 187 51 187 31 q 166 120 187 86 q 246 225 215 158 q 276 357 276 292 q 265 414 276 381 q 308 459 292 435 q 345 535 324 482 q 260 518 301 532 q 196 505 219 505 q 167 517 180 505 q 155 546 155 530 q 168 574 155 562 q 198 586 181 586 q 261 571 219 586 q 352 553 303 555 q 365 666 365 602 q 383 752 365 729 q 423 776 400 776 q 448 764 437 776 q 460 737 460 752 q 425 648 460 699 q 373 553 391 597 q 458 571 418 557 q 520 585 497 585 q 550 572 536 585 q 563 544 563 559 q 550 516 563 529 q 520 504 537 504 q 455 518 498 504 q 366 535 412 533 q 358 476 358 498 q 377 414 358 447 "},"௰":{"x_min":140.390625,"x_max":957.65625,"ha":977,"o":"m 462 115 q 393 28 432 57 q 306 0 354 0 q 187 49 234 0 q 140 154 140 98 q 143 189 140 173 l 215 542 l 324 542 l 252 189 q 248 158 248 172 q 268 86 248 119 q 320 54 288 54 q 406 112 365 54 q 469 278 447 171 l 523 542 l 632 542 l 577 271 q 564 157 564 203 q 589 85 564 115 q 652 54 614 54 q 795 158 741 54 q 849 386 849 262 q 771 650 849 535 q 571 766 694 766 l 584 807 q 850 682 744 807 q 957 386 957 557 q 867 116 957 232 q 638 0 777 0 q 522 31 573 0 q 462 115 471 62 "},"S":{"x_min":7.453125,"x_max":606.328125,"ha":559,"o":"m 7 -16 l 68 257 l 87 257 q 83 191 83 217 q 131 69 83 116 q 256 23 179 23 q 364 66 327 23 q 401 168 401 110 q 385 236 401 205 q 247 395 359 281 q 178 476 193 449 q 153 569 153 520 q 211 702 153 647 q 359 757 269 757 q 417 751 390 757 q 479 729 434 748 q 514 715 510 716 q 531 714 522 714 q 558 722 547 714 q 585 757 569 730 l 606 757 l 549 511 l 530 511 q 533 564 533 544 q 489 672 533 630 q 373 714 445 714 q 281 681 317 714 q 246 604 246 648 q 268 531 246 566 q 373 418 291 497 q 478 296 455 340 q 502 202 502 252 q 473 93 502 146 q 387 11 443 40 q 265 -16 331 -16 q 204 -10 233 -16 q 113 18 176 -4 q 78 26 92 26 q 28 -16 46 26 l 7 -16 "},"/":{"x_min":-37.984375,"x_max":426.609375,"ha":311,"o":"m 426 776 l 10 -16 l -37 -16 l 381 776 l 426 776 "},"ோ":{"x_min":150.5625,"x_max":1596.921875,"ha":1504,"o":"m 687 824 q 598 841 643 841 q 319 726 434 841 q 204 447 204 611 q 305 170 204 286 q 557 54 406 54 q 618 67 591 54 q 572 145 588 101 q 557 244 557 189 q 605 377 557 321 q 727 434 654 434 q 833 396 791 434 q 876 298 876 358 q 778 85 876 170 q 543 0 680 0 q 262 133 375 0 q 150 447 150 266 q 280 765 150 634 q 598 895 411 895 q 816 831 723 895 q 910 664 910 767 q 867 558 910 602 q 760 515 824 515 q 654 557 697 515 q 611 661 611 599 q 630 750 611 709 q 687 824 649 790 m 733 800 q 682 744 699 778 q 666 664 666 710 q 687 606 666 630 q 740 583 708 583 q 794 611 773 583 q 815 678 815 638 q 794 746 815 716 q 733 800 774 777 m 672 100 q 740 170 712 125 q 767 257 767 215 q 746 324 767 295 q 693 352 725 352 q 634 319 657 352 q 611 244 611 286 q 627 172 611 208 q 672 100 642 136 m 1596 542 l 1583 488 l 1470 488 l 1373 0 l 1264 0 l 1362 488 l 1149 488 l 1051 0 l 1000 0 l 1108 542 l 1596 542 "},"y":{"x_min":-89.53125,"x_max":490.359375,"ha":496,"o":"m 178 494 q 204 435 197 462 q 218 326 211 407 l 242 57 q 337 182 275 96 q 411 295 367 223 q 444 356 438 339 q 447 374 447 365 q 443 384 447 380 q 423 393 440 387 q 397 412 407 398 q 386 444 386 426 q 399 480 386 466 q 432 494 413 494 q 473 474 456 494 q 490 419 490 454 q 460 320 490 376 q 347 150 431 265 q 143 -99 263 35 q 21 -217 61 -192 q -46 -241 -18 -241 q -76 -228 -63 -241 q -89 -198 -89 -215 q -71 -160 -89 -177 q -33 -142 -54 -142 q -15 -147 -22 -142 q -5 -162 -10 -149 q 4 -180 0 -175 q 10 -183 6 -183 q 21 -177 13 -183 q 91 -118 51 -158 q 169 -31 144 -65 l 138 314 q 115 419 130 400 q 64 438 100 438 q 23 434 52 438 l 18 455 l 178 494 "},"g":{"x_min":-29.84375,"x_max":582.59375,"ha":559,"o":"m 582 460 l 567 403 l 475 403 q 485 348 485 373 q 424 219 485 276 q 255 158 362 164 q 168 115 197 140 q 158 98 158 107 q 167 78 158 87 q 217 60 177 69 l 323 35 q 439 -13 411 14 q 467 -80 467 -42 q 434 -162 467 -124 q 337 -220 401 -199 q 197 -241 274 -241 q 73 -225 129 -241 q -5 -181 18 -208 q -29 -125 -29 -154 q -14 -76 -29 -102 q 24 -35 1 -51 q 107 14 39 -24 q 82 57 82 33 q 105 103 82 79 q 198 158 127 128 q 103 208 138 169 q 68 294 68 246 q 136 433 68 371 q 317 494 204 494 q 384 485 358 494 q 435 460 410 477 l 582 460 m 393 374 q 368 443 393 418 q 305 468 344 468 q 203 406 243 468 q 163 277 163 344 q 188 208 163 235 q 250 181 214 181 q 307 197 280 181 q 352 241 334 213 q 382 312 370 269 q 393 374 393 355 m 131 0 q 64 -51 87 -20 q 42 -113 42 -83 q 74 -173 42 -149 q 212 -207 122 -207 q 345 -181 290 -207 q 401 -112 401 -154 q 380 -71 401 -90 q 301 -40 360 -52 q 131 0 269 -34 "},"²":{"x_min":60.359375,"x_max":373.015625,"ha":335,"o":"m 289 361 l 60 361 l 60 376 q 281 575 229 503 q 305 641 305 607 q 287 687 305 669 q 239 704 269 704 q 165 664 195 704 l 144 673 q 194 733 160 712 q 267 755 227 755 q 343 728 314 755 q 373 664 373 701 q 364 624 373 645 q 324 567 355 603 q 242 489 293 531 l 143 408 l 240 408 q 303 443 288 408 l 328 443 l 289 361 "},"–":{"x_min":-9.5,"x_max":568.34375,"ha":559,"o":"m 568 247 l -9 247 l -9 286 l 568 286 l 568 247 "},"ë":{"x_min":35.265625,"x_max":523.796875,"ha":496,"o":"m 132 205 q 129 160 129 178 q 163 77 129 111 q 247 43 198 43 q 323 59 286 43 q 430 130 359 75 l 442 115 q 195 -12 312 -12 q 75 37 115 -12 q 35 147 35 87 q 85 314 35 229 q 211 446 135 399 q 367 494 286 494 q 453 470 425 494 q 480 415 480 446 q 444 328 480 369 q 305 240 397 274 q 132 205 244 218 m 137 232 q 268 264 217 242 q 369 336 335 294 q 402 415 402 377 q 388 452 402 438 q 347 466 373 466 q 229 407 291 466 q 137 232 166 348 m 464 731 q 506 714 489 731 q 523 672 523 697 q 506 631 523 648 q 464 614 489 614 q 423 631 441 614 q 406 672 406 648 q 423 714 406 697 q 464 731 440 731 m 270 731 q 312 714 295 731 q 329 672 329 697 q 312 631 329 648 q 270 614 295 614 q 229 631 246 614 q 212 672 212 648 q 229 714 212 697 q 270 731 246 731 "},"௸":{"x_min":153.28125,"x_max":1654.859375,"ha":1663,"o":"m 1029 0 q 1090 155 1090 72 q 1068 246 1090 218 q 1040 269 1054 263 l 1036 248 q 964 59 1010 118 q 859 0 918 0 q 777 33 809 0 q 744 122 744 66 q 811 261 744 196 q 975 325 877 325 l 988 325 q 999 481 999 400 q 904 728 999 628 q 655 827 809 827 q 340 696 472 827 q 207 379 207 564 q 277 179 207 264 q 451 94 346 94 q 400 172 417 129 q 383 265 383 215 q 430 386 383 339 q 546 434 476 434 q 659 367 615 434 q 702 217 702 301 q 632 53 702 120 q 465 -13 562 -13 q 241 104 330 -13 q 153 379 153 222 q 295 771 153 606 q 641 935 438 935 q 943 809 824 935 q 1062 489 1062 682 q 1048 314 1062 406 q 1120 269 1085 300 q 1165 149 1165 230 q 1144 54 1165 92 l 1272 54 l 1302 203 q 1214 255 1247 213 q 1180 352 1180 297 q 1226 485 1180 429 q 1342 542 1272 542 q 1419 508 1388 542 q 1451 425 1451 474 q 1443 363 1451 402 l 1421 257 q 1544 297 1483 257 q 1654 406 1606 336 l 1573 0 l 1370 0 l 1315 -271 l 1207 -271 l 1261 0 l 1029 0 m 621 257 q 596 333 621 301 q 533 366 571 366 q 464 337 490 366 q 438 263 438 308 q 456 172 438 214 q 512 97 475 131 q 594 163 567 123 q 621 257 621 203 m 862 237 q 812 128 812 189 q 825 83 812 99 q 866 67 838 67 q 925 115 895 67 q 976 265 954 162 q 980 282 978 273 q 862 237 906 280 m 1343 420 q 1331 455 1343 442 q 1302 467 1319 467 q 1252 432 1270 467 q 1234 352 1234 396 q 1258 285 1234 313 q 1313 257 1281 257 l 1340 393 q 1343 420 1343 408 m 1512 223 q 1410 203 1475 203 l 1380 54 l 1478 54 l 1512 223 "},"ƒ":{"x_min":1.359375,"x_max":545.296875,"ha":559,"o":"m 375 477 l 472 477 l 463 441 l 368 441 q 274 54 339 295 q 162 -189 222 -130 q 67 -235 115 -235 q 19 -218 37 -235 q 1 -177 1 -202 q 13 -143 1 -156 q 43 -129 26 -129 q 68 -139 57 -129 q 78 -160 78 -149 q 71 -180 78 -172 q 65 -191 65 -187 q 69 -199 65 -195 q 79 -202 73 -202 q 99 -197 90 -202 q 131 -162 115 -187 q 164 -65 147 -136 q 211 160 167 -53 q 278 441 215 180 l 181 441 l 189 477 q 258 486 244 481 q 281 503 271 491 q 314 576 295 522 q 390 725 354 692 q 470 757 426 757 q 524 739 504 757 q 545 695 545 720 q 534 665 545 676 q 507 653 523 653 q 484 663 494 653 q 474 684 474 673 q 479 703 474 693 q 485 718 485 713 q 480 728 485 723 q 466 732 476 732 q 435 718 449 732 q 410 673 415 701 q 375 477 395 607 "},"ா":{"x_min":122.078125,"x_max":718.921875,"ha":628,"o":"m 718 542 l 705 488 l 592 488 l 495 0 l 386 0 l 484 488 l 271 488 l 173 0 l 122 0 l 230 542 l 718 542 "},"J":{"x_min":-37.984375,"x_max":611.75,"ha":496,"o":"m 320 740 l 611 740 l 605 720 q 526 699 549 719 q 478 592 503 679 l 384 267 q 330 126 357 174 q 231 21 293 60 q 92 -16 169 -16 q -4 12 29 -16 q -37 82 -37 41 q -17 137 -37 115 q 31 159 2 159 q 71 144 55 159 q 86 108 86 130 q 72 74 86 90 q 54 46 54 54 q 65 25 54 35 q 92 16 75 16 q 145 28 118 16 q 196 65 172 40 q 237 123 219 89 q 273 217 255 158 l 300 311 l 381 592 q 399 670 399 654 q 383 703 399 690 q 314 720 366 716 l 320 740 "},"Ã":{"x_min":-54.9375,"x_max":745.765625,"ha":683,"o":"m 575 757 l 519 141 q 515 84 515 98 q 523 51 515 63 q 551 27 533 35 q 611 20 569 20 l 605 0 l 314 0 l 320 20 l 332 20 q 390 35 368 20 q 415 69 406 46 q 426 149 421 86 l 435 243 l 223 243 l 147 141 q 115 92 122 107 q 109 63 109 77 q 123 33 109 46 q 170 20 137 21 l 164 0 l -54 0 l -48 20 q 22 47 -8 21 q 114 155 53 72 l 556 757 l 575 757 m 467 575 l 253 283 l 439 283 l 467 575 m 729 945 l 745 945 q 715 839 745 875 q 645 802 686 802 q 553 835 605 802 q 489 874 501 869 q 467 879 479 879 q 435 864 448 879 q 415 804 422 850 l 397 804 q 430 914 401 881 q 500 947 459 947 q 597 908 540 947 q 677 870 655 870 q 708 884 696 870 q 729 945 724 902 "},"ெ":{"x_min":153.28125,"x_max":975.28125,"ha":994,"o":"m 870 0 l 819 0 l 900 406 q 912 522 912 463 q 837 731 912 635 q 641 827 762 827 q 333 696 459 827 q 207 379 207 564 q 277 179 207 264 q 451 94 346 94 q 400 172 417 129 q 383 265 383 215 q 430 386 383 339 q 546 434 476 434 q 659 367 615 434 q 702 217 702 301 q 632 53 702 120 q 465 -13 562 -13 q 241 104 330 -13 q 153 379 153 222 q 288 771 153 606 q 628 935 424 935 q 876 822 777 935 q 975 563 975 709 q 965 474 975 521 l 870 0 m 621 257 q 596 333 621 301 q 533 366 571 366 q 464 337 490 366 q 438 263 438 308 q 456 172 438 214 q 512 97 475 131 q 594 163 567 123 q 621 257 621 203 "},"இ":{"x_min":94.953125,"x_max":1220.796875,"ha":1268,"o":"m 1091 -339 l 1040 -339 l 1154 230 q 1165 324 1165 284 q 1033 651 1165 501 q 691 800 902 800 q 364 666 499 800 q 230 339 230 531 q 309 28 230 165 q 583 94 436 94 q 777 52 695 94 q 854 271 854 154 q 814 423 854 360 q 705 495 775 486 q 753 371 753 444 q 710 249 753 295 q 596 203 668 203 q 504 244 540 203 q 467 351 467 284 q 538 499 467 436 q 701 562 609 562 q 881 480 813 562 q 949 271 949 397 q 854 13 949 150 q 940 -62 904 -14 q 976 -160 976 -111 q 906 -304 976 -250 q 732 -359 836 -359 q 529 -298 634 -359 q 298 -359 423 -359 q 154 -318 215 -359 q 94 -210 94 -278 q 139 -95 94 -151 q 252 -2 183 -40 q 155 352 155 167 q 312 728 155 574 q 691 881 468 881 q 1069 722 918 881 q 1220 356 1220 563 q 1205 230 1220 304 l 1091 -339 m 613 481 q 547 429 573 467 q 522 344 522 391 q 540 291 522 311 q 585 271 558 271 q 642 298 620 271 q 664 366 664 326 q 613 481 664 437 m 724 -14 q 535 27 651 27 q 332 -13 415 27 q 524 -191 398 -117 q 724 -14 635 -126 m 444 -238 q 278 -47 343 -162 q 196 -116 236 -69 q 155 -200 155 -163 q 190 -261 155 -237 q 278 -284 224 -284 q 444 -238 369 -284 m 804 -56 q 617 -234 705 -175 q 732 -257 678 -257 q 828 -231 788 -257 q 868 -162 868 -205 q 804 -56 868 -101 "},"©":{"x_min":75.96875,"x_max":850.484375,"ha":850,"o":"m 463 757 q 653 707 560 757 q 798 564 746 657 q 850 370 850 471 q 799 177 850 269 q 655 34 748 85 q 463 -16 563 -16 q 270 34 362 -16 q 127 177 178 85 q 75 370 75 269 q 128 564 75 471 q 272 707 180 657 q 463 757 365 757 m 463 723 q 289 677 373 723 q 157 547 204 632 q 109 370 109 462 q 156 194 109 278 q 286 63 202 110 q 463 16 370 16 q 639 63 554 16 q 770 194 723 110 q 816 370 816 278 q 769 547 816 462 q 637 677 721 632 q 463 723 552 723 m 654 619 l 665 465 l 644 465 q 581 562 624 531 q 478 594 539 594 q 399 576 434 594 q 341 526 364 558 q 314 464 325 503 q 303 382 303 425 q 353 212 303 267 q 484 157 402 157 q 654 245 590 157 l 674 235 q 465 124 598 124 q 284 195 356 124 q 212 366 212 265 q 289 545 212 472 q 484 619 365 619 q 526 616 510 619 q 585 598 543 613 q 606 594 599 594 q 620 599 614 594 q 632 619 626 603 l 654 619 "},"D":{"x_min":-33.234375,"x_max":788.09375,"ha":808,"o":"m 164 720 l 170 740 l 406 740 q 629 706 556 740 q 744 597 701 671 q 788 438 788 523 q 763 297 788 366 q 706 188 737 229 q 610 97 675 147 q 469 23 545 47 q 280 0 393 0 l -33 0 l -26 20 q 31 27 16 21 q 63 52 53 37 q 99 145 80 75 l 230 592 q 245 676 245 645 q 231 708 245 697 q 175 720 217 720 l 164 720 m 357 699 l 197 145 q 179 68 179 82 q 184 51 179 59 q 200 40 190 43 q 246 35 214 35 q 405 53 331 35 q 525 105 478 71 q 632 245 592 156 q 672 448 672 334 q 611 638 672 576 q 432 701 550 701 q 357 699 403 701 "},"ÿ":{"x_min":-89.53125,"x_max":503.796875,"ha":496,"o":"m 178 494 q 204 435 197 462 q 218 326 211 407 l 242 57 q 337 182 275 96 q 411 295 367 223 q 444 356 438 339 q 447 374 447 365 q 443 384 447 380 q 423 393 440 387 q 397 412 407 398 q 386 444 386 426 q 399 480 386 466 q 432 494 413 494 q 473 474 456 494 q 490 419 490 454 q 460 320 490 376 q 347 150 431 265 q 143 -99 263 35 q 21 -217 61 -192 q -46 -241 -18 -241 q -76 -228 -63 -241 q -89 -198 -89 -215 q -71 -160 -89 -177 q -33 -142 -54 -142 q -15 -147 -22 -142 q -5 -162 -10 -149 q 4 -180 0 -175 q 10 -183 6 -183 q 21 -177 13 -183 q 91 -118 51 -158 q 169 -31 144 -65 l 138 314 q 115 419 130 400 q 64 438 100 438 q 23 434 52 438 l 18 455 l 178 494 m 444 731 q 486 714 469 731 q 503 672 503 697 q 486 631 503 648 q 444 614 469 614 q 403 631 421 614 q 386 672 386 648 q 403 714 386 697 q 444 731 420 731 m 250 731 q 292 714 275 731 q 309 672 309 697 q 292 631 309 648 q 250 614 275 614 q 209 631 226 614 q 192 672 192 648 q 209 714 192 697 q 250 731 226 731 "},"ப":{"x_min":122.078125,"x_max":922.390625,"ha":933,"o":"m 813 0 l 122 0 l 230 542 l 339 542 l 241 54 l 716 54 l 813 542 l 922 542 l 813 0 "},"$":{"x_min":46.796875,"x_max":546.640625,"ha":559,"o":"m 425 701 l 349 438 q 469 313 435 371 q 493 219 493 271 q 458 101 493 158 q 365 16 423 44 q 217 -9 307 -10 l 200 -73 l 164 -73 l 183 -9 q 110 11 139 -1 q 46 51 81 25 l 91 206 l 113 206 q 107 147 107 171 q 131 72 107 105 q 196 25 154 39 l 290 359 q 188 463 217 416 q 160 562 160 510 q 220 694 160 644 q 352 743 281 743 q 401 740 370 743 l 413 782 l 448 782 l 434 735 q 494 711 472 724 q 546 672 516 698 l 510 541 l 488 541 q 490 581 490 566 q 468 662 490 627 q 425 701 456 683 m 393 710 q 354 714 368 714 q 274 679 307 714 q 240 591 240 644 q 257 531 240 560 q 321 460 274 502 l 393 710 m 226 20 q 250 18 242 18 q 329 39 288 18 q 394 98 371 60 q 417 179 417 136 q 396 250 417 215 q 319 334 375 286 l 226 20 "},"w":{"x_min":18.984375,"x_max":739.9375,"ha":746,"o":"m 468 494 l 505 84 q 657 293 600 196 q 691 376 691 351 q 685 398 691 388 q 668 412 683 402 q 647 432 653 421 q 641 453 641 442 q 654 482 641 470 q 686 494 666 494 q 724 477 708 494 q 739 432 739 460 q 731 379 739 404 q 668 259 715 333 q 548 93 609 169 q 457 -12 486 17 l 436 -12 l 401 364 l 175 -12 l 151 -12 q 128 354 147 219 q 101 428 120 411 q 59 440 87 440 q 18 438 43 440 l 18 457 l 175 494 q 218 214 208 402 q 223 124 221 142 l 448 494 l 468 494 "},"\\":{"x_min":118.6875,"x_max":259.078125,"ha":311,"o":"m 158 776 l 259 -16 l 218 -16 l 118 776 l 158 776 "},"ர":{"x_min":92.234375,"x_max":716.203125,"ha":631,"o":"m 92 -135 l 393 27 l 485 488 l 271 488 l 173 0 l 119 0 l 227 542 l 716 542 l 702 488 l 594 488 l 495 0 l 92 -169 l 92 -135 "},"௶":{"x_min":35.265625,"x_max":1133.984375,"ha":1148,"o":"m 733 -81 l 902 -81 l 1025 542 l 1133 542 l 998 -135 l 693 -135 q 525 -261 617 -223 q 336 -298 432 -298 q 132 -237 230 -298 q 35 -122 35 -177 q 77 -81 35 -81 l 623 -81 q 653 0 642 -42 l 122 0 l 230 542 l 339 542 l 241 54 l 670 54 l 766 542 l 874 542 l 766 4 q 733 -81 760 -28 m 591 -135 l 103 -135 q 200 -213 133 -182 q 336 -244 267 -244 q 487 -213 421 -244 q 591 -135 554 -183 "},"Ì":{"x_min":-35.265625,"x_max":458.484375,"ha":372,"o":"m 276 20 l 269 0 l -35 0 l -27 20 q 33 27 18 21 q 68 53 57 37 q 105 145 86 79 l 234 592 q 250 676 250 647 q 243 700 250 690 q 222 715 236 710 q 166 720 208 720 l 172 740 l 458 740 l 452 720 q 400 712 417 720 q 363 681 376 701 q 330 592 350 661 l 202 145 q 184 66 184 83 q 191 43 184 52 q 212 28 198 33 q 276 20 227 23 m 363 983 l 422 795 l 405 795 l 242 983 l 363 983 "},"Ç":{"x_min":75.28125,"x_max":786.734375,"ha":746,"o":"m 786 757 l 731 517 l 712 517 l 710 577 q 696 636 706 610 q 667 680 687 661 q 618 710 648 699 q 551 720 588 720 q 380 667 453 720 q 233 474 286 598 q 190 266 190 371 q 253 94 190 158 q 416 30 316 30 q 551 64 492 30 q 661 168 611 98 l 687 168 q 554 28 627 73 q 379 -16 480 -16 q 218 21 288 -16 q 111 127 148 59 q 75 276 75 196 q 140 511 75 396 q 318 691 205 626 q 547 757 432 757 q 668 731 600 757 q 710 720 697 720 q 733 726 723 720 q 766 757 743 731 l 786 757 m 402 16 l 378 -25 q 428 -53 410 -31 q 445 -105 445 -74 q 414 -167 445 -141 q 317 -202 373 -202 q 240 -189 287 -202 l 247 -172 q 294 -178 274 -178 q 348 -161 329 -178 q 368 -122 368 -145 q 356 -91 368 -101 q 310 -78 341 -79 l 370 16 l 402 16 "},"C":{"x_min":75.28125,"x_max":786.734375,"ha":746,"o":"m 786 757 l 731 517 l 712 517 l 710 577 q 696 636 706 610 q 667 680 687 661 q 618 710 648 699 q 551 720 588 720 q 380 667 453 720 q 233 474 286 598 q 190 266 190 371 q 253 94 190 158 q 416 30 316 30 q 551 64 492 30 q 661 168 611 98 l 687 168 q 554 28 627 73 q 379 -16 480 -16 q 218 21 288 -16 q 111 127 148 59 q 75 276 75 196 q 140 511 75 396 q 318 691 205 626 q 547 757 432 757 q 668 731 600 757 q 710 720 697 720 q 733 726 723 720 q 766 757 743 731 l 786 757 "},"!":{"x_min":84.09375,"x_max":354.703125,"ha":372,"o":"m 176 180 l 155 180 q 193 330 182 278 q 217 467 204 383 q 250 670 244 640 q 286 744 261 718 q 318 757 298 757 q 344 745 333 757 q 354 712 354 733 q 344 656 354 690 q 256 408 322 581 q 221 318 224 327 q 176 180 210 287 m 139 93 q 179 77 163 93 q 196 37 196 61 q 179 -1 196 14 q 139 -18 163 -18 q 100 -1 116 -18 q 84 37 84 14 q 100 77 84 61 q 139 93 116 93 "},"ç":{"x_min":30.515625,"x_max":476.109375,"ha":496,"o":"m 432 118 q 317 18 375 50 q 194 -12 259 -12 q 73 30 117 -12 q 30 147 30 73 q 77 312 30 231 q 202 443 124 393 q 357 494 281 494 q 446 469 417 494 q 476 408 476 444 q 455 350 476 374 q 417 331 440 331 q 389 342 400 331 q 378 370 378 354 q 382 389 378 380 q 399 410 386 398 q 415 427 412 422 q 417 439 417 433 q 407 458 417 451 q 362 469 391 469 q 256 431 309 469 q 166 324 204 394 q 122 156 122 240 q 153 68 122 101 q 240 35 185 35 q 323 56 282 35 q 415 132 364 78 l 432 118 m 246 16 l 222 -25 q 272 -53 254 -31 q 289 -105 289 -74 q 258 -167 289 -141 q 161 -202 217 -202 q 84 -189 131 -202 l 91 -172 q 138 -178 118 -178 q 192 -161 173 -178 q 212 -122 212 -145 q 200 -91 212 -101 q 154 -78 185 -79 l 214 16 l 246 16 "},"È":{"x_min":-25.09375,"x_max":706.703125,"ha":683,"o":"m 362 700 l 277 407 l 346 407 q 454 430 421 407 q 511 514 487 453 l 531 514 l 455 245 l 434 245 q 443 303 443 279 q 434 341 443 326 q 407 362 424 355 q 337 368 391 368 l 267 368 l 196 124 q 185 69 185 88 q 199 44 185 55 q 245 37 208 37 l 311 37 q 481 74 417 37 q 596 205 545 112 l 617 205 l 547 0 l -25 0 l -18 20 q 39 27 24 21 q 71 52 61 37 q 105 147 85 75 l 236 593 q 250 676 250 647 q 236 708 250 696 q 180 720 222 720 l 168 720 l 174 740 l 706 740 l 661 561 l 640 561 q 644 603 644 586 q 630 652 644 632 q 576 690 611 677 q 455 700 550 700 l 362 700 m 487 983 l 546 795 l 529 795 l 366 983 l 487 983 "},"X":{"x_min":-74.609375,"x_max":828.109375,"ha":683,"o":"m 577 740 l 828 740 l 822 720 q 729 688 769 712 q 621 591 690 663 l 430 394 l 483 196 q 512 108 491 168 q 538 54 524 70 q 571 30 551 38 q 631 20 591 21 l 626 0 l 335 0 l 341 20 q 405 37 385 21 q 420 65 420 48 q 406 132 420 80 l 354 318 l 180 143 q 120 75 130 91 q 113 56 113 65 q 130 29 113 40 q 177 20 138 25 l 171 0 l -74 0 l -68 20 q 6 41 -22 24 q 126 143 50 67 l 341 359 l 282 573 q 235 694 255 671 q 166 720 215 716 l 171 740 l 436 740 l 430 720 q 380 715 393 720 q 360 701 367 710 q 354 679 354 691 q 366 618 354 666 l 417 436 l 533 552 q 628 662 602 620 q 636 689 636 677 q 626 708 636 701 q 571 720 611 718 l 577 740 "},"ஷ":{"x_min":127.5,"x_max":1308.96875,"ha":1320,"o":"m 1132 54 l 1166 223 q 1064 203 1129 203 l 1034 54 l 1132 54 m 398 176 q 385 223 398 202 q 351 244 372 244 q 307 219 324 244 q 290 162 290 195 q 317 67 290 117 q 376 101 354 69 q 398 176 398 133 m 967 257 l 994 393 q 997 420 997 408 q 985 455 997 442 q 956 467 973 467 q 906 432 925 467 q 888 352 888 396 q 912 285 888 313 q 967 257 935 257 m 1308 406 l 1227 0 l 1024 0 l 969 -271 l 861 -271 l 915 0 l 520 0 q 656 271 656 113 q 585 425 656 362 q 419 488 515 488 q 250 413 319 488 q 181 230 181 338 q 202 131 181 172 q 263 67 222 90 q 236 162 236 113 q 279 268 236 225 q 385 311 322 311 q 472 271 436 311 q 507 176 507 231 q 456 51 507 103 q 330 0 404 0 q 185 68 244 0 q 127 230 127 137 q 220 460 127 365 q 446 556 312 556 q 670 474 575 556 q 765 271 765 392 q 683 54 765 152 l 926 54 l 956 203 q 868 255 902 213 q 834 352 834 297 q 880 485 834 429 q 996 542 926 542 q 1073 508 1042 542 q 1105 425 1105 474 q 1097 363 1105 402 l 1075 257 q 1199 297 1138 257 q 1308 406 1260 336 "},"ô":{"x_min":32.5625,"x_max":524.34375,"ha":559,"o":"m 516 323 q 473 161 516 241 q 352 33 430 80 q 202 -12 275 -12 q 80 34 127 -12 q 32 158 32 82 q 78 319 32 238 q 202 447 124 400 q 351 494 279 494 q 470 446 423 494 q 516 323 516 398 m 426 360 q 401 438 426 411 q 337 465 376 465 q 189 350 257 465 q 122 122 122 236 q 148 42 122 70 q 214 14 174 14 q 359 128 291 14 q 426 360 426 242 m 483 757 l 524 584 l 512 584 l 420 695 l 246 584 l 231 584 l 401 757 l 483 757 "},"௪":{"x_min":363.53125,"x_max":1041.75,"ha":1106,"o":"m 709 244 l 499 244 q 441 224 465 244 q 417 176 417 205 q 472 88 417 122 q 594 54 526 54 q 654 76 628 54 q 687 135 680 99 l 709 244 m 758 488 l 607 488 l 569 298 l 720 298 l 758 488 m 807 189 q 728 48 788 96 q 594 0 669 0 q 433 49 503 0 q 363 176 363 99 q 403 263 363 227 q 499 298 444 298 l 518 298 l 567 542 l 1041 542 l 1030 488 l 866 488 l 828 298 l 954 298 l 967 359 l 1014 359 l 991 244 l 817 244 l 807 189 "},"த":{"x_min":40.6875,"x_max":773.171875,"ha":802,"o":"m 427 244 l 217 244 q 159 224 183 244 q 135 176 135 205 q 189 88 135 122 q 311 54 244 54 q 372 76 346 54 q 405 135 398 99 l 427 244 m 476 488 l 325 488 l 287 298 l 438 298 l 476 488 m 236 298 l 284 542 l 759 542 l 746 488 l 584 488 l 546 298 l 596 298 q 721 251 669 298 q 773 135 773 205 q 656 -51 773 19 q 393 -122 539 -122 l 189 -122 q 161 -134 173 -122 q 149 -162 149 -146 q 159 -196 149 -174 q 169 -230 169 -218 q 154 -274 169 -256 q 115 -291 139 -291 q 61 -265 82 -291 q 40 -203 40 -238 q 85 -115 40 -150 q 189 -81 130 -81 l 393 -81 q 582 -20 501 -81 q 664 135 664 41 q 641 210 664 177 q 583 244 619 244 l 535 244 l 524 189 q 446 48 505 96 q 311 0 387 0 q 151 49 221 0 q 81 176 81 99 q 121 263 81 227 q 217 298 162 298 l 236 298 "},"}":{"x_min":-83.421875,"x_max":370.3125,"ha":447,"o":"m 202 757 l 208 776 q 319 722 279 766 q 360 617 360 678 q 317 481 360 560 q 275 370 275 401 q 299 310 275 335 q 370 278 323 285 l 363 256 q 267 220 307 249 q 210 152 227 190 q 194 51 199 127 q 160 -81 190 -24 q 63 -184 130 -138 q -83 -241 -4 -231 l -78 -222 q 22 -178 -16 -207 q 77 -107 60 -149 q 93 -8 89 -79 q 114 100 97 62 q 188 194 135 149 q 321 266 240 240 q 237 328 265 289 q 208 415 208 368 q 251 543 208 463 q 294 659 294 623 q 273 719 294 695 q 202 757 252 744 "},"â":{"x_min":26.453125,"x_max":524.9375,"ha":559,"o":"m 524 494 l 418 124 l 406 73 q 404 62 404 67 q 410 46 404 53 q 421 42 414 42 q 439 50 427 42 q 496 115 460 66 l 514 103 q 437 16 477 46 q 363 -12 397 -12 q 328 -1 340 -12 q 316 32 316 10 q 328 103 316 59 l 340 144 q 208 13 268 50 q 124 -12 165 -12 q 55 20 84 -12 q 26 110 26 52 q 78 294 26 197 q 210 448 130 390 q 328 494 273 494 q 384 476 362 494 q 418 418 406 459 l 438 480 l 524 494 m 330 465 q 256 432 295 465 q 156 295 200 386 q 113 130 113 204 q 131 71 113 93 q 174 50 150 50 q 303 138 233 50 q 397 377 397 255 q 379 444 397 423 q 330 465 361 465 m 483 757 l 524 584 l 512 584 l 420 695 l 246 584 l 231 584 l 401 757 l 483 757 "},"ø":{"x_min":2.71875,"x_max":546.640625,"ha":559,"o":"m 524 526 l 546 505 l 480 434 q 517 322 517 380 q 470 157 517 239 q 348 31 423 75 q 198 -12 273 -12 q 142 -3 166 -12 q 90 27 118 5 l 23 -40 l 2 -16 l 69 50 q 31 156 31 104 q 79 317 31 235 q 205 447 126 400 q 356 494 284 494 q 407 486 385 494 q 458 457 430 478 l 524 526 m 418 414 q 382 454 398 444 q 337 465 365 465 q 250 427 292 465 q 154 276 193 377 q 122 127 122 194 q 123 107 122 120 l 418 414 m 427 378 l 132 70 q 170 25 152 36 q 216 13 187 13 q 272 28 244 13 q 332 86 299 44 q 396 209 365 128 q 427 359 427 290 q 427 378 427 363 "},"‰":{"x_min":69.171875,"x_max":1102.796875,"ha":1118,"o":"m 723 757 l 116 -29 l 69 -29 l 677 757 l 723 757 m 284 757 q 373 715 335 757 q 412 607 412 673 q 345 434 412 507 q 202 360 279 360 q 109 400 145 360 q 72 506 72 440 q 105 631 72 571 q 189 724 137 691 q 284 757 242 757 m 288 734 q 242 714 263 734 q 171 596 202 676 q 141 446 141 516 q 157 399 141 417 q 194 381 173 381 q 239 397 221 381 q 309 514 276 432 q 341 668 341 597 q 325 716 341 697 q 288 734 308 734 m 590 365 q 683 324 645 365 q 722 218 722 284 q 655 43 722 116 q 514 -29 588 -29 q 420 11 458 -29 q 381 115 381 51 q 449 290 381 216 q 590 365 516 365 m 598 343 q 550 322 571 343 q 482 204 512 286 q 452 58 452 122 q 467 9 452 27 q 504 -7 482 -7 q 550 9 531 -7 q 620 124 588 44 q 652 271 652 205 q 636 324 652 305 q 598 343 619 343 m 975 365 q 1065 324 1028 365 q 1102 215 1102 284 q 1070 92 1102 151 q 990 2 1038 33 q 894 -29 942 -29 q 802 11 840 -29 q 764 116 764 52 q 832 290 764 216 q 975 365 900 365 m 981 343 q 933 324 953 343 q 866 209 898 292 q 834 56 834 127 q 850 10 834 27 q 889 -7 866 -7 q 930 6 914 -7 q 1000 121 965 38 q 1034 273 1034 204 q 1016 326 1034 304 q 981 343 1003 343 "},"Ä":{"x_min":-54.9375,"x_max":747.796875,"ha":683,"o":"m 575 757 l 519 141 q 515 84 515 98 q 523 51 515 63 q 551 27 533 35 q 611 20 569 20 l 605 0 l 314 0 l 320 20 l 332 20 q 390 35 368 20 q 415 69 406 46 q 426 149 421 86 l 435 243 l 223 243 l 147 141 q 115 92 122 107 q 109 63 109 77 q 123 33 109 46 q 170 20 137 21 l 164 0 l -54 0 l -48 20 q 22 47 -8 21 q 114 155 53 72 l 556 757 l 575 757 m 467 575 l 253 283 l 439 283 l 467 575 m 688 934 q 730 917 713 934 q 747 875 747 900 q 730 834 747 851 q 688 817 713 817 q 647 834 665 817 q 630 875 630 851 q 647 917 630 900 q 688 934 664 934 m 494 934 q 536 917 519 934 q 553 875 553 900 q 536 834 553 851 q 494 817 519 817 q 453 834 470 817 q 436 875 436 851 q 453 917 436 900 q 494 934 470 934 "},"—":{"x_min":-10.171875,"x_max":1004.453125,"ha":994,"o":"m 1004 246 l -10 247 l -10 287 l 1004 286 l 1004 246 "},"N":{"x_min":-31.203125,"x_max":851.84375,"ha":746,"o":"m 320 740 l 549 160 l 673 593 q 688 676 688 647 q 674 708 688 696 q 621 719 659 719 q 607 720 614 719 l 613 740 l 851 740 l 845 720 q 790 712 807 720 q 751 682 764 701 q 716 593 734 657 l 541 -16 l 522 -16 l 276 607 l 144 146 q 130 65 130 93 q 143 34 130 45 q 206 20 156 23 l 201 0 l -31 0 l -23 20 q 35 27 20 21 q 68 53 57 37 q 103 146 84 77 l 250 661 q 204 706 229 693 q 129 720 180 718 l 135 740 l 320 740 "},"2":{"x_min":17.640625,"x_max":524.265625,"ha":559,"o":"m 385 0 l 17 0 l 17 20 q 389 407 299 267 q 432 543 432 472 q 397 636 432 600 q 306 672 362 672 q 179 598 229 672 l 160 607 q 242 716 188 677 q 357 755 295 755 q 476 707 427 755 q 524 590 524 659 q 507 501 524 541 q 410 358 480 437 q 124 79 303 236 l 310 79 q 384 97 355 79 q 425 147 413 115 l 447 147 l 385 0 "},"ü":{"x_min":32.5625,"x_max":539.796875,"ha":559,"o":"m 526 480 l 431 155 q 410 63 410 82 q 413 49 410 54 q 423 44 417 44 q 443 53 432 44 q 499 120 455 61 l 516 107 q 427 7 473 40 q 370 -12 398 -12 q 336 -1 348 -12 q 324 29 324 10 q 331 79 324 48 q 381 255 340 119 q 226 44 288 102 q 110 -12 164 -12 q 67 4 85 -12 q 50 48 50 21 q 73 174 50 89 l 122 343 q 139 418 139 403 q 134 429 139 424 q 124 434 130 434 q 101 425 113 434 q 49 365 90 417 l 32 377 q 119 470 73 440 q 183 494 154 494 q 217 481 204 494 q 229 448 229 468 q 208 343 229 418 l 156 166 q 135 75 135 94 q 142 58 135 65 q 160 52 149 52 q 207 70 178 52 q 284 150 236 88 q 364 266 333 212 q 431 439 396 320 l 443 480 l 526 480 m 480 731 q 522 714 505 731 q 539 672 539 697 q 522 631 539 648 q 480 614 505 614 q 439 631 457 614 q 422 672 422 648 q 439 714 422 697 q 480 731 456 731 m 286 731 q 328 714 311 731 q 345 672 345 697 q 328 631 345 648 q 286 614 311 614 q 245 631 262 614 q 228 672 228 648 q 245 714 228 697 q 286 731 262 731 "},"‍":{"x_min":-67.828125,"x_max":365.5625,"ha":0,"o":"m 321 772 l 281 739 l 208 831 l -18 -342 l -67 -342 l 160 831 l 50 739 l 24 772 l 162 887 l 68 1001 l 108 1034 l 201 918 l 339 1034 l 365 1001 l 227 887 l 321 772 "},"Ó":{"x_min":66.46875,"x_max":802.34375,"ha":808,"o":"m 550 757 q 681 725 624 757 q 770 630 737 693 q 802 501 802 568 q 733 251 802 382 q 553 51 664 120 q 322 -16 441 -16 q 179 21 236 -16 q 94 121 122 59 q 66 242 66 183 q 116 446 66 345 q 236 616 166 548 q 383 720 305 684 q 550 757 462 757 m 532 722 q 425 695 477 722 q 322 606 373 668 q 229 446 270 545 q 179 215 179 323 q 219 77 179 137 q 341 18 259 18 q 439 42 391 18 q 539 126 486 67 q 648 317 603 201 q 692 533 692 433 q 652 665 692 608 q 532 722 612 722 m 709 983 l 549 795 l 530 795 l 586 983 l 709 983 "},"˜":{"x_min":107.84375,"x_max":455.765625,"ha":372,"o":"m 439 744 l 455 744 q 425 638 455 674 q 355 601 396 601 q 263 634 315 601 q 199 673 211 668 q 177 678 189 678 q 145 663 158 678 q 125 603 132 649 l 107 603 q 140 713 111 680 q 210 746 169 746 q 307 707 250 746 q 387 669 365 669 q 418 683 406 669 q 439 744 434 701 "},"॒":{"x_min":-644.3125,"x_max":6.78125,"ha":0,"o":"m 6 -303 l -644 -303 l -644 -244 l 6 -244 l 6 -303 "},"ந":{"x_min":85.453125,"x_max":736.546875,"ha":769,"o":"m 436 0 l 326 0 l 424 488 l 275 488 l 180 0 l 126 0 l 227 542 l 736 542 l 722 488 l 533 488 l 489 271 q 600 318 530 318 q 697 272 659 318 q 736 162 736 225 q 635 -41 736 39 q 397 -122 533 -122 l 234 -122 q 206 -134 218 -122 q 193 -162 193 -146 q 204 -196 193 -174 q 214 -230 214 -218 q 199 -274 214 -256 q 160 -291 183 -291 q 106 -265 127 -291 q 85 -203 85 -238 q 130 -115 85 -150 q 234 -81 174 -81 l 377 -81 q 553 -14 479 -81 q 628 149 628 51 q 604 211 628 185 q 546 237 581 237 q 496 225 514 237 q 473 189 478 213 l 436 0 "},"ˇ":{"x_min":184.484375,"x_max":477.46875,"ha":372,"o":"m 225 584 l 184 757 l 196 757 l 288 647 l 462 757 l 477 757 l 307 584 l 225 584 "},"Ÿ":{"x_min":100.375,"x_max":746.046875,"ha":622,"o":"m 390 393 l 531 590 q 586 689 586 668 q 574 709 586 701 q 507 720 562 716 l 513 740 l 746 740 l 741 720 q 695 710 707 715 q 656 685 675 702 q 581 594 630 661 l 400 345 l 345 162 q 326 67 326 93 q 332 41 326 50 q 354 27 338 32 q 417 20 375 21 l 412 0 l 100 0 l 107 20 q 168 27 153 21 q 205 54 193 37 q 243 144 223 79 l 308 360 l 229 615 q 190 699 208 683 q 128 720 172 716 l 133 740 l 407 740 l 400 720 q 342 713 349 716 q 322 698 330 710 q 314 671 314 687 q 330 594 314 649 l 390 393 m 565 934 q 607 917 590 934 q 624 875 624 900 q 607 834 624 851 q 565 817 590 817 q 524 834 542 817 q 507 875 507 851 q 524 917 507 900 q 565 934 541 934 m 371 934 q 413 917 396 934 q 430 875 430 900 q 413 834 430 851 q 371 817 396 817 q 330 834 347 817 q 313 875 313 851 q 330 917 313 900 q 371 934 347 934 "},"€":{"x_min":9.5,"x_max":655.84375,"ha":559,"o":"m 485 402 l 191 402 q 177 356 183 379 l 473 356 l 461 314 l 166 314 q 149 189 149 247 q 262 32 149 32 q 396 70 335 32 q 495 155 432 92 l 508 144 q 393 38 440 70 q 227 -12 315 -12 q 46 194 46 -12 q 60 314 46 250 l 9 314 l 21 356 l 70 356 l 73 365 q 84 402 77 382 l 34 402 l 46 444 l 101 444 q 250 658 157 574 q 484 755 359 755 q 655 707 577 755 l 609 544 l 588 544 q 594 601 594 575 q 474 719 594 719 q 311 628 387 719 q 207 444 251 557 l 497 444 l 485 402 "},"ß":{"x_min":-179.734375,"x_max":556.828125,"ha":559,"o":"m 286 452 q 427 516 376 452 q 478 657 478 581 q 454 722 478 696 q 396 748 430 748 q 338 729 364 748 q 288 663 312 711 q 241 524 272 632 l 137 164 l 69 -43 q 37 -122 51 -96 q -10 -186 18 -157 q -66 -228 -38 -215 q -118 -241 -93 -241 q -165 -222 -144 -241 q -179 -187 -179 -210 q -168 -158 -179 -170 q -140 -147 -156 -147 q -119 -155 -127 -147 q -110 -174 -110 -164 q -117 -194 -110 -182 q -122 -208 -122 -203 q -119 -214 -122 -212 q -106 -218 -115 -218 q -65 -197 -85 -218 q -6 -65 -37 -168 l 71 225 l 149 494 q 215 670 186 623 q 291 747 243 717 q 398 776 339 776 q 513 734 470 776 q 556 629 556 693 q 528 533 556 575 q 447 465 499 492 q 345 436 411 448 q 431 401 402 421 q 478 343 460 380 q 497 264 497 306 q 462 130 497 195 q 372 26 427 65 q 271 -12 316 -12 q 208 13 233 -12 q 183 82 183 39 q 196 128 183 113 q 227 143 208 143 q 254 132 244 143 q 265 105 265 122 q 252 63 265 88 q 243 36 243 44 q 251 18 243 25 q 270 10 259 10 q 306 25 290 10 q 370 126 346 60 q 403 286 403 210 q 362 390 403 349 q 280 430 334 421 l 286 452 "},"s":{"x_min":-10.171875,"x_max":405.578125,"ha":435,"o":"m 405 494 l 372 326 l 352 326 q 320 432 349 399 q 250 465 292 465 q 197 447 217 465 q 177 402 177 429 q 184 368 177 385 q 219 322 192 352 q 310 205 290 244 q 331 131 331 166 q 284 30 331 74 q 165 -12 237 -12 q 74 5 126 -12 q 46 12 56 12 q 9 -12 22 12 l -10 -12 l 23 164 l 43 164 q 77 46 46 80 q 162 12 108 12 q 228 35 204 12 q 252 92 252 58 q 244 132 252 113 q 179 223 228 165 q 116 310 130 281 q 103 368 103 339 q 141 457 103 421 q 240 494 180 494 q 272 491 258 494 q 308 479 280 489 q 345 468 336 468 q 385 494 368 468 l 405 494 "},"ஜ":{"x_min":29.84375,"x_max":992.921875,"ha":1005,"o":"m 409 298 q 395 344 409 323 q 359 366 381 366 q 325 349 337 366 q 314 298 314 332 q 324 246 314 269 q 355 206 335 223 q 396 239 382 216 q 409 298 409 262 m 992 311 q 908 127 992 201 q 708 54 824 54 l 341 54 q 199 8 260 54 q 138 -108 138 -37 q 172 -221 138 -171 q 260 -271 206 -271 q 341 -240 294 -271 q 450 -149 389 -210 q 557 -51 523 -75 q 626 -13 592 -26 q 694 0 661 0 q 837 -50 776 0 q 897 -176 897 -100 q 854 -282 897 -238 q 741 -325 811 -325 q 572 -298 647 -325 l 585 -257 q 680 -271 623 -271 q 766 -240 730 -271 q 803 -162 803 -208 q 771 -86 803 -118 q 694 -54 739 -54 q 592 -84 647 -54 q 477 -176 538 -115 q 339 -288 402 -250 q 222 -325 275 -325 q 85 -261 140 -325 q 29 -108 29 -196 q 125 48 29 -11 q 341 108 221 108 l 708 108 q 834 169 784 108 q 884 311 884 229 q 864 444 884 400 q 803 488 843 488 q 714 421 753 488 q 667 284 676 355 l 653 176 l 545 176 l 558 284 q 560 317 560 295 q 507 438 560 389 q 385 488 455 488 q 247 447 303 488 q 192 339 192 407 q 223 245 192 284 q 301 203 253 206 q 260 305 260 238 q 290 386 260 352 q 366 420 321 420 q 446 385 415 420 q 477 298 477 349 q 432 191 477 233 q 320 149 386 149 q 189 204 241 149 q 138 339 138 260 q 210 486 138 430 q 385 542 282 542 q 543 493 474 542 q 626 366 612 444 q 695 490 644 438 q 807 542 745 542 q 946 484 900 542 q 992 311 992 427 "},"?":{"x_min":107.84375,"x_max":512.734375,"ha":559,"o":"m 196 181 l 175 181 q 208 301 183 250 q 309 431 234 351 q 408 558 384 510 q 425 630 425 593 q 394 702 425 673 q 316 732 364 732 q 240 712 269 732 q 224 686 224 701 q 233 656 224 675 q 242 624 242 636 q 229 593 242 606 q 197 581 216 581 q 164 594 177 581 q 151 630 151 608 q 198 718 151 678 q 325 757 244 757 q 461 710 409 757 q 512 602 512 662 q 488 517 512 553 q 368 409 457 470 q 246 302 280 348 q 196 181 213 256 m 164 93 q 203 77 186 93 q 219 37 219 61 q 203 0 219 15 q 164 -16 186 -16 q 124 0 141 -16 q 107 37 107 15 q 124 77 107 61 q 164 93 140 93 "},"c":{"x_min":30.515625,"x_max":476.109375,"ha":496,"o":"m 432 118 q 317 18 375 50 q 194 -12 259 -12 q 73 30 117 -12 q 30 147 30 73 q 77 312 30 231 q 202 443 124 393 q 357 494 281 494 q 446 469 417 494 q 476 408 476 444 q 455 350 476 374 q 417 331 440 331 q 389 342 400 331 q 378 370 378 354 q 382 389 378 380 q 399 410 386 398 q 415 427 412 422 q 417 439 417 433 q 407 458 417 451 q 362 469 391 469 q 256 431 309 469 q 166 324 204 394 q 122 156 122 240 q 153 68 122 101 q 240 35 185 35 q 323 56 282 35 q 415 132 364 78 l 432 118 "},"¶":{"x_min":59,"x_max":575.140625,"ha":585,"o":"m 502 710 l 502 -241 l 463 -241 l 463 710 l 360 710 l 360 -241 l 320 -241 l 320 328 q 165 355 217 332 q 86 427 113 379 q 59 535 59 475 q 82 634 59 595 q 166 713 113 686 q 304 740 219 740 l 575 740 l 575 710 l 502 710 "},"•":{"x_min":94.265625,"x_max":368.28125,"ha":391,"o":"m 231 506 q 328 466 288 506 q 368 369 368 426 q 328 272 368 312 q 231 232 288 232 q 134 272 174 232 q 94 369 94 312 q 134 466 94 426 q 231 506 174 506 "},"(":{"x_min":76.640625,"x_max":494.421875,"ha":372,"o":"m 210 -230 l 191 -239 q 98 -20 126 -115 q 76 129 76 54 q 158 444 76 305 q 481 776 257 614 l 494 757 q 329 589 393 682 q 199 310 250 474 q 148 12 148 146 q 210 -230 148 -90 "},"­":{"x_min":29.15625,"x_max":334.359375,"ha":372,"o":"m 334 278 l 311 206 l 29 206 l 51 278 l 334 278 "},"எ":{"x_min":124.796875,"x_max":999.703125,"ha":921,"o":"m 301 67 q 386 99 350 67 q 423 176 423 130 q 408 232 423 208 q 368 257 393 257 q 310 229 333 257 q 287 162 287 201 q 301 67 287 104 m 678 0 l 775 488 l 463 488 q 263 418 348 488 q 179 244 179 349 q 196 150 179 191 q 246 81 212 109 q 233 176 233 104 q 279 300 233 248 q 396 352 326 352 q 488 308 451 352 q 524 203 524 263 q 472 60 524 120 q 341 0 419 0 q 186 72 248 0 q 124 244 124 145 q 225 457 124 372 q 463 542 326 542 l 999 542 l 986 488 l 884 488 l 786 0 l 678 0 "},":":{"x_min":66.46875,"x_max":293,"ha":372,"o":"m 237 494 q 276 478 260 494 q 293 439 293 462 q 276 400 293 416 q 237 383 260 383 q 198 400 214 383 q 181 439 181 416 q 198 478 181 462 q 237 494 214 494 m 122 99 q 160 83 144 99 q 176 44 176 67 q 160 5 176 21 q 122 -10 144 -10 q 82 5 99 -10 q 66 44 66 21 q 82 83 66 67 q 122 99 99 99 "},"ஒ":{"x_min":118.015625,"x_max":945.4375,"ha":966,"o":"m 416 162 q 399 210 416 190 q 355 230 382 230 q 309 213 324 230 q 294 162 294 196 q 320 67 294 113 q 392 99 368 75 q 416 162 416 123 m 945 244 q 895 92 945 158 q 769 27 845 27 q 681 76 715 27 q 647 189 647 126 q 606 108 606 166 q 645 3 606 47 q 741 -40 684 -40 l 877 -40 l 864 -94 l 741 -94 q 670 -126 703 -94 q 619 -203 636 -157 q 537 -302 597 -265 q 402 -339 477 -339 q 262 -301 325 -339 q 199 -203 199 -264 q 267 -94 199 -132 l 294 -108 q 253 -189 253 -143 q 295 -258 253 -231 q 389 -284 336 -284 q 478 -254 440 -284 q 524 -176 516 -223 q 559 -91 533 -129 q 619 -54 585 -54 q 552 94 552 2 q 602 237 552 177 q 728 298 652 298 q 701 189 701 265 q 719 123 701 152 q 769 94 738 94 q 818 133 800 94 q 836 217 836 171 q 743 401 836 328 q 524 474 649 474 q 279 403 387 474 q 172 217 172 331 q 198 124 172 165 q 267 67 223 82 q 240 162 240 113 q 281 270 240 229 q 389 311 323 311 q 475 276 440 311 q 511 189 511 240 q 456 55 511 110 q 321 0 400 0 q 177 64 236 0 q 118 217 118 128 q 241 450 118 358 q 524 542 364 542 q 816 459 687 542 q 945 244 945 376 "},"Û":{"x_min":118.6875,"x_max":910.171875,"ha":808,"o":"m 146 740 l 459 740 l 453 720 q 384 711 404 718 q 349 682 364 703 q 319 608 335 662 l 243 345 q 219 254 223 276 q 212 189 212 219 q 262 77 212 123 q 393 31 311 31 q 490 52 447 31 q 563 110 533 73 q 618 210 593 147 q 662 337 643 273 l 728 563 q 752 673 752 648 q 736 704 752 691 q 668 720 719 717 l 674 740 l 910 740 l 904 720 q 844 712 862 720 q 812 683 826 704 q 781 604 798 663 l 701 329 q 628 132 662 196 q 528 25 594 68 q 366 -16 463 -16 q 187 46 255 -16 q 118 190 118 109 q 124 259 118 222 q 146 342 129 283 l 219 594 q 234 674 234 648 q 219 705 234 694 q 141 720 203 716 l 146 740 m 648 965 l 689 792 l 677 792 l 585 903 l 411 792 l 396 792 l 566 965 l 648 965 "},"V":{"x_min":139.71875,"x_max":808.4375,"ha":683,"o":"m 169 -16 l 231 599 q 235 662 235 646 q 217 703 235 687 q 159 720 198 720 l 139 720 l 145 740 l 437 740 l 431 720 q 366 710 383 719 q 337 678 348 701 q 326 610 332 666 l 282 168 l 571 562 q 630 651 618 626 q 638 681 638 668 q 626 707 638 695 q 579 720 613 718 l 585 740 l 808 740 l 803 720 q 760 710 776 718 q 700 666 730 695 q 606 550 670 637 l 189 -16 l 169 -16 "},"ௌ":{"x_min":153.28125,"x_max":2100.109375,"ha":2009,"o":"m 870 0 l 819 0 l 900 406 q 912 522 912 463 q 837 731 912 635 q 641 827 762 827 q 333 696 459 827 q 207 379 207 564 q 277 179 207 264 q 451 94 346 94 q 400 172 417 129 q 383 265 383 215 q 430 386 383 339 q 546 434 476 434 q 659 367 615 434 q 702 217 702 301 q 632 53 702 120 q 465 -13 562 -13 q 241 104 330 -13 q 153 379 153 222 q 288 771 153 606 q 628 935 424 935 q 876 822 777 935 q 975 563 975 709 q 965 474 975 521 l 870 0 m 621 257 q 596 333 621 301 q 533 366 571 366 q 464 337 490 366 q 438 263 438 308 q 456 172 438 214 q 512 97 475 131 q 594 163 567 123 q 621 257 621 203 m 1320 189 q 1279 264 1320 264 q 1230 233 1248 264 q 1211 166 1211 202 q 1238 81 1211 103 q 1297 114 1275 83 q 1320 189 1320 146 m 1973 488 l 1876 0 l 1767 0 l 1865 488 l 1702 488 l 1605 0 l 1496 0 l 1546 257 q 1551 302 1551 282 q 1497 444 1551 386 q 1360 501 1444 501 q 1177 422 1251 501 q 1103 230 1103 342 q 1123 143 1103 177 q 1184 94 1143 109 q 1164 183 1164 132 q 1205 288 1164 244 q 1306 332 1246 332 q 1393 291 1358 332 q 1428 196 1428 251 q 1378 58 1428 116 q 1252 0 1327 0 q 1107 68 1165 0 q 1048 230 1048 137 q 1139 460 1048 364 q 1360 556 1229 556 q 1540 494 1472 556 q 1621 339 1609 432 l 1661 542 l 2100 542 l 2086 488 l 1973 488 "}," ":{"x_min":0,"x_max":0,"ha":279},"ஔ":{"x_min":118.015625,"x_max":2064.109375,"ha":1974,"o":"m 416 162 q 399 210 416 190 q 355 230 382 230 q 309 213 324 230 q 294 162 294 196 q 320 67 294 113 q 392 99 368 75 q 416 162 416 123 m 945 244 q 895 92 945 158 q 769 27 845 27 q 681 76 715 27 q 647 189 647 126 q 606 108 606 166 q 645 3 606 47 q 741 -40 684 -40 l 877 -40 l 864 -94 l 741 -94 q 670 -126 703 -94 q 619 -203 636 -157 q 537 -302 597 -265 q 402 -339 477 -339 q 262 -301 325 -339 q 199 -203 199 -264 q 267 -94 199 -132 l 294 -108 q 253 -189 253 -143 q 295 -258 253 -231 q 389 -284 336 -284 q 478 -254 440 -284 q 524 -176 516 -223 q 559 -91 533 -129 q 619 -54 585 -54 q 552 94 552 2 q 602 237 552 177 q 728 298 652 298 q 701 189 701 265 q 719 123 701 152 q 769 94 738 94 q 818 133 800 94 q 836 217 836 171 q 743 401 836 328 q 524 474 649 474 q 279 403 387 474 q 172 217 172 331 q 198 124 172 165 q 267 67 223 82 q 240 162 240 113 q 281 270 240 229 q 389 311 323 311 q 475 276 440 311 q 511 189 511 240 q 456 55 511 110 q 321 0 400 0 q 177 64 236 0 q 118 217 118 128 q 241 450 118 358 q 524 542 364 542 q 816 459 687 542 q 945 244 945 376 m 1284 189 q 1243 264 1284 264 q 1194 233 1212 264 q 1175 166 1175 202 q 1202 81 1175 103 q 1261 114 1239 83 q 1284 189 1284 146 m 1937 488 l 1840 0 l 1731 0 l 1829 488 l 1666 488 l 1569 0 l 1460 0 l 1510 257 q 1515 302 1515 282 q 1461 444 1515 386 q 1324 501 1408 501 q 1141 422 1215 501 q 1067 230 1067 342 q 1087 143 1067 177 q 1148 94 1107 109 q 1128 183 1128 132 q 1169 288 1128 244 q 1270 332 1210 332 q 1357 291 1322 332 q 1392 196 1392 251 q 1342 58 1392 116 q 1216 0 1291 0 q 1071 68 1129 0 q 1012 230 1012 137 q 1103 460 1012 364 q 1324 556 1193 556 q 1504 494 1436 556 q 1585 339 1573 432 l 1625 542 l 2064 542 l 2050 488 l 1937 488 "},"@":{"x_min":52.90625,"x_max":1002.40625,"ha":1029,"o":"m 768 522 l 704 305 q 661 150 669 183 q 653 97 653 117 q 665 68 653 80 q 695 56 677 56 q 791 95 735 56 q 886 225 847 135 q 926 412 926 314 q 881 584 926 505 q 754 706 836 663 q 572 748 672 748 q 338 681 446 748 q 167 489 230 614 q 104 227 104 363 q 159 0 104 102 q 315 -155 215 -102 q 531 -208 415 -208 q 791 -131 675 -208 q 970 93 907 -54 l 1002 93 q 824 -148 953 -55 q 529 -241 694 -241 q 287 -180 398 -241 q 114 -5 176 -118 q 52 242 52 107 q 120 511 52 386 q 310 706 188 636 q 569 776 432 776 q 773 729 682 776 q 911 593 864 682 q 959 402 959 503 q 914 204 959 302 q 801 61 870 106 q 657 16 732 16 q 595 36 616 16 q 574 91 574 56 q 583 172 574 122 q 454 45 503 73 q 368 16 406 16 q 300 50 330 16 q 269 143 269 85 q 321 320 269 222 q 458 480 373 419 q 571 526 521 526 q 632 507 607 526 q 664 451 656 488 l 682 510 l 768 522 m 577 500 q 494 457 536 500 q 388 286 432 394 q 356 160 356 208 q 376 104 356 125 q 419 82 395 82 q 485 106 451 82 q 559 180 520 130 q 614 280 597 230 q 645 421 645 367 q 625 479 645 457 q 577 500 605 500 "},"¾":{"x_min":71.21875,"x_max":782.671875,"ha":838,"o":"m 149 568 l 149 582 q 269 623 231 592 q 293 669 293 642 q 280 704 293 690 q 244 717 266 717 q 184 677 212 717 l 161 683 q 269 755 198 755 q 336 733 311 755 q 361 681 361 712 q 343 636 361 657 q 269 590 320 609 q 331 501 331 561 q 281 399 331 445 q 152 354 230 354 q 85 368 107 354 q 71 389 71 378 q 80 408 71 400 q 106 417 90 417 q 147 404 122 417 q 204 387 183 387 q 240 408 223 387 q 262 475 262 437 q 234 540 262 514 q 149 568 206 566 m 718 755 l 208 -29 l 159 -29 l 670 755 l 718 755 m 782 362 l 694 111 l 751 111 l 737 71 l 684 71 l 650 -29 l 593 -29 l 627 71 l 465 71 l 481 114 l 746 362 l 782 362 m 694 273 l 524 111 l 640 111 l 694 273 "},"i":{"x_min":48.15625,"x_max":304.515625,"ha":311,"o":"m 250 710 q 288 694 273 710 q 304 656 304 678 q 288 617 304 634 q 250 601 272 601 q 211 617 227 601 q 195 656 195 634 q 211 694 195 678 q 250 710 227 710 m 257 494 l 149 111 q 138 65 138 72 q 143 50 138 56 q 155 45 148 45 q 174 54 164 45 q 238 124 206 78 l 257 111 q 169 15 219 54 q 99 -12 132 -12 q 62 0 76 -12 q 48 33 48 13 q 61 101 48 54 l 132 345 q 149 421 149 405 q 141 440 149 432 q 118 448 132 448 q 68 442 106 448 l 68 463 l 257 494 "},"m":{"x_min":18.984375,"x_max":758.9375,"ha":808,"o":"m 242 494 l 171 247 q 252 378 219 334 q 353 476 303 446 q 413 494 382 494 q 459 476 440 494 q 477 432 477 459 q 464 362 477 404 l 425 223 q 594 457 514 389 q 681 494 638 494 q 722 477 706 494 q 739 423 739 459 q 729 356 739 392 l 669 144 q 649 67 649 74 q 654 54 649 59 q 663 50 657 50 q 682 60 668 50 q 740 124 713 84 l 758 112 q 710 52 745 90 q 651 0 676 14 q 606 -12 626 -12 q 574 0 586 -12 q 561 31 561 12 q 583 137 561 58 l 633 312 q 651 379 650 373 q 653 400 653 390 q 647 421 653 413 q 632 429 640 429 q 583 405 609 429 q 442 211 507 336 q 362 0 399 128 l 279 0 l 373 330 q 387 401 387 383 q 382 423 387 416 q 367 430 376 430 q 328 417 349 430 q 244 326 296 396 q 164 192 193 256 q 99 0 151 162 l 18 0 l 120 354 l 132 399 q 137 415 137 410 q 126 436 137 427 q 98 446 115 446 q 59 439 90 446 l 54 459 l 242 494 "},"ž":{"x_min":-31.203125,"x_max":461.46875,"ha":435,"o":"m 93 480 l 440 480 l 440 467 l 63 73 l 222 73 q 294 78 279 73 q 322 96 309 82 q 351 148 335 111 l 371 148 l 324 0 l -31 0 l -31 15 l 346 408 l 189 408 q 129 406 139 408 q 99 388 113 402 q 68 343 84 375 l 47 343 l 93 480 m 209 584 l 168 757 l 180 757 l 272 647 l 446 757 l 461 757 l 291 584 l 209 584 "},"ௗ":{"x_min":128.859375,"x_max":1180.109375,"ha":1089,"o":"m 400 189 q 359 264 400 264 q 310 233 328 264 q 291 166 291 202 q 318 81 291 103 q 377 114 355 83 q 400 189 400 146 m 1053 488 l 956 0 l 847 0 l 945 488 l 782 488 l 685 0 l 576 0 l 626 257 q 631 302 631 282 q 577 444 631 386 q 440 501 524 501 q 257 422 331 501 q 183 230 183 342 q 203 143 183 177 q 264 94 223 109 q 244 183 244 132 q 285 288 244 244 q 386 332 326 332 q 473 291 438 332 q 508 196 508 251 q 458 58 508 116 q 332 0 407 0 q 187 68 245 0 q 128 230 128 137 q 219 460 128 364 q 440 556 309 556 q 620 494 552 556 q 701 339 689 432 l 741 542 l 1180 542 l 1166 488 l 1053 488 "},"á":{"x_min":26.453125,"x_max":524.9375,"ha":559,"o":"m 524 494 l 418 124 l 406 73 q 404 62 404 67 q 410 46 404 53 q 421 42 414 42 q 439 50 427 42 q 496 115 460 66 l 514 103 q 437 16 477 46 q 363 -12 397 -12 q 328 -1 340 -12 q 316 32 316 10 q 328 103 316 59 l 340 144 q 208 13 268 50 q 124 -12 165 -12 q 55 20 84 -12 q 26 110 26 52 q 78 294 26 197 q 210 448 130 390 q 328 494 273 494 q 384 476 362 494 q 418 418 406 459 l 438 480 l 524 494 m 330 465 q 256 432 295 465 q 156 295 200 386 q 113 130 113 204 q 131 71 113 93 q 174 50 150 50 q 303 138 233 50 q 397 377 397 255 q 379 444 397 423 q 330 465 361 465 m 496 765 l 336 577 l 317 577 l 373 765 l 496 765 "},"×":{"x_min":206.1875,"x_max":654.484375,"ha":755,"o":"m 206 179 l 398 371 l 206 564 l 238 595 l 430 403 l 623 595 l 653 564 l 461 372 l 654 179 l 623 147 l 430 340 l 237 147 l 206 179 "},"K":{"x_min":-29.84375,"x_max":814.546875,"ha":746,"o":"m 356 421 l 540 137 q 621 41 589 62 q 706 20 653 20 l 700 0 l 385 0 l 389 20 q 442 37 427 23 q 458 70 458 52 q 453 102 458 86 q 421 155 448 113 l 271 390 l 198 145 q 180 66 180 86 q 196 34 180 46 q 271 20 211 23 l 262 0 l -29 0 l -23 20 q 34 27 19 21 q 66 52 56 37 q 101 145 80 75 l 231 592 q 246 675 246 644 q 232 708 246 697 q 178 720 219 720 l 167 720 l 174 740 l 452 740 l 446 720 q 395 712 412 720 q 360 682 371 701 q 328 592 349 664 l 271 402 l 534 600 q 603 663 586 640 q 613 689 613 677 q 602 708 613 698 q 572 720 592 717 l 577 740 l 814 740 l 809 720 q 744 702 771 713 q 690 673 718 692 q 583 592 681 668 l 356 421 "},"7":{"x_min":126.828125,"x_max":585.3125,"ha":559,"o":"m 217 740 l 585 740 l 585 721 l 170 -12 l 126 6 l 489 653 l 314 653 q 215 640 241 653 q 153 577 188 628 l 130 577 l 217 740 "},"¨":{"x_min":146.5,"x_max":457.796875,"ha":372,"o":"m 398 731 q 440 714 423 731 q 457 672 457 697 q 440 631 457 648 q 398 614 423 614 q 357 631 375 614 q 340 672 340 648 q 357 714 340 697 q 398 731 374 731 m 204 731 q 246 714 229 731 q 263 672 263 697 q 246 631 263 648 q 204 614 229 614 q 163 631 180 614 q 146 672 146 648 q 163 714 146 697 q 204 731 180 731 "},"Y":{"x_min":100.375,"x_max":746.046875,"ha":622,"o":"m 390 393 l 531 590 q 586 689 586 668 q 574 709 586 701 q 507 720 562 716 l 513 740 l 746 740 l 741 720 q 695 710 707 715 q 656 685 675 702 q 581 594 630 661 l 400 345 l 345 162 q 326 67 326 93 q 332 41 326 50 q 354 27 338 32 q 417 20 375 21 l 412 0 l 100 0 l 107 20 q 168 27 153 21 q 205 54 193 37 q 243 144 223 79 l 308 360 l 229 615 q 190 699 208 683 q 128 720 172 716 l 133 740 l 407 740 l 400 720 q 342 713 349 716 q 322 698 330 710 q 314 671 314 687 q 330 594 314 649 l 390 393 "},"E":{"x_min":-25.09375,"x_max":706.703125,"ha":683,"o":"m 362 700 l 277 407 l 346 407 q 454 430 421 407 q 511 514 487 453 l 531 514 l 455 245 l 434 245 q 443 303 443 279 q 434 341 443 326 q 407 362 424 355 q 337 368 391 368 l 267 368 l 196 124 q 185 69 185 88 q 199 44 185 55 q 245 37 208 37 l 311 37 q 481 74 417 37 q 596 205 545 112 l 617 205 l 547 0 l -25 0 l -18 20 q 39 27 24 21 q 71 52 61 37 q 105 147 85 75 l 236 593 q 250 676 250 647 q 236 708 250 696 q 180 720 222 720 l 168 720 l 174 740 l 706 740 l 661 561 l 640 561 q 644 603 644 586 q 630 652 644 632 q 576 690 611 677 q 455 700 550 700 l 362 700 "},"Ô":{"x_min":66.46875,"x_max":802.34375,"ha":808,"o":"m 550 757 q 681 725 624 757 q 770 630 737 693 q 802 501 802 568 q 733 251 802 382 q 553 51 664 120 q 322 -16 441 -16 q 179 21 236 -16 q 94 121 122 59 q 66 242 66 183 q 116 446 66 345 q 236 616 166 548 q 383 720 305 684 q 550 757 462 757 m 532 722 q 425 695 477 722 q 322 606 373 668 q 229 446 270 545 q 179 215 179 323 q 219 77 179 137 q 341 18 259 18 q 439 42 391 18 q 539 126 486 67 q 648 317 603 201 q 692 533 692 433 q 652 665 692 608 q 532 722 612 722 m 665 965 l 706 792 l 694 792 l 602 903 l 428 792 l 413 792 l 583 965 l 665 965 "},"ீ":{"x_min":268.578125,"x_max":648.375,"ha":627,"o":"m 431 827 q 354 795 386 827 q 322 718 322 763 q 348 623 322 668 q 425 542 374 579 l 351 542 q 289 619 309 575 q 268 718 268 663 q 324 838 268 789 q 463 888 379 888 q 594 844 539 888 q 648 732 648 800 q 616 655 648 687 q 539 623 585 623 q 444 659 484 623 q 404 746 404 694 q 431 827 404 794 m 486 822 q 458 746 458 799 q 476 702 458 719 q 522 685 493 685 q 573 732 573 685 q 549 792 573 767 q 486 822 524 817 "},"‹":{"x_min":63.078125,"x_max":348.609375,"ha":372,"o":"m 348 502 l 162 242 l 222 -16 l 199 -16 l 63 242 l 318 502 l 348 502 "},"௹":{"x_min":154.640625,"x_max":1135.34375,"ha":1062,"o":"m 963 661 q 850 705 911 691 q 735 718 790 718 q 352 544 495 718 q 208 149 208 369 q 285 -149 208 -54 q 495 -244 362 -244 q 738 -126 641 -244 q 834 149 834 -8 q 813 235 834 198 q 756 272 791 272 q 714 260 735 272 q 688 230 693 248 l 642 0 l 533 0 l 631 488 l 471 488 l 373 0 l 322 0 l 430 542 l 841 542 l 828 488 l 739 488 l 701 298 q 790 339 735 339 q 901 285 859 339 q 943 149 943 232 q 815 -167 943 -36 q 502 -298 687 -298 q 247 -183 339 -298 q 154 142 154 -68 q 315 589 154 391 q 754 786 476 786 q 1021 714 906 786 q 1135 527 1135 641 q 1099 422 1135 465 q 1008 378 1062 378 q 926 416 960 378 q 893 508 893 455 q 963 661 893 596 m 994 634 q 939 508 938 589 q 953 468 939 484 q 988 453 967 453 q 1027 475 1012 453 q 1043 527 1043 497 q 994 634 1043 597 "},"Ï":{"x_min":-35.265625,"x_max":498.796875,"ha":372,"o":"m 276 20 l 269 0 l -35 0 l -27 20 q 33 27 18 21 q 68 53 57 37 q 105 145 86 79 l 234 592 q 250 676 250 647 q 243 700 250 690 q 222 715 236 710 q 166 720 208 720 l 172 740 l 458 740 l 452 720 q 400 712 417 720 q 363 681 376 701 q 330 592 350 661 l 202 145 q 184 66 184 83 q 191 43 184 52 q 212 28 198 33 q 276 20 227 23 m 439 934 q 481 917 464 934 q 498 875 498 900 q 481 834 498 851 q 439 817 464 817 q 398 834 416 817 q 381 875 381 851 q 398 917 381 900 q 439 934 415 934 m 245 934 q 287 917 270 934 q 304 875 304 900 q 287 834 304 851 q 245 817 270 817 q 204 834 221 817 q 187 875 187 851 q 204 917 187 900 q 245 934 221 934 "},"௩":{"x_min":293,"x_max":984.78125,"ha":1104,"o":"m 984 54 l 971 0 l 496 0 l 510 54 l 604 54 q 729 100 677 54 q 781 217 781 147 q 761 265 781 246 q 713 284 742 284 q 670 263 690 284 q 645 217 651 242 l 632 149 l 523 149 l 591 488 l 442 488 l 344 0 l 293 0 l 401 542 l 849 542 l 835 488 l 699 488 l 666 311 q 767 352 712 352 q 854 312 819 352 q 889 217 889 271 q 845 116 889 161 q 733 54 800 72 l 984 54 "},"±":{"x_min":29.15625,"x_max":617.859375,"ha":614,"o":"m 29 77 l 29 121 l 301 121 l 301 349 l 29 349 l 29 394 l 301 394 l 301 665 l 344 665 l 344 394 l 617 394 l 617 349 l 344 349 l 344 121 l 617 121 l 617 77 l 29 77 "},"ì":{"x_min":48.15625,"x_max":308.40625,"ha":311,"o":"m 257 494 l 149 111 q 138 65 138 72 q 143 50 138 56 q 155 45 148 45 q 174 54 164 45 q 238 124 206 78 l 257 111 q 169 15 219 54 q 99 -12 132 -12 q 62 0 76 -12 q 48 33 48 13 q 61 101 48 54 l 132 345 q 149 421 149 405 q 141 440 149 432 q 118 448 132 448 q 68 442 106 448 l 68 463 l 257 494 m 249 765 l 308 577 l 291 577 l 128 765 l 249 765 "},"|":{"x_min":129.546875,"x_max":174.984375,"ha":307,"o":"m 174 776 l 174 -241 l 129 -241 l 129 776 l 174 776 "},"§":{"x_min":-2.03125,"x_max":569.703125,"ha":559,"o":"m 297 418 q 249 499 261 465 q 236 571 236 533 q 290 708 236 653 q 421 763 344 763 q 526 726 483 763 q 569 649 569 688 q 556 617 569 632 q 531 606 547 606 q 504 617 514 606 q 489 666 495 628 q 464 718 482 704 q 402 740 437 740 q 320 705 356 740 q 284 619 284 669 q 300 543 284 577 q 376 444 316 510 q 457 327 435 379 q 472 250 472 292 q 433 149 472 189 q 337 109 394 109 q 284 121 314 109 q 337 32 323 67 q 350 -37 350 -1 q 295 -171 350 -116 q 160 -227 240 -227 q 43 -187 88 -227 q -2 -99 -2 -147 q 9 -66 -2 -79 q 34 -53 21 -53 q 62 -66 49 -53 q 81 -115 75 -80 q 113 -183 88 -162 q 177 -205 138 -205 q 264 -170 227 -205 q 301 -85 301 -135 q 287 -14 301 -48 q 231 68 272 20 q 133 199 152 160 q 114 284 114 238 q 152 386 114 347 q 252 424 191 424 q 297 418 271 424 m 247 405 q 188 381 212 405 q 164 326 164 358 q 222 191 164 255 q 339 128 281 128 q 393 152 370 128 q 417 209 417 176 q 389 305 417 257 q 322 379 362 354 q 247 405 282 405 "},"ட":{"x_min":122.078125,"x_max":1071.59375,"ha":1073,"o":"m 1058 0 l 122 0 l 230 542 l 339 542 l 241 54 l 1071 54 l 1058 0 "},"q":{"x_min":24.421875,"x_max":530.375,"ha":559,"o":"m 530 494 l 351 -122 q 339 -177 339 -165 q 345 -199 339 -189 q 362 -212 352 -208 q 407 -219 379 -219 l 401 -239 l 140 -239 l 145 -219 q 212 -209 199 -214 q 246 -182 233 -201 q 276 -105 259 -164 l 351 164 q 217 16 279 59 q 134 -13 172 -13 q 52 30 80 -13 q 24 127 24 75 q 75 300 24 209 q 208 448 126 390 q 326 494 273 494 q 389 475 364 494 q 427 415 415 456 l 444 476 l 530 494 m 405 387 q 384 444 405 422 q 331 467 362 467 q 191 352 265 467 q 118 136 118 238 q 136 74 118 95 q 180 52 154 52 q 256 90 214 52 q 362 234 320 146 q 405 387 405 322 "},"b":{"x_min":29.15625,"x_max":524.9375,"ha":559,"o":"m 322 776 l 215 398 q 306 474 267 453 q 387 494 345 494 q 486 454 448 494 q 524 345 524 414 q 474 171 524 258 q 348 35 423 84 q 198 -12 272 -12 q 29 48 115 -12 l 195 619 q 214 697 214 686 q 205 718 214 712 q 168 729 193 729 q 133 725 157 729 l 133 746 l 322 776 m 111 42 q 207 12 166 12 q 307 47 255 12 q 396 166 358 82 q 434 335 434 250 q 409 413 434 385 q 351 442 385 442 q 251 401 300 442 q 182 288 202 360 l 111 42 "},"®":{"x_min":75.96875,"x_max":850.484375,"ha":850,"o":"m 463 757 q 653 707 560 757 q 798 564 746 657 q 850 370 850 471 q 799 177 850 269 q 655 34 748 85 q 463 -16 563 -16 q 270 34 362 -16 q 127 177 178 85 q 75 370 75 269 q 128 564 75 471 q 272 707 180 657 q 463 757 365 757 m 463 723 q 289 677 373 723 q 157 547 204 632 q 109 370 109 462 q 156 194 109 278 q 286 63 202 110 q 463 16 370 16 q 639 63 554 16 q 770 194 723 110 q 816 370 816 278 q 769 547 816 462 q 637 677 721 632 q 463 723 552 723 m 248 608 l 459 608 q 580 572 539 608 q 621 485 621 536 q 593 413 621 444 q 500 364 565 381 l 614 202 q 651 162 635 172 q 680 153 661 155 l 680 135 l 580 135 l 419 356 l 378 356 l 378 188 q 394 162 381 170 q 442 153 406 153 l 442 135 l 242 135 l 242 153 q 279 160 268 153 q 295 178 290 166 q 299 229 299 187 l 299 514 q 297 562 299 555 q 283 581 293 575 q 248 588 273 588 l 248 608 m 378 380 q 472 393 442 380 q 518 428 502 405 q 533 480 533 451 q 502 554 533 524 q 423 583 472 583 q 378 575 403 583 l 378 380 "},"।":{"x_min":124.109375,"x_max":454.40625,"ha":579,"o":"m 243 -72 l 124 -72 l 335 942 l 454 942 l 243 -72 "},"௳":{"x_min":127.5,"x_max":1024.796875,"ha":1051,"o":"m 398 176 q 385 223 398 202 q 351 244 372 244 q 307 219 324 244 q 290 162 290 195 q 317 67 290 117 q 376 101 354 69 q 398 176 398 133 m 1014 0 l 520 0 q 656 271 656 113 q 585 425 656 362 q 419 488 515 488 q 250 413 319 488 q 181 230 181 338 q 202 131 181 172 q 263 67 222 90 q 236 162 236 113 q 279 268 236 225 q 385 311 322 311 q 472 271 436 311 q 507 176 507 231 q 456 51 507 103 q 330 0 404 0 q 185 68 244 0 q 127 230 127 137 q 220 460 127 365 q 446 556 312 556 q 670 474 575 556 q 765 271 765 392 q 683 54 765 152 l 1024 54 l 1014 0 "},"ை":{"x_min":118.015625,"x_max":1177.390625,"ha":1202,"o":"m 416 162 q 399 210 416 190 q 355 230 382 230 q 309 213 324 230 q 294 162 294 196 q 320 67 294 113 q 392 99 368 75 q 416 162 416 123 m 778 183 q 760 279 778 226 q 716 367 742 333 q 661 281 679 328 q 642 176 642 233 q 661 110 642 139 q 710 81 680 81 q 760 111 741 81 q 778 183 778 141 m 1001 27 q 1051 141 1034 76 q 1068 284 1068 205 q 1024 417 1068 360 q 912 474 980 474 q 790 427 847 474 q 863 311 838 373 q 887 183 887 250 q 846 52 887 105 q 737 0 805 0 q 630 51 672 0 q 588 176 588 102 q 612 303 588 244 q 685 409 636 361 q 510 474 617 474 q 261 401 349 474 q 172 217 172 327 q 198 124 172 165 q 267 67 223 82 q 240 162 240 113 q 281 270 240 229 q 389 311 323 311 q 475 276 440 311 q 511 189 511 240 q 456 55 511 110 q 321 0 400 0 q 177 64 236 0 q 118 217 118 128 q 230 448 118 354 q 510 542 342 542 q 746 469 637 542 q 919 542 834 542 q 1102 467 1027 542 q 1177 284 1177 392 q 1140 134 1177 205 q 1028 0 1102 63 l 1001 27 "},"L":{"x_min":-35.953125,"x_max":584.625,"ha":622,"o":"m 512 0 l -35 0 l -28 20 q 29 27 15 21 q 63 52 52 37 q 99 143 80 78 l 230 594 q 246 676 246 649 q 231 708 246 696 q 174 719 217 719 q 160 720 166 719 l 166 740 l 468 740 l 464 720 q 392 710 413 720 q 356 678 370 700 q 324 586 347 663 l 196 143 q 181 73 181 93 q 196 48 181 60 q 238 40 205 40 l 309 40 q 434 60 387 40 q 496 104 467 74 q 550 185 511 120 l 564 210 l 584 210 l 512 0 "}," ":{"x_min":0,"x_max":0,"ha":279},"À":{"x_min":-54.9375,"x_max":652.40625,"ha":683,"o":"m 575 757 l 519 141 q 515 84 515 98 q 523 51 515 63 q 551 27 533 35 q 611 20 569 20 l 605 0 l 314 0 l 320 20 l 332 20 q 390 35 368 20 q 415 69 406 46 q 426 149 421 86 l 435 243 l 223 243 l 147 141 q 115 92 122 107 q 109 63 109 77 q 123 33 109 46 q 170 20 137 21 l 164 0 l -54 0 l -48 20 q 22 47 -8 21 q 114 155 53 72 l 556 757 l 575 757 m 467 575 l 253 283 l 439 283 l 467 575 m 593 983 l 652 795 l 635 795 l 472 983 l 593 983 "},"௷":{"x_min":134.28125,"x_max":1469.703125,"ha":1516,"o":"m 781 488 l 473 488 q 273 418 358 488 q 188 244 188 349 q 205 150 188 191 q 256 81 222 109 q 242 176 242 104 q 289 300 242 248 q 405 352 335 352 q 497 308 461 352 q 534 203 534 263 q 481 60 534 120 q 351 0 429 0 q 196 72 258 0 q 134 244 134 145 q 235 457 134 372 q 473 542 336 542 l 1031 542 l 1018 488 l 889 488 l 851 298 q 917 305 878 303 q 984 307 948 307 q 996 321 990 314 q 1176 400 1071 400 q 1325 352 1276 400 q 1374 239 1374 305 q 1358 152 1374 193 q 1306 54 1342 111 l 1469 54 l 1459 0 l 1237 0 l 1237 27 q 1279 116 1259 63 q 1300 233 1300 169 q 1265 320 1300 288 q 1175 352 1230 352 q 1048 305 1100 352 q 1150 260 1116 296 q 1190 147 1197 213 q 1146 47 1190 96 q 1042 -1 1102 -1 q 955 37 988 -1 q 922 141 922 77 q 950 257 922 203 q 916 254 934 256 q 842 242 865 249 l 792 0 l 683 0 l 781 488 m 1069 232 q 1009 259 1041 256 q 976 139 976 206 q 992 75 976 97 q 1036 53 1008 53 q 1084 85 1066 53 q 1102 154 1102 117 q 1069 232 1102 206 m 432 176 q 417 232 432 208 q 378 257 402 257 q 320 229 343 257 q 297 162 297 201 q 310 67 297 104 q 396 99 360 67 q 432 176 432 130 "},"+":{"x_min":103.765625,"x_max":692.46875,"ha":755,"o":"m 375 77 l 375 349 l 103 349 l 103 394 l 375 394 l 375 665 l 419 665 l 419 394 l 692 394 l 692 349 l 419 349 l 419 77 l 375 77 "},"ண":{"x_min":118.015625,"x_max":1654.859375,"ha":1559,"o":"m 416 162 q 399 210 416 190 q 355 230 382 230 q 309 213 324 230 q 294 162 294 196 q 320 67 294 113 q 392 99 368 75 q 416 162 416 123 m 778 183 q 760 279 778 226 q 716 367 742 333 q 661 281 679 328 q 642 176 642 233 q 661 110 642 139 q 710 81 680 81 q 760 111 741 81 q 778 183 778 141 m 1152 183 q 1133 281 1152 225 q 1090 367 1115 337 q 1035 283 1053 330 q 1017 176 1017 235 q 1035 110 1017 139 q 1085 81 1054 81 q 1134 111 1116 81 q 1152 183 1152 141 m 1654 542 l 1641 488 l 1523 488 l 1424 0 l 1315 0 l 1414 488 l 1356 488 q 1166 434 1238 488 q 1237 315 1214 378 q 1261 183 1261 252 q 1220 52 1261 105 q 1112 0 1179 0 q 1004 51 1046 0 q 963 176 963 102 q 987 304 963 245 q 1060 411 1011 362 q 933 474 1007 474 q 790 427 854 474 q 863 311 838 373 q 887 183 887 250 q 846 52 887 105 q 737 0 805 0 q 630 51 672 0 q 588 176 588 102 q 612 303 588 244 q 685 409 636 361 q 510 474 617 474 q 261 401 349 474 q 172 217 172 327 q 198 124 172 165 q 267 67 223 82 q 240 162 240 113 q 281 270 240 229 q 389 311 323 311 q 475 276 440 311 q 511 189 511 240 q 456 55 511 110 q 321 0 400 0 q 177 64 236 0 q 118 217 118 128 q 230 448 118 354 q 510 542 342 542 q 746 469 637 542 q 937 542 834 542 q 1132 469 1042 542 q 1356 542 1225 542 l 1654 542 "},"½":{"x_min":88.171875,"x_max":769.109375,"ha":838,"o":"m 698 755 l 188 -29 l 139 -29 l 650 755 l 698 755 m 339 755 l 233 435 q 225 398 225 410 q 230 385 225 388 q 257 379 237 379 q 273 378 263 379 l 267 361 l 88 361 l 95 378 q 143 386 133 379 q 171 440 157 397 l 246 664 q 254 698 254 689 q 249 710 254 706 q 237 714 245 714 q 206 710 229 714 l 200 726 l 339 755 m 686 -23 l 457 -23 l 457 -8 q 678 190 626 118 q 701 256 701 222 q 683 302 701 284 q 635 320 666 320 q 594 310 611 320 q 561 280 577 301 l 541 288 q 591 348 558 326 q 664 370 623 370 q 739 343 710 370 q 769 279 769 316 q 760 239 769 261 q 720 182 751 218 q 639 104 689 147 l 539 23 l 636 23 q 699 59 685 23 l 725 59 l 686 -23 "},"Ë":{"x_min":-25.09375,"x_max":706.703125,"ha":683,"o":"m 362 700 l 277 407 l 346 407 q 454 430 421 407 q 511 514 487 453 l 531 514 l 455 245 l 434 245 q 443 303 443 279 q 434 341 443 326 q 407 362 424 355 q 337 368 391 368 l 267 368 l 196 124 q 185 69 185 88 q 199 44 185 55 q 245 37 208 37 l 311 37 q 481 74 417 37 q 596 205 545 112 l 617 205 l 547 0 l -25 0 l -18 20 q 39 27 24 21 q 71 52 61 37 q 105 147 85 75 l 236 593 q 250 676 250 647 q 236 708 250 696 q 180 720 222 720 l 168 720 l 174 740 l 706 740 l 661 561 l 640 561 q 644 603 644 586 q 630 652 644 632 q 576 690 611 677 q 455 700 550 700 l 362 700 m 581 934 q 623 917 606 934 q 640 875 640 900 q 623 834 640 851 q 581 817 606 817 q 540 834 558 817 q 523 875 523 851 q 540 917 523 900 q 581 934 557 934 m 387 934 q 429 917 412 934 q 446 875 446 900 q 429 834 446 851 q 387 817 412 817 q 346 834 363 817 q 329 875 329 851 q 346 917 329 900 q 387 934 363 934 "},"'":{"x_min":147.171875,"x_max":292.3125,"ha":239,"o":"m 147 438 l 164 600 q 177 693 170 668 q 207 742 188 727 q 249 757 225 757 q 280 746 269 757 q 292 718 292 735 q 286 690 292 706 q 246 599 279 670 l 170 438 l 147 438 "},"Š":{"x_min":7.453125,"x_max":610.46875,"ha":559,"o":"m 7 -16 l 68 257 l 87 257 q 83 191 83 217 q 131 69 83 116 q 256 23 179 23 q 364 66 327 23 q 401 168 401 110 q 385 236 401 205 q 247 395 359 281 q 178 476 193 449 q 153 569 153 520 q 211 702 153 647 q 359 757 269 757 q 417 751 390 757 q 479 729 434 748 q 514 715 510 716 q 531 714 522 714 q 558 722 547 714 q 585 757 569 730 l 606 757 l 549 511 l 530 511 q 533 564 533 544 q 489 672 533 630 q 373 714 445 714 q 281 681 317 714 q 246 604 246 648 q 268 531 246 566 q 373 418 291 497 q 478 296 455 340 q 502 202 502 252 q 473 93 502 146 q 387 11 443 40 q 265 -16 331 -16 q 204 -10 233 -16 q 113 18 176 -4 q 78 26 92 26 q 28 -16 46 26 l 7 -16 m 358 792 l 317 965 l 329 965 l 421 855 l 595 965 l 610 965 l 440 792 l 358 792 "},"ð":{"x_min":29.84375,"x_max":538.515625,"ha":559,"o":"m 379 644 l 259 579 l 244 606 l 366 671 q 314 757 341 720 l 330 773 q 403 691 373 732 l 523 757 l 538 729 l 422 667 q 496 511 472 583 q 519 360 519 438 q 471 166 519 256 q 348 32 423 77 q 198 -12 273 -12 q 78 36 127 -12 q 29 164 29 86 q 76 317 29 236 q 200 446 122 398 q 337 494 277 494 q 382 485 363 494 q 422 452 401 476 q 411 548 420 509 q 379 644 402 588 m 334 465 q 255 432 295 465 q 161 299 202 388 q 120 122 120 210 q 147 42 120 70 q 212 13 173 13 q 295 49 253 13 q 387 194 349 98 q 425 361 425 290 q 399 437 425 409 q 334 465 373 465 "},"ஈ":{"x_min":122.078125,"x_max":854.5625,"ha":787,"o":"m 854 542 l 843 488 l 637 488 l 539 0 l 431 0 l 529 488 l 271 488 l 173 0 l 122 0 l 230 542 l 854 542 m 732 203 q 684 223 704 203 q 664 271 664 242 q 684 319 664 300 q 732 339 704 339 q 780 319 761 339 q 800 271 800 300 q 780 223 800 242 q 732 203 761 203 m 366 203 q 318 223 337 203 q 298 271 298 242 q 318 319 298 300 q 366 339 337 339 q 414 319 395 339 q 434 271 434 300 q 414 223 434 242 q 366 203 395 203 "},"௴":{"x_min":122.078125,"x_max":1251.328125,"ha":1255,"o":"m 122 0 l 230 542 l 339 542 l 241 54 l 526 54 l 596 406 q 646 504 609 466 q 732 542 683 542 l 735 542 q 653 698 653 609 q 699 820 653 772 q 815 868 744 868 q 875 861 848 868 q 971 888 917 888 q 1084 834 1044 888 q 1125 714 1125 779 q 1114 627 1125 668 q 1081 542 1103 585 l 1251 542 l 1241 488 l 1011 488 l 1011 515 q 1052 601 1034 551 q 1070 714 1070 651 q 1044 805 1070 769 q 970 840 1018 840 q 930 836 948 840 q 943 825 937 830 q 988 721 988 783 q 960 642 988 675 q 889 610 931 610 q 815 642 842 610 q 789 718 789 674 q 829 819 789 771 q 814 820 822 820 q 736 786 765 820 q 708 698 708 752 q 836 518 708 596 q 916 448 881 494 q 990 230 990 355 q 940 70 990 140 q 813 0 891 0 l 122 0 m 935 230 q 895 398 935 322 q 786 474 855 474 q 733 454 756 474 q 705 406 710 433 l 634 54 l 813 54 q 902 108 868 54 q 935 230 935 162 m 874 803 q 843 718 843 766 q 855 679 843 694 q 889 664 868 664 q 923 680 912 664 q 934 721 934 697 q 898 794 934 769 q 877 807 889 802 q 874 803 875 805 "},"ı":{"x_min":48.15625,"x_max":257.046875,"ha":311,"o":"m 257 494 l 149 111 q 138 65 138 72 q 143 50 138 56 q 155 45 148 45 q 174 54 164 45 q 238 124 206 78 l 257 111 q 169 15 219 54 q 99 -12 132 -12 q 62 0 76 -12 q 48 33 48 13 q 61 101 48 54 l 132 345 q 149 421 149 405 q 141 440 149 432 q 118 448 132 448 q 68 442 106 448 l 68 463 l 257 494 "},"ä":{"x_min":26.453125,"x_max":552.796875,"ha":559,"o":"m 524 494 l 418 124 l 406 73 q 404 62 404 67 q 410 46 404 53 q 421 42 414 42 q 439 50 427 42 q 496 115 460 66 l 514 103 q 437 16 477 46 q 363 -12 397 -12 q 328 -1 340 -12 q 316 32 316 10 q 328 103 316 59 l 340 144 q 208 13 268 50 q 124 -12 165 -12 q 55 20 84 -12 q 26 110 26 52 q 78 294 26 197 q 210 448 130 390 q 328 494 273 494 q 384 476 362 494 q 418 418 406 459 l 438 480 l 524 494 m 330 465 q 256 432 295 465 q 156 295 200 386 q 113 130 113 204 q 131 71 113 93 q 174 50 150 50 q 303 138 233 50 q 397 377 397 255 q 379 444 397 423 q 330 465 361 465 m 493 731 q 535 714 518 731 q 552 672 552 697 q 535 631 552 648 q 493 614 518 614 q 452 631 470 614 q 435 672 435 648 q 452 714 435 697 q 493 731 469 731 m 299 731 q 341 714 324 731 q 358 672 358 697 q 341 631 358 648 q 299 614 324 614 q 258 631 275 614 q 241 672 241 648 q 258 714 241 697 q 299 731 275 731 "},"¹":{"x_min":88.84375,"x_max":340.46875,"ha":335,"o":"m 340 755 l 234 435 q 225 398 225 410 q 231 385 225 388 q 259 379 238 379 q 274 378 264 379 l 268 361 l 88 361 l 96 378 q 144 386 134 379 q 172 440 158 397 l 247 664 q 255 698 255 689 q 251 710 255 706 q 238 714 246 714 q 208 710 231 714 l 200 726 l 340 755 "},"£":{"x_min":26.453125,"x_max":586.65625,"ha":559,"o":"m 314 404 l 461 404 l 448 358 l 303 358 q 229 122 273 225 q 281 101 250 114 q 359 70 331 78 q 410 63 387 63 q 454 74 433 63 q 492 107 474 85 l 516 107 q 442 14 485 45 q 345 -16 400 -16 q 281 -3 311 -16 q 193 54 250 10 q 144 1 169 18 q 93 -16 119 -16 q 45 1 65 -16 q 26 48 26 19 q 57 113 26 85 q 134 141 88 141 q 153 140 142 141 q 176 138 164 139 q 204 358 187 196 l 78 358 l 91 404 l 211 404 q 333 691 257 612 q 480 755 395 755 q 557 729 528 755 q 586 668 586 703 q 572 632 586 646 q 539 618 558 618 q 502 635 517 618 q 486 674 494 644 q 474 710 479 704 q 446 724 461 724 q 408 706 425 724 q 359 606 382 680 q 314 404 349 572 m 158 79 q 130 92 143 88 q 107 96 117 96 q 70 82 86 96 q 55 48 55 67 q 66 20 55 31 q 90 8 76 8 q 126 24 108 8 q 158 79 144 40 "},"W":{"x_min":135.640625,"x_max":1055.3125,"ha":931,"o":"m 151 -16 l 215 600 q 219 654 219 635 q 201 702 219 686 q 135 720 183 718 l 141 740 l 419 740 l 413 720 q 337 700 357 720 q 309 600 316 679 l 267 200 l 549 634 q 550 653 550 645 q 532 699 550 683 q 454 720 514 716 l 458 740 l 758 740 l 752 720 q 682 711 700 719 q 660 692 669 705 q 645 646 651 678 q 632 519 644 636 q 597 200 620 402 l 831 556 q 879 638 869 614 q 889 678 889 661 q 876 705 889 693 q 831 720 863 716 l 835 740 l 1055 740 l 1049 720 q 998 706 1020 718 q 945 659 975 693 q 873 556 928 640 l 501 -16 l 481 -16 l 541 556 l 169 -16 l 151 -16 "},"ங":{"x_min":122.078125,"x_max":1020.046875,"ha":1034,"o":"m 1020 542 l 911 0 l 325 0 l 339 54 l 434 54 q 558 100 506 54 q 610 217 610 147 q 591 265 610 246 q 542 284 571 284 q 498 263 518 284 q 473 217 478 242 l 459 149 l 351 149 l 420 488 l 274 488 l 176 0 l 122 0 l 231 542 l 678 542 l 664 488 l 529 488 l 493 311 q 596 352 541 352 q 683 312 648 352 q 718 217 718 271 q 674 116 718 161 q 562 54 629 72 l 815 54 l 912 542 l 1020 542 "},"v":{"x_min":23.734375,"x_max":494.421875,"ha":496,"o":"m 23 460 l 181 494 q 208 411 198 453 q 233 265 223 349 q 244 85 237 222 q 326 178 313 160 q 409 293 398 276 q 434 343 427 322 q 440 375 440 360 q 415 407 440 389 q 389 449 389 426 q 403 480 389 466 q 436 494 417 494 q 477 475 459 494 q 494 428 494 456 q 485 375 494 400 q 433 274 472 333 q 307 113 394 214 q 186 -12 297 101 l 166 -12 q 111 418 153 332 q 66 446 98 446 q 27 440 52 446 l 23 460 "},">":{"x_min":82.0625,"x_max":669.40625,"ha":755,"o":"m 669 356 l 82 102 l 82 149 l 588 368 l 82 590 l 82 639 l 669 383 l 669 356 "},"û":{"x_min":32.5625,"x_max":526.296875,"ha":559,"o":"m 526 480 l 431 155 q 410 63 410 82 q 413 49 410 54 q 423 44 417 44 q 443 53 432 44 q 499 120 455 61 l 516 107 q 427 7 473 40 q 370 -12 398 -12 q 336 -1 348 -12 q 324 29 324 10 q 331 79 324 48 q 381 255 340 119 q 226 44 288 102 q 110 -12 164 -12 q 67 4 85 -12 q 50 48 50 21 q 73 174 50 89 l 122 343 q 139 418 139 403 q 134 429 139 424 q 124 434 130 434 q 101 425 113 434 q 49 365 90 417 l 32 377 q 119 470 73 440 q 183 494 154 494 q 217 481 204 494 q 229 448 229 468 q 208 343 229 418 l 156 166 q 135 75 135 94 q 142 58 135 65 q 160 52 149 52 q 207 70 178 52 q 284 150 236 88 q 364 266 333 212 q 431 439 396 320 l 443 480 l 526 480 m 450 757 l 491 584 l 479 584 l 387 695 l 213 584 l 198 584 l 368 757 l 450 757 "},"௮":{"x_min":155.984375,"x_max":1242.5,"ha":1106,"o":"m 657 488 q 519 425 577 474 q 461 311 461 376 q 494 226 461 262 q 576 189 528 189 q 669 239 632 189 q 705 352 705 288 q 657 488 705 449 m 793 108 l 318 108 q 276 97 295 108 q 257 67 257 86 q 319 -10 257 33 q 495 -54 380 -54 q 650 -13 575 -54 q 793 108 725 27 m 1096 -189 l 983 -189 l 1044 108 l 902 108 q 708 -49 813 3 q 481 -101 603 -101 q 241 -40 326 -101 q 155 94 155 21 q 180 143 155 124 q 237 162 204 162 l 515 162 q 437 220 467 179 q 406 311 406 261 q 504 478 406 413 q 725 542 602 542 q 906 480 828 542 q 983 325 983 419 q 940 162 983 238 l 1058 162 l 1133 542 l 1242 542 l 1096 -189 m 766 481 q 807 318 807 411 q 712 162 807 207 l 834 162 q 888 311 888 238 q 854 429 888 377 q 766 481 820 481 "},"Ð":{"x_min":-26.453125,"x_max":795.5625,"ha":808,"o":"m -26 0 l -21 18 q 23 22 18 21 q 54 37 39 26 q 73 61 65 46 q 103 144 85 82 l 169 369 l 71 369 l 84 410 l 181 410 l 235 594 q 250 670 250 648 q 234 705 250 691 q 166 718 217 718 l 172 740 l 412 740 q 635 706 564 740 q 751 596 707 671 q 795 438 795 521 q 770 298 795 367 q 713 188 744 229 q 628 105 682 147 q 478 24 555 48 q 284 0 400 0 l -26 0 m 362 700 l 278 410 l 480 410 l 469 369 l 267 369 l 202 144 q 183 67 183 80 q 188 51 183 59 q 204 40 194 43 q 250 35 218 35 q 410 53 336 35 q 531 106 484 71 q 638 244 598 157 q 678 442 678 332 q 615 637 678 572 q 433 701 552 701 q 362 700 404 701 "},"ஶ":{"x_min":140.390625,"x_max":1167.90625,"ha":1230,"o":"m 523 542 l 1167 542 l 1113 271 q 1018 74 1091 148 q 842 0 944 0 q 723 49 770 0 q 676 151 676 98 q 679 189 676 173 l 737 474 l 618 474 l 577 271 q 482 74 555 148 q 306 0 408 0 q 187 49 234 0 q 140 151 140 98 q 143 189 140 173 l 215 542 l 324 542 l 252 189 q 248 145 248 172 q 268 80 248 105 q 320 54 288 54 q 408 112 370 54 q 469 278 447 171 l 523 542 m 784 145 q 804 80 784 105 q 855 54 824 54 q 944 112 906 54 q 1005 278 983 171 l 1045 474 l 845 474 l 788 189 q 784 145 784 172 "},"r":{"x_min":23.0625,"x_max":452.375,"ha":435,"o":"m 58 463 l 246 494 l 168 228 q 341 457 263 392 q 413 494 385 494 q 442 483 432 494 q 452 452 452 472 q 434 383 452 416 q 396 359 421 359 q 374 367 383 359 q 363 392 365 375 q 358 406 362 402 q 348 410 354 410 q 330 406 339 410 q 287 363 316 398 q 189 225 242 309 q 149 143 166 189 q 124 68 127 81 l 106 0 l 23 0 l 124 339 q 141 423 141 398 q 132 439 141 432 q 104 448 122 448 q 62 443 92 448 l 58 463 "},"ஓ":{"x_min":118.015625,"x_max":945.4375,"ha":966,"o":"m 416 162 q 399 210 416 190 q 355 230 382 230 q 309 213 324 230 q 294 162 294 196 q 320 67 294 113 q 392 99 368 75 q 416 162 416 123 m 945 244 q 895 92 945 158 q 769 27 845 27 q 681 76 715 27 q 647 189 647 126 q 606 108 606 166 q 645 3 606 47 q 741 -40 684 -40 l 877 -40 l 864 -94 l 741 -94 q 670 -126 703 -94 q 619 -203 636 -157 q 537 -302 597 -265 q 402 -339 477 -339 q 262 -301 325 -339 q 199 -203 199 -264 q 235 -116 199 -152 q 321 -81 271 -81 q 407 -112 370 -81 q 443 -189 443 -143 q 389 -284 443 -252 q 478 -254 440 -284 q 524 -176 516 -223 q 559 -91 533 -129 q 619 -54 585 -54 q 552 94 552 2 q 602 237 552 177 q 728 298 652 298 q 701 189 701 265 q 719 123 701 152 q 769 94 738 94 q 818 133 800 94 q 836 217 836 171 q 743 401 836 328 q 524 474 649 474 q 279 403 387 474 q 172 217 172 331 q 198 124 172 165 q 267 67 223 82 q 240 162 240 113 q 281 270 240 229 q 389 311 323 311 q 475 276 440 311 q 511 189 511 240 q 456 55 511 110 q 321 0 400 0 q 177 64 236 0 q 118 217 118 128 q 241 450 118 358 q 524 542 364 542 q 816 459 687 542 q 945 244 945 376 m 389 -189 q 369 -141 389 -160 q 321 -122 350 -122 q 273 -141 293 -122 q 253 -189 253 -160 q 276 -251 253 -225 q 335 -284 299 -278 q 389 -189 389 -263 "},"x":{"x_min":-39.34375,"x_max":489,"ha":496,"o":"m 193 494 q 233 437 220 465 q 266 334 244 417 l 314 406 q 360 456 333 432 q 408 488 387 480 q 438 494 421 494 q 475 481 461 494 q 489 451 489 468 q 480 422 489 430 q 446 408 465 408 q 421 413 434 408 q 387 422 396 422 q 356 407 373 422 q 275 297 322 379 l 320 109 q 337 57 330 66 q 351 49 344 49 q 378 62 362 49 q 430 127 408 87 l 448 118 q 361 10 414 53 q 310 -12 331 -12 q 261 21 280 -12 q 214 204 250 42 q 78 14 129 56 q 13 -12 44 -12 q -26 2 -8 -12 q -39 35 -39 14 q -27 65 -39 52 q 2 77 -15 77 q 39 59 19 77 q 61 46 53 46 q 78 55 67 46 q 147 145 103 76 q 205 244 191 214 q 169 385 172 377 q 136 435 156 420 q 77 449 115 449 q 48 448 64 449 l 48 468 l 193 494 "},"è":{"x_min":35.265625,"x_max":480.859375,"ha":496,"o":"m 132 205 q 129 160 129 178 q 163 77 129 111 q 247 43 198 43 q 323 59 286 43 q 430 130 359 75 l 442 115 q 195 -12 312 -12 q 75 37 115 -12 q 35 147 35 87 q 85 314 35 229 q 211 446 135 399 q 367 494 286 494 q 453 470 425 494 q 480 415 480 446 q 444 328 480 369 q 305 240 397 274 q 132 205 244 218 m 137 232 q 268 264 217 242 q 369 336 335 294 q 402 415 402 377 q 388 452 402 438 q 347 466 373 466 q 229 407 291 466 q 137 232 166 348 m 369 765 l 428 577 l 411 577 l 248 765 l 369 765 "},"Ø":{"x_min":39.34375,"x_max":824.71875,"ha":808,"o":"m 722 695 l 794 770 l 824 740 l 750 664 q 803 501 803 585 q 732 253 803 382 q 548 53 662 124 q 323 -16 434 -16 q 152 44 227 -16 l 69 -39 l 39 -12 l 124 75 q 80 157 93 118 q 67 242 67 195 q 140 492 67 365 q 323 688 212 618 q 546 757 435 757 q 654 737 605 757 q 722 695 687 725 m 668 638 q 621 696 649 678 q 531 720 583 720 q 434 698 478 720 q 321 604 375 668 q 223 432 267 541 q 180 214 180 323 q 190 143 180 184 l 668 638 m 684 596 l 206 99 q 342 20 250 20 q 440 44 393 20 q 543 133 486 68 q 646 313 600 198 q 693 534 693 428 q 684 596 693 560 "},"÷":{"x_min":29.15625,"x_max":617.1875,"ha":614,"o":"m 323 586 q 357 572 343 586 q 370 539 370 558 q 357 505 370 519 q 322 491 343 491 q 289 505 303 491 q 275 539 275 519 q 289 572 275 558 q 323 586 303 586 m 617 349 l 29 349 l 29 394 l 617 394 l 617 349 m 323 248 q 357 233 343 248 q 370 200 370 219 q 357 166 370 180 q 323 152 343 152 q 289 166 303 152 q 275 200 275 180 q 289 233 275 219 q 323 248 303 248 "},"h":{"x_min":22.375,"x_max":513.421875,"ha":559,"o":"m 328 776 l 174 246 q 329 445 274 396 q 436 494 385 494 q 479 476 462 494 q 497 427 497 457 q 482 340 497 392 l 415 111 q 402 65 402 70 q 407 53 402 58 q 418 48 412 48 q 434 55 425 48 q 496 122 465 80 l 513 111 q 461 48 494 82 q 404 0 428 13 q 362 -12 381 -12 q 329 0 342 -12 q 316 32 316 12 q 335 122 316 56 l 398 340 q 410 404 410 381 q 403 422 410 415 q 385 429 396 429 q 349 417 370 429 q 264 331 312 394 q 177 195 250 314 q 139 111 153 157 l 104 0 l 22 0 l 202 624 l 221 692 q 209 717 221 706 q 180 728 197 728 q 150 725 170 728 l 139 723 l 139 744 l 328 776 "},".":{"x_min":37.984375,"x_max":148.53125,"ha":279,"o":"m 92 97 q 132 81 115 97 q 148 42 148 65 q 132 3 148 19 q 92 -12 115 -12 q 53 3 69 -12 q 37 42 37 19 q 53 81 37 65 q 92 97 69 97 "},"f":{"x_min":-194.65625,"x_max":526.984375,"ha":311,"o":"m 331 480 l 321 444 l 242 444 l 181 206 q 101 -37 141 48 q -21 -205 44 -159 q -122 -241 -71 -241 q -177 -221 -155 -241 q -194 -186 -194 -208 q -180 -155 -194 -168 q -147 -143 -166 -143 q -122 -152 -132 -143 q -111 -173 -111 -161 q -123 -196 -111 -185 q -132 -207 -132 -203 q -128 -215 -132 -212 q -113 -219 -123 -219 q -63 -204 -89 -219 q -17 -160 -37 -189 q 21 -75 2 -130 q 61 75 28 -52 l 156 444 l 61 444 l 69 480 q 132 487 114 480 q 165 511 150 493 q 204 577 180 529 q 266 678 236 642 q 351 752 306 727 q 435 776 396 776 q 501 755 476 776 q 526 710 526 734 q 514 677 526 690 q 482 664 501 664 q 454 674 465 664 q 443 697 443 684 q 450 719 443 706 q 457 736 457 732 q 453 748 457 744 q 432 753 446 753 q 370 731 398 753 q 305 640 334 702 q 250 480 290 609 l 331 480 "},"“":{"x_min":215,"x_max":625.328125,"ha":622,"o":"m 374 740 q 303 689 333 723 q 289 649 289 673 q 292 631 289 638 q 305 613 293 628 q 321 592 318 598 q 325 573 325 582 q 308 533 325 550 q 269 516 292 516 q 231 533 247 516 q 215 580 215 551 q 231 646 215 612 q 282 708 248 680 q 362 757 305 727 l 374 740 m 625 740 q 554 690 569 710 q 539 651 539 670 q 543 631 539 639 q 557 613 544 627 q 572 593 569 598 q 575 574 575 583 q 559 533 575 550 q 520 516 543 516 q 481 533 497 516 q 465 579 465 550 q 499 671 465 626 q 614 753 533 716 l 625 740 "},"A":{"x_min":-54.9375,"x_max":611.75,"ha":683,"o":"m 575 757 l 519 141 q 515 84 515 98 q 523 51 515 63 q 551 27 533 35 q 611 20 569 20 l 605 0 l 314 0 l 320 20 l 332 20 q 390 35 368 20 q 415 69 406 46 q 426 149 421 86 l 435 243 l 223 243 l 147 141 q 115 92 122 107 q 109 63 109 77 q 123 33 109 46 q 170 20 137 21 l 164 0 l -54 0 l -48 20 q 22 47 -8 21 q 114 155 53 72 l 556 757 l 575 757 m 467 575 l 253 283 l 439 283 l 467 575 "},"‘":{"x_min":236.703125,"x_max":396.765625,"ha":372,"o":"m 396 740 q 333 696 355 722 q 310 651 310 671 q 314 633 310 641 q 328 615 315 628 q 343 597 341 602 q 347 576 347 588 q 331 535 347 552 q 293 518 314 518 q 254 536 271 518 q 236 581 236 554 q 275 680 236 630 q 385 757 313 729 l 396 740 "},"O":{"x_min":66.46875,"x_max":802.34375,"ha":808,"o":"m 550 757 q 681 725 624 757 q 770 630 737 693 q 802 501 802 568 q 733 251 802 382 q 553 51 664 120 q 322 -16 441 -16 q 179 21 236 -16 q 94 121 122 59 q 66 242 66 183 q 116 446 66 345 q 236 616 166 548 q 383 720 305 684 q 550 757 462 757 m 532 722 q 425 695 477 722 q 322 606 373 668 q 229 446 270 545 q 179 215 179 323 q 219 77 179 137 q 341 18 259 18 q 439 42 391 18 q 539 126 486 67 q 648 317 603 201 q 692 533 692 433 q 652 665 692 608 q 532 722 612 722 "},"3":{"x_min":37.296875,"x_max":507.3125,"ha":559,"o":"m 170 404 l 170 420 q 368 499 303 440 q 415 597 415 540 q 387 669 415 640 q 321 697 360 697 q 212 621 260 697 l 192 627 q 265 722 221 690 q 362 755 309 755 q 467 717 427 755 q 507 619 507 678 q 470 523 507 569 q 341 440 432 476 q 426 372 398 416 q 455 267 455 328 q 416 130 455 198 q 308 24 377 61 q 164 -12 240 -12 q 60 10 96 -12 q 37 48 37 27 q 51 82 37 68 q 85 95 65 95 q 113 90 99 95 q 156 69 122 88 q 209 44 190 50 q 248 37 228 37 q 330 94 298 37 q 362 216 362 151 q 340 309 362 268 q 272 376 318 350 q 170 404 225 401 "},"9":{"x_min":31.875,"x_max":548.6875,"ha":559,"o":"m 31 -12 l 31 4 q 130 39 88 16 q 262 139 203 80 q 366 277 320 198 q 315 256 333 261 q 273 250 296 250 q 147 307 191 250 q 103 438 103 363 q 188 662 103 569 q 368 755 273 755 q 502 690 455 755 q 548 537 548 625 q 497 319 548 427 q 358 132 446 210 q 173 16 269 54 q 31 -12 115 -5 m 394 322 q 471 601 471 478 q 442 693 471 661 q 373 726 413 726 q 256 636 309 726 q 202 422 202 546 q 233 323 202 356 q 309 289 263 289 q 347 296 330 289 q 394 322 365 302 "},"l":{"x_min":43.40625,"x_max":332.328125,"ha":311,"o":"m 332 776 l 145 126 q 132 67 132 78 q 137 53 132 59 q 149 48 142 48 q 172 57 160 48 q 231 126 200 80 l 248 109 q 152 7 196 36 q 91 -12 120 -12 q 57 1 71 -12 q 43 33 43 15 q 60 114 43 53 l 208 626 q 226 698 226 689 q 216 720 226 712 q 183 729 205 729 q 145 725 171 729 l 145 745 l 332 776 "},"4":{"x_min":35.265625,"x_max":544.609375,"ha":559,"o":"m 544 740 l 402 253 l 491 253 l 472 185 l 382 185 l 324 -12 l 244 -12 l 302 185 l 35 185 l 57 261 l 502 740 l 544 740 m 423 599 l 105 253 l 323 253 l 423 599 "},"Ü":{"x_min":118.6875,"x_max":910.171875,"ha":808,"o":"m 146 740 l 459 740 l 453 720 q 384 711 404 718 q 349 682 364 703 q 319 608 335 662 l 243 345 q 219 254 223 276 q 212 189 212 219 q 262 77 212 123 q 393 31 311 31 q 490 52 447 31 q 563 110 533 73 q 618 210 593 147 q 662 337 643 273 l 728 563 q 752 673 752 648 q 736 704 752 691 q 668 720 719 717 l 674 740 l 910 740 l 904 720 q 844 712 862 720 q 812 683 826 704 q 781 604 798 663 l 701 329 q 628 132 662 196 q 528 25 594 68 q 366 -16 463 -16 q 187 46 255 -16 q 118 190 118 109 q 124 259 118 222 q 146 342 129 283 l 219 594 q 234 674 234 648 q 219 705 234 694 q 141 720 203 716 l 146 740 m 658 934 q 700 917 683 934 q 717 875 717 900 q 700 834 717 851 q 658 817 683 817 q 617 834 635 817 q 600 875 600 851 q 617 917 600 900 q 658 934 634 934 m 464 934 q 506 917 489 934 q 523 875 523 900 q 506 834 523 851 q 464 817 489 817 q 423 834 440 817 q 406 875 406 851 q 423 917 406 900 q 464 934 440 934 "},"à":{"x_min":26.453125,"x_max":524.9375,"ha":559,"o":"m 524 494 l 418 124 l 406 73 q 404 62 404 67 q 410 46 404 53 q 421 42 414 42 q 439 50 427 42 q 496 115 460 66 l 514 103 q 437 16 477 46 q 363 -12 397 -12 q 328 -1 340 -12 q 316 32 316 10 q 328 103 316 59 l 340 144 q 208 13 268 50 q 124 -12 165 -12 q 55 20 84 -12 q 26 110 26 52 q 78 294 26 197 q 210 448 130 390 q 328 494 273 494 q 384 476 362 494 q 418 418 406 459 l 438 480 l 524 494 m 330 465 q 256 432 295 465 q 156 295 200 386 q 113 130 113 204 q 131 71 113 93 q 174 50 150 50 q 303 138 233 50 q 397 377 397 255 q 379 444 397 423 q 330 465 361 465 m 397 765 l 456 577 l 439 577 l 276 765 l 397 765 "},"ó":{"x_min":32.5625,"x_max":516.8125,"ha":559,"o":"m 516 323 q 473 161 516 241 q 352 33 430 80 q 202 -12 275 -12 q 80 34 127 -12 q 32 158 32 82 q 78 319 32 238 q 202 447 124 400 q 351 494 279 494 q 470 446 423 494 q 516 323 516 398 m 426 360 q 401 438 426 411 q 337 465 376 465 q 189 350 257 465 q 122 122 122 236 q 148 42 122 70 q 214 14 174 14 q 359 128 291 14 q 426 360 426 242 m 496 765 l 336 577 l 317 577 l 373 765 l 496 765 "}}}
